<?xml version="1.0" standalone="no"?>
<!DOCTYPE svg PUBLIC "-//W3C//DTD SVG 1.1//EN" "http://www.w3.org/Graphics/SVG/1.1/DTD/svg11.dtd" >
<svg>
<metadata>
Created by FontForge 20090914 at Tue Jun  4 07:23:35 2019
 By www-data
Copyright &#194;&#169; 2016 by FontfabricLLC. All rights reserved.
</metadata>
<defs>
<font id="UniNeueRegular" horiz-adv-x="579" >
  <font-face 
    font-family="Uni Neue Regular"
    font-weight="500"
    font-stretch="normal"
    units-per-em="1000"
    panose-1="0 0 0 0 0 0 0 0 0 0"
    ascent="750"
    descent="-250"
    x-height="517"
    cap-height="715"
    bbox="-202.8 -244 1045 978.999"
    underline-thickness="50"
    underline-position="-175"
    unicode-range="U+0020-U+25CA"
  />
<missing-glyph horiz-adv-x="225" 
 />
    <glyph glyph-name=".notdef" horiz-adv-x="225" 
 />
    <glyph glyph-name="space" unicode=" " horiz-adv-x="225" 
 />
    <glyph glyph-name="exclam" unicode="!" horiz-adv-x="248" 
d="M151 176h-53c-8 0 -12 3.66699 -12 11l-6 342v175c0 7.33301 4 11 12 11h65c7.33301 0 11 -3.66699 11 -11v-175l-6 -342c0 -7.33301 -3.66699 -11 -11 -11zM182 50c0 -16.667 -5.5 -30.5 -16.5 -41.5s-24.833 -16.5 -41.5 -16.5s-30.334 5.5 -41.001 16.5
s-16 24.833 -16 41.5s5.33301 30.5 16 41.5s24.334 16.5 41.001 16.5s30.5 -5.5 41.5 -16.5s16.5 -24.833 16.5 -41.5z" />
    <glyph glyph-name="quotedbl" unicode="&#x22;" horiz-adv-x="329" 
d="M150 703l-24.001 -201c-1.33301 -7.33301 -5.66602 -11 -12.999 -11h-43c-7.33301 0 -11 4 -11 12l10 201c0 7.33301 4 11 12 11h58c7.33301 0 11 -4 11 -12zM279.999 703l-24 -201c0 -7.33301 -4 -11 -12 -11h-43c-7.33301 0 -11 4 -11 12l9 201
c0 7.33301 4.33301 11 13 11h58c8 0 11.333 -4 10 -12z" />
    <glyph glyph-name="numbersign" unicode="#" horiz-adv-x="727" 
d="M175 0h-49.9971c-4 -0 -6.83301 1.33301 -8.5 4s-1.83398 5.66699 -0.500977 9l55 194h-133c-9.33301 0 -12.333 4.33301 -9 13l12 42c2 6.66699 6 10 12 10h136l46 169h-133c-8 0 -11 4.33301 -9 13l12 42c2 6.66699 6.33301 10 13 10h135l57 199c2 6.66699 6 10 12 10
h50c9.33301 0 12.666 -4.33301 9.99902 -13l-56 -196h158l57 199c2 6.66699 6 10 12 10h50c9.33301 0 12.666 -4.33301 9.99902 -13l-56 -196h131c8 0 11 -4.66699 9 -14l-12 -41c-2 -6.66699 -6 -10 -12 -10h-134l-47 -169h131c9.33301 0 12.333 -4.66699 9 -14l-12 -41
c-2 -6.66699 -6 -10 -12 -10h-134l-57 -197c-0.666992 -6.66699 -4.66699 -10 -12 -10h-50c-8.66699 -0 -11.667 4.33301 -9 13l56 194h-158l-57 -197c-2 -6.66699 -6 -10 -12 -10zM308.003 441l-47 -169h158l47 169h-158z" />
    <glyph glyph-name="dollar" unicode="$" horiz-adv-x="584" 
d="M298 402c29.333 -6.66699 52.3291 -12.499 68.9961 -17.499s37.834 -13.167 63.501 -24.5s45.334 -23.666 59.001 -36.999s25.834 -31.5 36.501 -54.5s16 -49.167 16 -78.5c0 -58.667 -19.833 -105 -59.5 -139s-91.167 -54 -154.5 -60v-78c0 -8 -4 -12 -12 -12h-47
c-7.33301 0 -11 4 -11 12v77c-73.333 5.33301 -143 37.333 -209 96c-6 4.66699 -6.66699 10 -2 16l33 46c5.33301 5.33301 10.666 6 15.999 2c66 -53.333 131.333 -80.333 196 -81c46.667 0 86 10.5 118 31.5s48 51.5 48 91.5c0 18 -3.83301 33.833 -11.5 47.5
s-16.167 24.667 -25.5 33s-23.666 16 -42.999 23s-35.166 12.167 -47.499 15.5s-30.833 7.66602 -55.5 12.999c-24.667 6 -46.5 12 -65.5 18s-39.167 14.5 -60.5 25.5s-39 23.333 -53 37s-25.667 31.167 -35 52.5s-14 45 -14 71c0 58.667 19.5 104.667 58.5 138
s89.833 52.666 152.5 57.999v72c0 8 3.66699 12 11 12h47c8 0 12 -4 12 -12v-71c65.333 -6 129.333 -33 192 -81c5.33301 -4 6 -9 2 -15l-32 -46c-3.33301 -5.33301 -8.66602 -6 -15.999 -2c-58 42 -120 64 -186 66c-47.333 0 -85.5 -10.667 -114.5 -32
s-43.5 -50.666 -43.5 -87.999c0 -36.667 13.667 -63.334 41 -80.001s69.666 -31.667 126.999 -45z" />
    <glyph glyph-name="percent" unicode="%" horiz-adv-x="754" 
d="M304 473c0 -38.667 -12.5 -68.834 -37.5 -90.501s-55.167 -32.5 -90.5 -32.5s-65.5 10.833 -90.5 32.5s-37.5 51.834 -37.5 90.501v123c0 40 12.5 70.667 37.5 92s55.167 32 90.5 32s65.5 -10.667 90.5 -32s37.5 -52 37.5 -92v-123zM163 0h-52
c-4.66699 0 -7.66699 1.5 -9 4.5s-1 6.16699 1 9.5l464 687c4 4.66699 8.66699 7 14 7h52c4.66699 0 7.66699 -1.5 9 -4.5s1 -6.16699 -1 -9.5l-464 -687c-4 -4.66699 -8.66699 -7 -14 -7zM108 478c0 -23.333 6.5 -41 19.5 -53s29.167 -18 48.5 -18c18.667 0 34.5 6 47.5 18
s19.5 29.667 19.5 53v111c0 24 -6.5 42.333 -19.5 55s-28.833 19 -47.5 19c-19.333 0 -35.5 -6.33301 -48.5 -19s-19.5 -31 -19.5 -55v-111zM707 114c0 -38.667 -12.5 -68.834 -37.5 -90.501s-55.167 -32.5 -90.5 -32.5c-34.667 0 -64.667 10.833 -90 32.5
s-38 51.834 -38 90.501v123c0 40 12.5 70.667 37.5 92s55.167 32 90.5 32c36 0 66.333 -10.667 91 -32s37 -52 37 -92v-123zM512 119c0 -23.333 6.5 -41 19.5 -53s28.833 -18 47.5 -18s34.5 6 47.5 18s19.5 29.667 19.5 53v111c0 24 -6.5 42.333 -19.5 55
s-28.833 19 -47.5 19s-34.5 -6.33301 -47.5 -19s-19.5 -31 -19.5 -55v-111z" />
    <glyph glyph-name="ampersand" unicode="&#x26;" horiz-adv-x="603" 
d="M431 77c-52.667 -58.667 -113.333 -88 -182 -88c-59.333 0 -108.833 18.333 -148.5 55s-59.5 84.667 -59.5 144c0 44.667 12 83.167 36 115.5s58 62.166 102 89.499c-50.667 64 -76 121.333 -76 172c0 46.667 16.667 85.167 50 115.5s75.666 45.5 126.999 45.5
c50 0 90.5 -15 121.5 -45s46.167 -68.333 45.5 -115c0 -41.333 -13 -77.166 -39 -107.499s-64 -59.5 -114 -87.5l134 -165c18.667 31.333 34 62 46 92c3.33301 7.33301 8 9.33301 14 6l49 -22c7.33301 -2.66699 9.33301 -7.66699 6 -15c-16 -44 -36.667 -86.333 -62 -127
l48 -59l54 -67c2.66699 -4 3.33398 -7.33301 2.00098 -10s-4.33301 -4 -9 -4h-74c-6 -0 -10.667 2.33301 -14 7zM121.001 189c0 -37.333 12.667 -67.334 38 -90.001s57.333 -34 96 -34c49.333 0 92 24.333 128 73l-155 193c-71.333 -41.333 -107 -88.666 -107 -141.999z
M181.001 563.999c0 -33.333 21.667 -77.668 65 -133.001c42 24 73 46.333 93 67s30 43.334 30 68.001c0 26.667 -7.83301 48.167 -23.5 64.5s-38.167 24.5 -67.5 24.5s-52.833 -8.5 -70.5 -25.5s-26.5 -38.833 -26.5 -65.5z" />
    <glyph glyph-name="quotesingle" unicode="'" horiz-adv-x="198" 
d="M149 703l-23.999 -201c-1.33301 -7.33301 -5.33301 -11 -12 -11h-43c-7.33301 0 -11 4 -11 12l9 201c0 7.33301 4 11 12 11h59c7.33301 0 10.666 -4 9.99902 -12z" />
    <glyph glyph-name="parenleft" unicode="(" horiz-adv-x="286" 
d="M257 -116l-60 0.00195312c-6.66699 0 -11.334 2.66699 -14.001 8c-89.333 152 -134 306.667 -134 464s44.667 312 134 464c2.66699 5.33301 7.33398 8 14.001 8h60c10 0 12.667 -4.66699 8 -14c-90 -146.667 -135 -299.334 -135 -458.001s45 -311.334 135 -458.001
c4.66699 -9.33301 2 -14 -8 -14z" />
    <glyph glyph-name="parenright" unicode=")" horiz-adv-x="286" 
d="M88 -116l-60 -0.00195312c-10 0 -12.667 4.66699 -8 14c90 146.667 135 299.334 135 458.001s-45 311.334 -135 458.001c-4.66699 9.33301 -2 14 8 14h60c6.66699 0 11.334 -2.66699 14.001 -8c89.333 -152 134 -306.667 134 -464s-44.667 -312 -134 -464
c-2.66699 -5.33301 -7.33398 -8 -14.001 -8z" />
    <glyph glyph-name="asterisk" unicode="*" horiz-adv-x="457" 
d="M140 365l-41.001 30c-6.66699 4.66699 -7.66699 9.66699 -3 15l72 100l-116 38c-8 2 -10.667 6.66699 -8 14l15 49c3.33301 8 8 10.667 14 8l118 -38v123c0 7.33301 4 11 12 11h50c8 0 12 -3.66699 12 -11v-124l117 38c6 3.33301 10.667 1 14 -7l16 -48
c2.66699 -7.33301 0.333984 -12 -6.99902 -14l-118 -38l72 -100c4.66699 -4.66699 4 -9.66699 -2 -15l-41 -31c-4.66699 -4.66699 -9.66699 -4 -15 2l-73 100l-72 -99c-4 -5.33301 -9.33301 -6.33301 -16 -3z" />
    <glyph glyph-name="plus" unicode="+" 
d="M329 372h170c7.33301 0 11 -3.66699 11 -11v-54c0 -8 -3.66699 -12 -11 -12h-170v-171c0 -8 -4 -12 -12 -12h-55c-8 0 -12 4 -12 12v171h-170c-7.33301 0 -11 4 -11 12v54c0 7.33301 3.66699 11 11 11h170v171c0 8 4 12 12 12h55c8 0 12 -4 12 -12v-171z" />
    <glyph glyph-name="comma" unicode="," horiz-adv-x="215" 
d="M158 91l-66 -199c-1.33301 -6 -5.66602 -9 -12.999 -9h-49c-8 0 -11.333 4.33301 -10 13l53 198c1.33301 6.66699 5.33301 10 12 10h63c9.33301 0 12.666 -4.33301 9.99902 -13z" />
    <glyph glyph-name="hyphen" unicode="-" horiz-adv-x="404" 
d="M327 263h-250c-7.33301 0 -11 3.66699 -11 11v54c0 7.33301 3.66699 11 11 11h250c7.33301 0 11 -3.66699 11 -11v-54c0 -7.33301 -3.66699 -11 -11 -11z" />
    <glyph glyph-name="period" unicode="." horiz-adv-x="211" 
d="M161 50c0 -16 -5.16699 -29.167 -15.5 -39.5s-23.5 -15.5 -39.5 -15.5c-16.667 0 -30 5.16699 -40 15.5s-15 23.5 -15 39.5c0 16.667 5 30.167 15 40.5s23.333 15.5 40 15.5c16 0 29.167 -5.16699 39.5 -15.5s15.5 -23.833 15.5 -40.5z" />
    <glyph glyph-name="slash" unicode="/" horiz-adv-x="420" 
d="M394 702l-284.998 -693c-2 -6 -6.33301 -9 -13 -9h-61c-4 -0 -6.83301 1.33301 -8.5 4s-1.83398 5.66699 -0.500977 9l287 693c3.33301 6 7.66602 9 12.999 9h60c9.33301 0 12 -4.33301 8 -13z" />
    <glyph glyph-name="zero" unicode="0" horiz-adv-x="610" 
d="M544 225c0 -77.333 -23 -136 -69 -176s-102.333 -60 -169 -60c-67.333 0 -124.166 20 -170.499 60s-69.5 98.667 -69.5 176v267c0 76.667 23.167 134.834 69.5 174.501s103.166 59.5 170.499 59.5c66.667 0 123 -19.833 169 -59.5s69 -97.834 69 -174.501v-267zM149 222
c0 -52 15 -90.5 45 -115.5s67.333 -37.5 112 -37.5c44 0 80.833 12.5 110.5 37.5s44.5 63.5 44.5 115.5v267c0 54 -14.667 93.667 -44 119s-66.333 38 -111 38c-45.333 0 -82.833 -12.667 -112.5 -38s-44.5 -65 -44.5 -119v-267z" />
    <glyph glyph-name="one" unicode="1" horiz-adv-x="358" 
d="M258 0l-59 0.000976562c-8 0 -12 3.66699 -12 11v605l-123 -82c-6.66699 -4 -12 -3 -16 3l-28 46c-4.66699 5.33301 -3.66699 10.666 3 15.999l169 112c4.66699 2.66699 9.66699 4 15 4h51c8 0 12 -3.66699 12 -11v-693c0 -7.33301 -4 -11 -12 -11z" />
    <glyph glyph-name="two" unicode="2" horiz-adv-x="554" 
d="M495 0l-444 0.00292969c-7.33301 0 -11 3.66699 -11 11v41c0 6 2 10.667 6 14l195 205c57.333 60 99.333 109.167 126 147.5s40 76.166 40 113.499c0 32 -10.5 59.333 -31.5 82s-52.833 34 -95.5 34c-64 0 -122.667 -29.333 -176 -88c-4.66699 -6 -10 -6 -16 0l-32 44
c-4 5.33301 -4 10.666 0 15.999c62.667 70.667 137 106 223 106c63.333 0 114.5 -17.333 153.5 -52s58.5 -81.667 58.5 -141c0 -46.667 -13.667 -91.834 -41 -135.501s-72.333 -99.5 -135 -167.5c-49.333 -54.667 -98.333 -105.667 -147 -153h327c7.33301 0 11 -4 11 -12
v-54c0 -7.33301 -3.66699 -11 -11 -11z" />
    <glyph glyph-name="three" unicode="3" horiz-adv-x="564" 
d="M515 222c0 -70.667 -22.501 -126.997 -67.501 -168.997s-102.833 -63 -173.5 -63c-51.333 0 -95.5 8.5 -132.5 25.5s-71.833 41.5 -104.5 73.5c-5.33301 5.33301 -5.33301 10.666 0 15.999l34 37c6 5.33301 11.667 5.33301 17 0c30 -25.333 58.333 -44 85 -56
s60.334 -18 101.001 -18c47.333 0 85.333 13.667 114 41s43 65.333 43 114c0 47.333 -14.5 83.666 -43.5 108.999s-70.167 38 -123.5 38c-18.667 0 -39 -2 -61 -6c-6.66699 -1.33301 -11 1.33398 -13 8.00098l-13 27c-3.33301 5.33301 -2.66602 10.666 2.00098 15.999
l128 139c37.333 41.333 64.666 69.333 81.999 84h-309c-7.33301 0 -11 4 -11 12v54c0 7.33301 3.66699 11 11 11h407c7.33301 0 11 -3.66699 11 -11v-39c0 -4.66699 -1.66699 -9.33398 -5 -14.001l-206 -222l7 -1c62.667 1.33301 115.167 -16.667 157.5 -54
s63.5 -88 63.5 -152z" />
    <glyph glyph-name="four" unicode="4" horiz-adv-x="558" 
d="M438 0l-60 -0.000976562c-7.33301 0 -11 3.66699 -11 11v156h-327c-8 0 -12 3.66699 -12 11v44c0 4.66699 1.33301 9.33398 4 14.001l260 471c2.66699 5.33301 7 8 13 8h70c10 0 12.667 -4.66699 8 -14l-253 -458h237v153c0 7.33301 3.66699 11 11 11h60
c8 0 12 -3.66699 12 -11v-153h67c7.33301 0 11 -3.66699 11 -11v-54c0 -7.33301 -3.66699 -11 -11 -11h-67v-156c0 -7.33301 -4 -11 -12 -11z" />
    <glyph glyph-name="five" unicode="5" horiz-adv-x="576" 
d="M529 236c0 -74.667 -21.666 -134.166 -64.999 -178.499s-102 -66.5 -176 -66.5c-90 0 -166.333 32 -229 96c-4.66699 6 -4.66699 11.333 0 16l40 41c4.66699 5.33301 10 5 16 -1c52 -48.667 110.333 -73 175 -73c49.333 0 87.5 14.667 114.5 44s40.5 69.666 40.5 120.999
c0 102.667 -50.667 154 -152 154c-60 0 -109.333 -18.333 -148 -55c-4.66699 -4.66699 -9.66699 -6 -15 -4l-48 17c-6.66699 2 -10 6.33301 -10 13l13 344c0 7.33301 4 11 12 11h384c8 0 12 -3.66699 12 -11v-56c0 -7.33301 -4 -11 -12 -11h-321l-8 -214
c41.333 30 90.666 45 147.999 45c70 0 125.667 -20 167 -60s62 -97.333 62 -172z" />
    <glyph glyph-name="six" unicode="6" horiz-adv-x="589" 
d="M150 385c37.333 47.333 91.333 71 162 71c71.333 0 127.5 -19.833 168.5 -59.5s61.5 -95.834 61.5 -168.501c0 -71.333 -22 -129 -66 -173s-101.333 -66 -172 -66c-70 0 -127.167 21.333 -171.5 64s-66.5 98.667 -66.5 168v273c0 73.333 22.5 130.333 67.5 171
s101.167 61 168.5 61c78 0 147 -24.333 207 -73c4.66699 -4.66699 5 -10 1 -16l-32 -43c-4 -7.33301 -9.33301 -8.33301 -16 -3c-46.667 38 -99.667 57 -159 57c-44 0 -80.5 -13.167 -109.5 -39.5s-43.5 -63.166 -43.5 -110.499v-113zM150 221
c0 -46.667 14.1689 -83.832 42.502 -111.499s66.166 -41.5 113.499 -41.5s84.5 14.167 111.5 42.5s40.5 67.166 40.5 116.499c0 48.667 -12.5 86 -37.5 112s-62.167 39 -111.5 39c-44.667 0 -82.334 -12.167 -113.001 -36.5s-46 -60.5 -46 -108.5v-12z" />
    <glyph glyph-name="seven" unicode="7" horiz-adv-x="522" 
d="M172 0h-70c-10 0 -12.667 4.66699 -8 14l300 621h-357c-7.33301 0 -11 3.66699 -11 11v58c0 7.33301 3.66699 11 11 11h452c8 0 12 -3.66699 12 -11v-35c0 -4.66699 -1 -9 -3 -13l-313 -648c-2 -5.33301 -6.33301 -8 -13 -8z" />
    <glyph glyph-name="eight" unicode="8" horiz-adv-x="611" 
d="M556 205c0 -66.667 -22.8311 -119.334 -68.498 -158.001s-106.167 -58 -181.5 -58c-76 0 -136.833 19.333 -182.5 58s-68.5 91.334 -68.5 158.001c0 38 10.167 72.667 30.5 104s49.166 54 86.499 68c-65.333 29.333 -98 82 -98 158c0 54 21.5 99.333 64.5 136
s98.833 55 167.5 55c68 0 123.5 -18.333 166.5 -55s64.5 -82 64.5 -136c0 -76 -32.667 -128.667 -98 -158c37.333 -14 66.166 -36.667 86.499 -68s30.5 -66 30.5 -104zM139.002 206c0 -41.333 15 -74.833 45 -100.5s70.667 -38.5 122 -38.5s91.833 12.833 121.5 38.5
s44.5 59.167 44.5 100.5c0 38.667 -15 69.667 -45 93s-70.333 35 -121 35c-51.333 0 -92 -11.667 -122 -35s-45 -54.333 -45 -93zM157.002 532c0 -38 13 -68 39 -90s62.667 -33 110 -33s83.833 11 109.5 33s38.5 52 38.5 90c0 36 -13.167 64.333 -39.5 85
s-62.5 31 -108.5 31s-82.333 -10.167 -109 -30.5s-40 -48.833 -40 -85.5z" />
    <glyph glyph-name="nine" unicode="9" horiz-adv-x="589" 
d="M48 487c0 71.333 22 129 66 173s101 66 171 66s127.167 -21.333 171.5 -64s66.5 -98.667 66.5 -168v-273c0 -73.333 -22.5 -130.333 -67.5 -171s-100.833 -61 -167.5 -61c-78.667 0 -148.667 29 -210 87c-5.33301 5.33301 -5.66602 10.666 -0.999023 15.999l33 45
c4 6 9.33301 6.33301 16 1c48 -46.667 101.667 -70 161 -70c43.333 0 79.666 13.167 108.999 39.5s44 62.833 44 109.5v112c-38.667 -46.667 -93 -70 -163 -70c-71.333 0 -127.333 19.833 -168 59.5s-61 95.834 -61 168.501zM131 488c0 -100.667 50.9971 -151 152.997 -151
c42.667 0 79.334 12.5 110.001 37.5s46 60.833 46 107.5v12c0 47.333 -14.167 84.833 -42.5 112.5s-66.166 41.5 -113.499 41.5s-84.666 -14.167 -111.999 -42.5s-41 -67.5 -41 -117.5z" />
    <glyph glyph-name="colon" unicode=":" horiz-adv-x="244" 
d="M177 466c0 -16.667 -5 -30.167 -15 -40.5s-23.333 -15.5 -40 -15.5s-30 5.16699 -40 15.5s-15 23.833 -15 40.5s5 30 15 40s23.333 15 40 15s30 -5 40 -15s15 -23.333 15 -40zM177 50c0 -16.667 -5 -30 -15 -40s-23.333 -15 -40 -15s-30 5 -40 15s-15 23.333 -15 40
s5 30.167 15 40.5s23.333 15.5 40 15.5s30 -5.16699 40 -15.5s15 -23.833 15 -40.5z" />
    <glyph glyph-name="semicolon" unicode=";" horiz-adv-x="255" 
d="M98 -117h-49.001c-8.66699 0 -12 4.33301 -10 13l52 205c2 6.66699 6 10 12 10h64c4 0 6.83301 -1.33301 8.5 -4s1.83398 -5.66699 0.500977 -9l-65 -205c-2 -6.66699 -6.33301 -10 -13 -10zM187.999 466c0 -16.667 -5.16699 -30.167 -15.5 -40.5
s-23.833 -15.5 -40.5 -15.5s-30 5.16699 -40 15.5s-15 23.833 -15 40.5c0 16 5 29.167 15 39.5s23.333 15.5 40 15.5s30.167 -5.16699 40.5 -15.5s15.5 -23.5 15.5 -39.5z" />
    <glyph glyph-name="less" unicode="&#x3c;" 
d="M496 165v-66c0 -4 -1.5 -6.83301 -4.5 -8.5s-6.16699 -1.5 -9.5 0.5l-419 204c-5.33301 3.33301 -8 8 -8 14v42c0 6 2.66699 10.333 8 13l419 205c3.33301 2 6.5 2 9.5 0s4.5 -5 4.5 -9v-66c0 -6.66699 -3 -11 -9 -13l-329 -151l329 -151c6 -3.33301 9 -8 9 -14z" />
    <glyph glyph-name="equal" unicode="=" 
d="M499 385h-419c-7.33301 0 -11 4 -11 12v54c0 7.33301 3.66699 11 11 11h419c7.33301 0 11 -3.66699 11 -11v-54c0 -8 -3.66699 -12 -11 -12zM499 203h-419c-7.33301 0 -11 3.66699 -11 11v54c0 8 3.66699 12 11 12h419c7.33301 0 11 -4 11 -12v-54
c0 -7.33301 -3.66699 -11 -11 -11z" />
    <glyph glyph-name="greater" unicode="&#x3e;" 
d="M516 295l-419 -204.001c-9.33301 -4.66699 -14 -2 -14 8v66c0 6 3 10.667 9 14l329 151l-329 151c-6 2 -9 6.33301 -9 13v66c0 4 1.33301 7 4 9s6 2 10 0l419 -205c5.33301 -3.33301 8 -7.66602 8 -12.999v-42c0 -5.33301 -2.66699 -10 -8 -14z" />
    <glyph glyph-name="question" unicode="?" horiz-adv-x="475" 
d="M244 176l-59.001 -0.00390625c-7.33301 0 -11 3.66699 -11 11v59c0 26.667 6.33301 50.334 19 71.001s28 37.834 46 51.501l53.5 40.5c17.667 13.333 32.834 29.833 45.501 49.5s19 41.834 19 66.501c0 36 -11 66.333 -33 91s-55.667 37 -101 37
c-54.667 0 -103.667 -21.667 -147 -65c-6.66699 -6 -12 -5.66699 -16 1l-31 44c-4 5.33301 -3.66699 10.333 1 15c21.333 22 49 40.5 83 55.5s71.333 22.5 112 22.5c61.333 0 112 -18 152 -54s60 -85 60 -147c0 -27.333 -4.5 -51.666 -13.5 -72.999
s-20.167 -38.333 -33.5 -51s-27.833 -25.5 -43.5 -38.5l-43.5 -35.5c-13.333 -10.667 -24.5 -24.167 -33.5 -40.5s-13.5 -34.833 -13.5 -55.5v-44c0 -7.33301 -4 -11 -12 -11zM270.999 49.9961c0 -16 -5.16699 -29.167 -15.5 -39.5s-23.833 -15.5 -40.5 -15.5
s-30 5.16699 -40 15.5s-15 23.5 -15 39.5c0 16.667 5 30.167 15 40.5s23.333 15.5 40 15.5s30.167 -5.16699 40.5 -15.5s15.5 -23.833 15.5 -40.5z" />
    <glyph glyph-name="at" unicode="@" horiz-adv-x="927" 
d="M630 -66c-24.667 -13.333 -57.5 -24.165 -98.5 -32.498s-78.5 -12.5 -112.5 -12.5c-117.333 0 -206.666 33.333 -267.999 100s-92 156.334 -92 269.001v126c0 105.333 31.167 188.666 93.5 249.999s162.166 92 299.499 92c181.333 0 316 -59 404 -177
c2.66699 -4.66699 4 -9.33398 4 -14.001v-278c0 -58 -13.167 -102 -39.5 -132s-62.166 -45 -107.499 -45c-56 0 -96 18.333 -120 55c-28 -38 -72 -57 -132 -57c-54 0 -98.167 17.667 -132.5 53s-51.5 80 -51.5 134v76c0 54 16.5 97.5 49.5 130.5s77.833 49.5 134.5 49.5
c68 0 124.667 -12 170 -36c5.33301 -2.66699 8 -7 8 -13v-248c0 -26.667 7 -46.834 21 -60.501s33 -20.5 57 -20.5c50.667 0.666992 76 35.334 76 104.001v277c-82 93.333 -195 140 -339 140c-111.333 0 -193.5 -24.5 -246.5 -73.5s-79.5 -117.833 -79.5 -206.5v-126
c0 -96 25.5 -170.667 76.5 -224s123.167 -80 216.5 -80c71.333 0 134.666 13.333 189.999 40c8 4.66699 12.667 2.66699 14 -6l11 -40c1.33301 -6.66699 -0.666992 -11.334 -6 -14.001zM348 267.001c0 -40 10.5 -70.5 31.5 -91.5s48.167 -31.5 81.5 -31.5
c26.667 0 49.5 5.33301 68.5 16s31.5 24.667 37.5 42v235c-24 13.333 -59.333 20 -106 20c-34.667 0 -62.167 -10.5 -82.5 -31.5s-30.5 -49.167 -30.5 -84.5v-74z" />
    <glyph glyph-name="A" unicode="A" horiz-adv-x="619" 
d="M85 0h-67c-8 -0 -11 4.33301 -9 13l249 693c2 6 6 9 12 9h79c6.66699 0 11 -3 13 -9l248 -693c3.33301 -8.66699 0.333008 -13 -9 -13h-67c-6.66699 0 -11 3 -13 9l-61 178h-300l-62 -178c-2 -6 -6.33301 -9 -13 -9zM308 620l-122 -354h248l-122 354h-4z" />
    <glyph glyph-name="B" unicode="B" horiz-adv-x="637" 
d="M558 527c0 -33.333 -7.5 -62.834 -22.5 -88.501s-35.833 -44.834 -62.5 -57.501c36.667 -13.333 65 -35.166 85 -65.499s30 -66.5 30 -108.5c0 -65.333 -21.5 -116.166 -64.5 -152.499s-103.5 -54.5 -181.5 -54.5h-241c-8 0 -12 3.66699 -12 11v693c0 7.33301 4 11 12 11
h242c70 0 123.333 -16.833 160 -50.5s55 -79.5 55 -137.5zM174 76.999l169 -0.000976562c50.667 0 89.834 10.833 117.501 32.5s41.5 54.167 41.5 97.5c0 40.667 -12.833 72.834 -38.5 96.501s-63.834 35.5 -114.501 35.5h-175v-262zM472 526.998
c0 34.667 -11 61.832 -33 81.499s-54 29.5 -96 29.5h-169v-222h175c38 0 68 9.33301 90 28s33 46.334 33 83.001z" />
    <glyph glyph-name="C" unicode="C" horiz-adv-x="587" 
d="M555 65c-61.333 -50.667 -136.999 -76 -226.999 -76c-76.667 0 -139.667 21.5 -189 64.5s-74 103.833 -74 182.5v242c0 79.333 24.5 140.5 73.5 183.5s111.5 64.5 187.5 64.5c79.333 0 150.333 -23.333 213 -70c5.33301 -4 6 -9 2 -15l-32 -47
c-4 -5.33301 -9.66699 -6 -17 -2c-49.333 36 -105 54 -167 54c-56 0 -99.167 -15 -129.5 -45s-45.5 -71 -45.5 -123v-241c0 -52 15.333 -93 46 -123s74 -45 130 -45c69.333 0 130.666 20.667 183.999 62c5.33301 5.33301 10.333 4.33301 15 -3l33 -46
c4 -7.33301 3 -13 -3 -17z" />
    <glyph glyph-name="D" unicode="D" horiz-adv-x="670" 
d="M345 0h-244c-8 0 -12 3.66699 -12 11v693c0 7.33301 4 11 12 11h244c81.333 0 145 -22.5 191 -67.5s69 -108.167 69 -189.5v-205c0 -80.667 -23 -143 -69 -187s-109.667 -66 -191 -66zM175 637v-557h169c56 0 98.833 14.5 128.5 43.5s44.5 72.167 44.5 129.5v205
c0 58.667 -14.833 103.167 -44.5 133.5s-72.5 45.5 -128.5 45.5h-169z" />
    <glyph glyph-name="E" unicode="E" 
d="M175 324v-246h344c7.33301 0 11 -3.66699 11 -11v-56c0 -7.33301 -3.66699 -11 -11 -11h-418c-8 0 -12 3.66699 -12 11v693c0 7.33301 4 11 12 11h404c7.33301 0 11 -3.66699 11 -11v-56c0 -7.33301 -3.66699 -11 -11 -11h-330v-234h307c7.33301 0 11 -4 11 -12v-55
c0 -8 -3.66699 -12 -11 -12h-307z" />
    <glyph glyph-name="F" unicode="F" horiz-adv-x="559" 
d="M528 704v-56c0 -7.33301 -4 -11 -12 -11h-342v-252h304c7.33301 0 11 -3.66699 11 -11v-56c0 -7.33301 -3.66699 -11 -11 -11h-304v-296c0 -7.33301 -3.66699 -11 -11 -11h-62c-8 0 -12 3.66699 -12 11v693c0 7.33301 4 11 12 11h415c8 0 12 -3.66699 12 -11z" />
    <glyph glyph-name="G" unicode="G" horiz-adv-x="646" 
d="M582 90c-65.333 -67.333 -148.331 -101 -248.998 -101c-77.333 0 -141.333 21.667 -192 65s-76 104.333 -76 183v242c0 78.667 24.667 139.5 74 182.5s111.666 64.5 186.999 64.5c89.333 0 168.333 -23.667 237 -71c7.33301 -4 8.33301 -9.33301 3 -16l-34 -47
c-3.33301 -5.33301 -8.33301 -6.33301 -15 -3c-57.333 38 -121 57 -191 57c-54 0 -96.833 -14.833 -128.5 -44.5s-47.5 -71.167 -47.5 -124.5v-240c0 -53.333 16.667 -94.5 50 -123.5s77.666 -43.5 132.999 -43.5c68.667 0 125 18.667 169 56v186h-164
c-7.33301 0 -11 3.66699 -11 11v56c0 7.33301 3.66699 11 11 11h237c7.33301 0 11 -3.66699 11 -11v-276c0 -6 -1.33301 -10.333 -4 -13z" />
    <glyph glyph-name="H" unicode="H" horiz-adv-x="682" 
d="M508 402v302c0 7.33301 4 11 12 11h62c7.33301 0 11 -3.66699 11 -11v-693c0 -7.33301 -3.66699 -11 -11 -11h-62c-8 0 -12 3.66699 -12 11v313h-334v-313c0 -7.33301 -3.66699 -11 -11 -11h-62c-8 0 -12 3.66699 -12 11v693c0 7.33301 4 11 12 11h62
c7.33301 0 11 -3.66699 11 -11v-302h334z" />
    <glyph glyph-name="I" unicode="I" horiz-adv-x="263" 
d="M174 704v-693c0 -7.33301 -3.66699 -11 -11 -11h-62c-8 0 -12 3.66699 -12 11v693c0 7.33301 4 11 12 11h62c7.33301 0 11 -3.66699 11 -11z" />
    <glyph glyph-name="J" unicode="J" horiz-adv-x="506" 
d="M421 228c0 -76 -19.167 -134.834 -57.5 -176.501s-88.833 -62.5 -151.5 -62.5c-71.333 0 -137 26 -197 78c-6 4 -6.66699 9.33301 -2 16l28 46c4 6.66699 9.33301 7.33398 16 2.00098c51.333 -40.667 103 -61 155 -61c82.667 0 124 53 124 159v475c0 7.33301 4 11 12 11
h62c7.33301 0 11 -3.66699 11 -11v-476z" />
    <glyph glyph-name="K" unicode="K" horiz-adv-x="614" 
d="M163 0h-61.999c-8 0 -12 3.66699 -12 11v693c0 7.33301 4 11 12 11h62c7.33301 0 11 -3.66699 11 -11v-331l309 335c4.66699 4.66699 9.66699 7 15 7h80c5.33301 0 8.66602 -1.5 9.99902 -4.5s0.333008 -6.16699 -3 -9.5l-287 -308l307 -379
c2.66699 -4 3.33398 -7.33301 2.00098 -10s-4.33301 -4 -9 -4h-81c-6.66699 -0 -11.334 2.33301 -14.001 7l-262 326l-67 -69v-253c0 -7.33301 -3.66699 -11 -11 -11z" />
    <glyph glyph-name="L" unicode="L" horiz-adv-x="512" 
d="M489 0h-388c-8 0 -12 3.66699 -12 11v693c0 7.33301 4 11 12 11h63c7.33301 0 11 -3.66699 11 -11v-626h314c7.33301 0 11 -3.66699 11 -11v-56c0 -7.33301 -3.66699 -11 -11 -11z" />
    <glyph glyph-name="M" unicode="M" horiz-adv-x="853" 
d="M163 0h-62.001c-8 0 -12 3.66699 -12 11v693c0 7.33301 4 11 12 11h76c6 0 10.333 -2.66699 13 -8l155 -282c26.667 -49.333 53.334 -102 80.001 -158h3c28 58.667 54.667 111 80 157l156 283c2 5.33301 6.33301 8 13 8h76c7.33301 0 11 -3.66699 11 -11v-693
c0 -7.33301 -3.66699 -11 -11 -11h-63c-7.33301 0 -11 3.66699 -11 11v302c0 67.333 2 157.666 6 270.999l-2 1l-91 -176l-125 -232c-3.33301 -5.33301 -8 -8 -14 -8h-53c-6.66699 0 -11 2.66699 -13 8l-125 232c-38.667 72 -69 130.667 -91 176l-2 -1
c3.33301 -141.333 5 -231.666 5 -270.999v-302c0 -7.33301 -3.66699 -11 -11 -11z" />
    <glyph glyph-name="N" unicode="N" horiz-adv-x="704" 
d="M162 0l-60.999 0.00195312c-8 0 -12 3.66699 -12 11v693c0 7.33301 4 11 12 11h70c6 0 10.667 -2.66699 14 -8l265 -432c45.333 -76.667 73.333 -125.334 84 -146.001l3 1c-4 83.333 -6 173.666 -6 270.999v303c0 7.33301 3.66699 11 11 11h62
c7.33301 0 11 -3.66699 11 -11v-693c0 -7.33301 -3.66699 -11 -11 -11h-70c-6.66699 -0 -11.334 2.33301 -14.001 7l-263 417c-33.333 54 -62.333 104.667 -87 152l-2 -1c4 -105.333 6 -192.333 6 -261v-303c0 -7.33301 -4 -11 -12 -11z" />
    <glyph glyph-name="O" unicode="O" horiz-adv-x="674" 
d="M610 251c0 -80.667 -24.333 -144.5 -73 -191.5s-115.334 -70.5 -200.001 -70.5s-151.334 23.5 -200.001 70.5s-73 110.833 -73 191.5v211c0 82 24.333 146.5 73 193.5s115.334 70.5 200.001 70.5s151.334 -23.5 200.001 -70.5s73 -111.5 73 -193.5v-211zM150 251
c0 -56.667 16.333 -101 49 -133s78.667 -48 138 -48s105.166 16 137.499 48s48.5 76.333 48.5 133v211c0 58.667 -16.167 104.167 -48.5 136.5s-78.166 48.5 -137.499 48.5s-105.333 -16.167 -138 -48.5s-49 -77.833 -49 -136.5v-211z" />
    <glyph glyph-name="P" unicode="P" horiz-adv-x="625" 
d="M100 715l241 -0.000976562c78.667 0 139.667 -20.667 183 -62s65 -98.666 65 -171.999c0 -74 -21.667 -131.667 -65 -173s-104.333 -62 -183 -62h-167v-235c0 -7.33301 -3.66699 -11 -11 -11h-63c-7.33301 0 -11 3.66699 -11 11v693c0 7.33301 3.66699 11 11 11z
M174 324.999h158c114 0 171 52 171 156c0 103.333 -57 155 -171 155h-158v-311z" />
    <glyph glyph-name="Q" unicode="Q" horiz-adv-x="675" 
d="M613 -2l-34.001 -34c-6 -6 -11.667 -6 -17 0l-64 67c-46 -28 -99.667 -42 -161 -42c-84.667 0 -151.334 23.667 -200.001 71s-73 111 -73 191v211c0 82 24.333 146.5 73 193.5s115.334 70.5 200.001 70.5s151.334 -23.5 200.001 -70.5s73 -111.5 73 -193.5v-211
c0 -70 -19.333 -127.333 -58 -172l61 -65c5.33301 -6 5.33301 -11.333 0 -16zM149.999 251c0 -56.667 16.332 -101.167 48.999 -133.5s78.667 -48.5 138 -48.5c36 0 69.667 8.33301 101 25l-91 95c-4.66699 6 -4.66699 11.333 0 16l34 34c6 6 11.667 6 17 0l93 -97
c21.333 30.667 32 67 32 109v211c0 58 -16.167 103.333 -48.5 136s-78.166 49 -137.499 49s-105.333 -16.333 -138 -49s-49 -78 -49 -136v-211z" />
    <glyph glyph-name="R" unicode="R" horiz-adv-x="631" 
d="M586 0l-78.001 0.00195312c-6.66699 0 -11.334 2.33301 -14.001 7l-199 272h-121v-268c0 -7.33301 -3.66699 -11 -11 -11h-62c-8 0 -12 3.66699 -12 11v693c0 7.33301 4 11 12 11h225c78.667 0 140.334 -19.333 185.001 -58s67 -92.334 67 -161.001
c0 -56.667 -16.5 -103.334 -49.5 -140.001s-79.167 -60 -138.5 -70l203 -272c2.66699 -4 3.33398 -7.33301 2.00098 -10s-4.33301 -4 -9 -4zM326.999 637.002h-153v-281h153c109.333 0 164 46.667 164 140c0 94 -54.667 141 -164 141z" />
    <glyph glyph-name="S" unicode="S" horiz-adv-x="606" 
d="M564 194c0 -68 -24.6641 -119.165 -73.9971 -153.498s-112 -51.5 -188 -51.5c-48 0 -91.5 7.66699 -130.5 23s-78.833 39.333 -119.5 72c-5.33301 4.66699 -6 10 -2 16l34 47c4.66699 6.66699 9.66699 7.66699 15 3c69.333 -52.667 138 -79.334 206 -80.001
c49.333 0 90.5 10.333 123.5 31s49.5 51 49.5 91c0 38.667 -15 67.167 -45 85.5s-77.333 34.5 -142 48.5c-33.333 7.33301 -63 16 -89 26s-51 23 -75 39s-42.5 36.333 -55.5 61s-19.5 53 -19.5 85c0 62.667 24 109.834 72 141.501s109 47.5 183 47.5
c81.333 0 159 -26.667 233 -80c6.66699 -4 7.66699 -9 3 -15l-33 -47c-4 -6 -9.33301 -6.66699 -16 -2c-60 41.333 -124.667 63 -194 65c-48.667 0 -87.834 -9.83301 -117.501 -29.5s-44.5 -47.167 -44.5 -82.5s14.333 -62 43 -80s72.667 -33.667 132 -47
c30 -6.66699 55.833 -13.334 77.5 -20.001s44.167 -15.834 67.5 -27.501s42.166 -24.5 56.499 -38.5s26.166 -32 35.499 -54s14 -46.667 14 -74z" />
    <glyph glyph-name="T" unicode="T" horiz-adv-x="561" 
d="M23 715h514c8 0 12 -3.66699 12 -11v-56c0 -7.33301 -4 -11 -12 -11h-214v-626c0 -7.33301 -4 -11 -12 -11h-62c-8 0 -12 3.66699 -12 11v626h-214c-7.33301 0 -11 3.66699 -11 11v56c0 7.33301 3.66699 11 11 11z" />
    <glyph glyph-name="U" unicode="U" horiz-adv-x="691" 
d="M608 244c0 -76.667 -23.833 -138.334 -71.5 -185.001s-111.5 -70 -191.5 -70c-79.333 0 -142.833 23.333 -190.5 70s-71.5 108.334 -71.5 185.001v460c0 7.33301 4 11 12 11h64c7.33301 0 11 -3.66699 11 -11v-454c0 -56.667 15.333 -101.167 46 -133.5
s73.667 -48.5 129 -48.5c56 0 99.333 16.167 130 48.5s46 76.833 46 133.5v454c0 7.33301 3.66699 11 11 11h64c8 0 12 -3.66699 12 -11v-460z" />
    <glyph glyph-name="V" unicode="V" horiz-adv-x="631" 
d="M357 0h-85c-6.66699 0 -11 3 -13 9l-252 693c-3.33301 8.66699 -0.333008 13 9 13h68c6.66699 0 11 -3 13 -9l145 -409l71 -203h3l70 201l146 411c2 6 6.33301 9 13 9h68c8 0 11 -4.33301 9 -13l-252 -693c-2 -6 -6.33301 -9 -13 -9z" />
    <glyph glyph-name="W" unicode="W" horiz-adv-x="951" 
d="M292 0l-72.998 -0.000976562c-6.66699 0 -11 3.33301 -13 10l-193 692c-2.66699 8.66699 0.666016 13 9.99902 13h67c7.33301 0 11.333 -3.33301 12 -10l104 -391c19.333 -72.667 36 -143 50 -211h2c16.667 66.667 37 141 61 223l110 368c2 6.66699 6 10 12 10h68
c6 0 10 -3.33301 12 -10l111 -368c26.667 -92.667 47 -167 61 -223h2c18.667 86.667 35 157 49 211l104 391c2 6.66699 6 10 12 10h68c9.33301 0 12.666 -4.33301 9.99902 -13l-194 -692c-2 -6.66699 -6 -10 -12 -10h-73c-7.33301 0 -11.333 3.33301 -12 10l-115 373
c-24.667 84 -43 154.333 -55 211h-3c-16 -73.333 -34.333 -143.666 -55 -210.999l-115 -373c-2 -6.66699 -6 -10 -12 -10z" />
    <glyph glyph-name="X" unicode="X" horiz-adv-x="590" 
d="M345 359l224.001 -345c2.66699 -3.33301 3.33398 -6.5 2.00098 -9.5s-4.33301 -4.5 -9 -4.5h-77c-6 0 -10.667 2.66699 -14 8l-175 284l-176 -284c-3.33301 -5.33301 -8 -8 -14 -8h-77c-4.66699 0 -7.83398 1.5 -9.50098 4.5s-1.16699 6.16699 1.5 9.5l225 345l-214 342
c-2.66699 3.33301 -3.16699 6.5 -1.5 9.5s4.83398 4.5 9.50098 4.5h76c5.33301 0 9.66602 -2.66699 12.999 -8l167 -279l166 279c3.33301 5.33301 7.66602 8 12.999 8h76c4 0 6.83301 -1.5 8.5 -4.5s1.16699 -6.16699 -1.5 -9.5z" />
    <glyph glyph-name="Y" unicode="Y" horiz-adv-x="568" 
d="M315 0h-63c-7.33301 0 -11 3.66699 -11 11v261l-235 429c-4.66699 9.33301 -2 14 8 14h72c6.66699 0 11 -2.66699 13 -8l185 -357l184 357c2 5.33301 6.33301 8 13 8h72c10 0 12.667 -4.66699 8 -14l-234 -431v-259c0 -7.33301 -4 -11 -12 -11z" />
    <glyph glyph-name="Z" unicode="Z" horiz-adv-x="588" 
d="M540 0h-493c-7.33301 0 -11 3.66699 -11 11v39c0 6 1.33301 10.667 4 14l388 573h-364c-8 0 -12 3.66699 -12 11v56c0 7.33301 4 11 12 11h467c7.33301 0 11 -3.66699 11 -11v-38c0 -5.33301 -1.33301 -10.333 -4 -15l-387 -573h389c7.33301 0 11 -3.66699 11 -11v-56
c0 -7.33301 -3.66699 -11 -11 -11z" />
    <glyph glyph-name="bracketleft" unicode="[" horiz-adv-x="285" 
d="M163 753v-795h77c8 0 12 -3.66699 12 -11v-53c0 -7.33301 -4 -11 -12 -11h-146c-8 0 -12 3.66699 -12 11v923c0 7.33301 4 11 12 11h146c8 0 12 -3.66699 12 -11v-53c0 -7.33301 -4 -11 -12 -11h-77z" />
    <glyph glyph-name="backslash" unicode="\" horiz-adv-x="420" 
d="M311 9l-284.998 693c-4 8.66699 -1.33301 13 8 13h60c5.33301 0 9.66602 -3 12.999 -9l287 -693c1.33301 -3.33301 1.16602 -6.33301 -0.500977 -9s-4.5 -4 -8.5 -4h-61c-6.66699 0 -11 3 -13 9z" />
    <glyph glyph-name="bracketright" unicode="]" horiz-adv-x="285" 
d="M122 -42v795h-77c-8 0 -12 3.66699 -12 11v53c0 7.33301 4 11 12 11h146c8 0 12 -3.66699 12 -11v-923c0 -7.33301 -4 -11 -12 -11h-146c-8 0 -12 3.66699 -12 11v53c0 7.33301 4 11 12 11h77z" />
    <glyph glyph-name="asciicircum" unicode="^" 
d="M127 567h-76c-4.66699 0 -7.66699 1.33301 -9 4s-0.333008 6 3 10l203 234c4 4.66699 8.66699 7 14 7h55c5.33301 0 10 -2.33301 14 -7l203 -234c3.33301 -4 4.5 -7.33301 3.5 -10s-4.16699 -4 -9.5 -4h-75c-6.66699 0 -11.334 2 -14.001 6l-149 176l-150 -176
c-3.33301 -4 -7.66602 -6 -12.999 -6z" />
    <glyph glyph-name="underscore" unicode="_" horiz-adv-x="574" 
d="M538 -23v-54c0 -7.33301 -3.66699 -11 -11 -11h-480c-7.33301 0 -11 3.66699 -11 11v54c0 8 3.66699 12 11 12h480c7.33301 0 11 -4 11 -12z" />
    <glyph glyph-name="grave" unicode="`" horiz-adv-x="214" 
d="M151 597h-45c-6 0 -10.667 2.33301 -14 7l-96 133c-2.66699 4 -3.5 7.33301 -2.5 10s3.83301 4 8.5 4h63c6 0 10.667 -2.33301 14 -7l81 -133c2.66699 -4 3 -7.33301 1 -10s-5.33301 -4 -10 -4z" />
    <glyph glyph-name="a" unicode="a" horiz-adv-x="511" 
d="M61 476c50.667 34.667 113.667 52.001 189 52.001c62.667 0 111.5 -16.5 146.5 -49.5s52.5 -81.167 52.5 -144.5v-300c0 -6.66699 -3 -11 -9 -13c-58.667 -21.333 -123 -32 -193 -32c-62 0 -113.333 13.333 -154 40s-61 68 -61 124c0 51.333 19.333 90.666 58 117.999
s91 41 157 41c34.667 0 74.667 -4 120 -12v32c0 41.333 -9.33301 72 -28 92s-49.334 30 -92.001 30c-53.333 0 -100.666 -12.333 -141.999 -37c-6 -4 -11 -3 -15 3l-29 42c-3.33301 6 -3.33301 10.667 0 14zM114 153.001c0 -29.333 12.167 -51.833 36.5 -67.5
s56.5 -23.5 96.5 -23.5s80 6 120 18v150c-42.667 8 -82.667 12 -120 12c-88.667 0 -133 -29.667 -133 -89z" />
    <glyph glyph-name="b" unicode="b" horiz-adv-x="543" 
d="M150 497c40 20.667 82 31.001 126 31.001c64.667 0 117 -18.833 157 -56.5s60 -89.5 60 -155.5v-111c0 -72.667 -20.167 -126.834 -60.5 -162.501s-94.5 -53.5 -162.5 -53.5s-132.333 11.667 -193 35c-6 2.66699 -9 7 -9 13v667c0 7.33301 3.66699 11 11 11h59
c8 0 12 -3.66699 12 -11v-207zM268 62.001c94.667 0 142.001 47.667 142.001 143v111c0 92.667 -47 139 -141 139c-44.667 0 -84.334 -12 -119.001 -36v-338c32.667 -12.667 72 -19 118 -19z" />
    <glyph glyph-name="c" unicode="c" horiz-adv-x="470" 
d="M442 47c-52.667 -38.667 -111.667 -57.9971 -177 -57.9971s-117.333 17.833 -156 53.5s-58 82.167 -58 139.5v152c0 57.333 19.333 104 58 140s90.334 54 155.001 54c58 0 112.333 -16.667 163 -50c6.66699 -4.66699 7.66699 -10.334 3 -17.001l-26 -41
c-4.66699 -6 -10 -7 -16 -3c-38 24.667 -78.667 37 -122 37c-42 0 -74.667 -11 -98 -33s-35 -51 -35 -87v-152c0 -36.667 11.667 -65.834 35 -87.501s55.666 -32.5 96.999 -32.5c46 0 90.667 14.667 134 44c6 5.33301 11.333 4.66602 16 -2.00098l29 -41
c4.66699 -6.66699 4 -12 -2 -16z" />
    <glyph glyph-name="d" unicode="d" horiz-adv-x="543" 
d="M393 497v206.999c0 7.33301 4 11 12 11h59c7.33301 0 11 -3.66699 11 -11v-667c0 -6 -3 -10.333 -9 -13c-60.667 -23.333 -125 -35 -193 -35s-122.167 17.833 -162.5 53.5s-60.5 89.834 -60.5 162.501v111c0 66 20 117.833 60 155.5s92.333 56.5 157 56.5
c44 0 86 -10.333 126 -31zM133 204.999c0 -50.667 12.001 -87.333 36.001 -110s59.333 -34 106 -34c46 0 85.333 6.33301 118 19v339c-34.667 24 -74.334 36 -119.001 36c-94 0 -141 -46.333 -141 -139v-111z" />
    <glyph glyph-name="e" unicode="e" horiz-adv-x="518" 
d="M472 329v-98.001c0 -8 -3.66699 -12 -11 -12h-327v-42c0 -36.667 12 -65 36 -85s55.333 -30 94 -30c54.667 0 105.667 18.667 153 56c6.66699 4 12 3 16 -3l29 -38c4.66699 -5.33301 4 -10.666 -2 -15.999c-57.333 -48 -123.333 -72 -198 -72
c-58 0 -107.667 16.5 -149 49.5s-62 79.167 -62 138.5v152c0 64.667 20.5 114 61.5 148s91.167 51 150.5 51c58.667 0 108.167 -17 148.5 -51s60.5 -83.333 60.5 -148zM392 328.999c0 40.667 -11.833 71.667 -35.5 93s-54.834 32 -93.501 32
c-39.333 0 -70.666 -10.5 -93.999 -31.5s-35 -52.167 -35 -93.5v-42h258v42z" />
    <glyph glyph-name="f" unicode="f" horiz-adv-x="317" 
d="M298 651c-14.667 2 -31.332 3 -49.999 3c-31.333 0 -55.333 -9.5 -72 -28.5s-25 -45.833 -25 -80.5v-33h138c7.33301 0 11 -3.66699 11 -11v-50c0 -8 -3.66699 -12 -11 -12h-138v-428c0 -7.33301 -4 -11 -12 -11h-59c-7.33301 0 -11 3.66699 -11 11v533
c0 58 15.667 102.833 47 134.5s71.666 47.5 120.999 47.5c22 0 42 -1 60 -3c7.33301 -0.666992 11 -5 11 -13v-48c0 -7.33301 -3.33301 -11 -10 -11z" />
    <glyph glyph-name="g" unicode="g" horiz-adv-x="543" 
d="M475 14c0 -142.667 -70.335 -214.003 -211.002 -214.003c-73.333 0 -137.666 23 -192.999 69c-4.66699 4 -5 9.33301 -1 16l29 43c4.66699 6.66699 10 7.33398 16 2.00098c46.667 -37.333 96.334 -56 149.001 -56c45.333 0 78.5 11.833 99.5 35.5
s30.833 60.834 29.5 111.501v24c-40 -19.333 -82.667 -29 -128 -29c-63.333 0 -115 17.333 -155 52s-60 85.334 -60 152.001v100c0 71.333 20.5 123.833 61.5 157.5s95.167 50.5 162.5 50.5c69.333 0 133.333 -13 192 -39c6 -2 9 -6.33301 9 -13v-462zM132.998 219.997
c0 -86.667 46 -130 138 -130c52 0 92.667 10 122 30v317c-32.667 11.333 -72 17 -118 17c-94.667 0 -142 -44.667 -142 -134v-100z" />
    <glyph glyph-name="h" unicode="h" horiz-adv-x="558" 
d="M151 503c38.667 16.667 80.334 25 125.001 25c66 0 118.833 -17.833 158.5 -53.5s59.5 -90.5 59.5 -164.5v-299c0 -7.33301 -4 -11 -12 -11h-59c-7.33301 0 -11 3.66699 -11 11v296c0 52 -11.833 89.5 -35.5 112.5s-58.834 34.5 -105.501 34.5
c-45.333 0 -85.333 -8.66699 -120 -26v-417c0 -7.33301 -4 -11 -12 -11h-59c-7.33301 0 -11 3.66699 -11 11v693c0 7.33301 3.66699 11 11 11h59c8 0 12 -3.66699 12 -11v-201z" />
    <glyph glyph-name="i" unicode="i" horiz-adv-x="220" 
d="M140 0h-59c-8 0 -12 3.66699 -12 11v494c0 8 4 12 12 12h59c7.33301 0 11 -4 11 -12v-494c0 -7.33301 -3.66699 -11 -11 -11zM160 662c0 -14 -4.66699 -25.667 -14 -35s-21 -14 -35 -14s-25.833 4.66699 -35.5 14s-14.5 21 -14.5 35s4.83301 25.667 14.5 35
s21.5 14 35.5 14s25.667 -4.5 35 -13.5s14 -20.833 14 -35.5z" />
    <glyph glyph-name="j" unicode="j" horiz-adv-x="228" 
d="M159 -17c0 -60 -13.001 -105.667 -39.001 -137s-63 -47 -111 -47c-17.333 0 -33.666 1 -48.999 3c-7.33301 0.666992 -11 5 -11 13v50c0 8 4 12 12 12c14 -2 27 -3 39 -3c26 0 45.333 8.33301 58 25s19 44.667 19 84v522c0 8 4 12 12 12h59c7.33301 0 11 -4 11 -12v-522z
M167.999 662c0 -14 -4.66699 -25.667 -14 -35s-21 -14 -35 -14s-25.833 4.66699 -35.5 14s-14.5 21 -14.5 35s4.83301 25.667 14.5 35s21.5 14 35.5 14s25.667 -4.5 35 -13.5s14 -20.833 14 -35.5z" />
    <glyph glyph-name="k" unicode="k" horiz-adv-x="495" 
d="M481 0h-74c-6 -0 -11 2.33301 -15 7l-190 231l-51 -49v-178c0 -7.33301 -4 -11 -12 -11h-59c-7.33301 0 -11 3.66699 -11 11v693c0 7.33301 3.66699 11 11 11h59c8 0 12 -3.66699 12 -11v-414l226 221c3.33301 4 8 6 14 6h73c4.66699 0 7.5 -1.5 8.5 -4.5
s-0.166992 -6.16699 -3.5 -9.5l-212 -209l230 -280c6.66699 -9.33301 4.66699 -14 -6 -14z" />
    <glyph glyph-name="l" unicode="l" horiz-adv-x="290" 
d="M273 -8c-16.667 -2 -35.333 -3.00098 -56 -3.00098c-48 0 -85.167 15.833 -111.5 47.5s-39.5 77.167 -39.5 136.5v531c0 7.33301 4 11 12 11h59c7.33301 0 11 -3.66699 11 -11v-532c0 -38 6.5 -65.5 19.5 -82.5s32.5 -25.5 58.5 -25.5c14 0 29 1 45 3
c8 0 12 -3.66699 12 -11v-51c0 -7.33301 -3.33301 -11.666 -10 -12.999z" />
    <glyph glyph-name="m" unicode="m" horiz-adv-x="817" 
d="M392 479c49.333 32.667 100.667 49 154 49c62.667 0 112.834 -17.833 150.501 -53.5s56.5 -85.834 56.5 -150.501v-313c0 -7.33301 -3.66699 -11 -11 -11h-59c-8 0 -12 3.66699 -12 11v315c0 40.667 -10.667 72.167 -32 94.5s-53 33.5 -95 33.5
c-40.667 0 -77.334 -11.333 -110.001 -34c12.667 -27.333 19 -59 19 -95v-314c0 -7.33301 -3.66699 -11 -11 -11h-60c-7.33301 0 -11 3.66699 -11 11v315c0 85.333 -40 128 -120 128c-34 0 -67.667 -6 -101 -18v-425c0 -7.33301 -4 -11 -12 -11h-59
c-7.33301 0 -11 3.66699 -11 11v464c0 6.66699 3 11.334 9 14.001c57.333 26 114.666 39 171.999 39c58.667 0 106.334 -16.333 143.001 -49z" />
    <glyph glyph-name="n" unicode="n" horiz-adv-x="557" 
d="M138 0l-59.001 -0.00195312c-7.33301 0 -11 3.66699 -11 11v464c0 6.66699 2.66699 11.334 8 14.001c62 26 126 39 192 39c70 0 125 -17.667 165 -53s60 -89.666 60 -162.999v-301c0 -7.33301 -4 -11 -12 -11h-59c-7.33301 0 -11 3.66699 -11 11v299
c0 96 -47.667 144 -143 144c-41.333 0 -80.666 -6 -117.999 -18v-425c0 -7.33301 -4 -11 -12 -11z" />
    <glyph glyph-name="o" unicode="o" horiz-adv-x="540" 
d="M490 185c0 -59.333 -19.833 -106.833 -59.5 -142.5s-93.167 -53.5 -160.5 -53.5s-120.833 18 -160.5 54s-59.5 83.333 -59.5 142v144c0 59.333 20 107.333 60 144s93.333 55 160 55c67.333 0 120.833 -18.333 160.5 -55s59.5 -84.667 59.5 -144v-144zM133 185
c0 -38 11.833 -68 35.5 -90s57.5 -33 101.5 -33s78 11 102 33s36 52 36 90v144c0 38.667 -12 69.167 -36 91.5s-58 33.5 -102 33.5s-77.833 -11.167 -101.5 -33.5s-35.5 -52.833 -35.5 -91.5v-144z" />
    <glyph glyph-name="p" unicode="p" horiz-adv-x="543" 
d="M76 492c62 24 126.667 36 194 36c68.667 0 123 -17.833 163 -53.5s60 -90.167 60 -163.5v-110c0 -66 -20 -117.833 -60 -155.5s-93 -56.5 -159 -56.5c-46 0 -87.333 10.333 -124 31v-199c0 -7.33301 -4 -11 -12 -11h-59c-7.33301 0 -11 3.66699 -11 11v658
c0 6.66699 2.66699 11 8 13zM269 62c94 0 140.999 46.333 140.999 139v110c0 96.667 -47.333 145 -142 145c-46.667 0 -86 -6.66699 -118 -20v-338c34.667 -24 74.334 -36 119.001 -36z" />
    <glyph glyph-name="q" unicode="q" horiz-adv-x="543" 
d="M50 311c0 73.333 20 127.833 60 163.5s94.333 53.5 163 53.5c66.667 0 131 -12 193 -36c6 -2 9 -6.33301 9 -13v-658c0 -7.33301 -3.66699 -11 -11 -11h-59c-8 0 -12 3.66699 -12 11v199c-38 -20.667 -79.333 -31 -124 -31c-66 0 -119 18.833 -159 56.5
s-60 89.5 -60 155.5v110zM133 201c0 -92.667 46.999 -139 140.999 -139c44.667 0 84.334 12 119.001 36v339c-32.667 12.667 -72 19 -118 19c-94.667 0 -142 -48.333 -142 -145v-110z" />
    <glyph glyph-name="r" unicode="r" horiz-adv-x="377" 
d="M138 0h-59c-7.33301 0 -11 3.66699 -11 11v467c0 6.66699 2.66699 11 8 13c51.333 24.667 108.333 37 171 37c30 0 64.333 -2.66699 103 -8c6.66699 -0.666992 10 -5 10 -13v-49c0 -8.66699 -4 -12 -12 -10c-32.667 4.66699 -62.667 7 -90 7
c-39.333 0 -75.333 -6.66699 -108 -20v-424c0 -7.33301 -4 -11 -12 -11z" />
    <glyph glyph-name="s" unicode="s" horiz-adv-x="475" 
d="M441 146c0 -49.333 -18.665 -87.832 -55.998 -115.499s-86.333 -41.5 -147 -41.5c-74 0 -140 21.333 -198 64c-5.33301 3.33301 -6.33301 8.66602 -3 15.999l27 46c4 6.66699 9.33301 7.66699 16 3c50 -37.333 103.333 -56 160 -56c34.667 0 63 7 85 21s33 33.667 33 59
c0 17.333 -6.66699 31.833 -20 43.5s-26.833 19.5 -40.5 23.5s-32.834 8.33301 -57.501 13c-19.333 4 -35.5 7.66699 -48.5 11s-29.667 9.33301 -50 18s-36.833 18.167 -49.5 28.5s-23.667 24.333 -33 42s-14 37.5 -14 59.5c0 48 19.167 84.5 57.5 109.5
s84.833 37.5 139.5 37.5c60.667 0 118.667 -15.667 174 -47c7.33301 -3.33301 8.66602 -8.33301 3.99902 -15l-27 -45c-3.33301 -7.33301 -8.33301 -8.66602 -15 -3.99902c-46 24.667 -92.667 37 -140 37c-34.667 0 -62 -6.5 -82 -19.5s-30 -30.833 -30 -53.5
c0 -24.667 10.833 -42.667 32.5 -54s54.167 -21.333 97.5 -30c21.333 -4 38.333 -7.66699 51 -11s28.667 -9 48 -17s34.333 -16.833 45 -26.5s20.167 -22.834 28.5 -39.501s12.5 -35.667 12.5 -57z" />
    <glyph glyph-name="t" unicode="t" horiz-adv-x="321" 
d="M148 170c0 -33.333 8.33301 -59.166 25 -77.499s40.334 -27.5 71.001 -27.5c8 0 24 0.666992 48 2c8 0 12 -3.66699 12 -11v-53c0 -7.33301 -3.33301 -11.333 -10 -12c-24 -1.33301 -42 -2 -54 -2c-52.667 0 -94.834 14.667 -126.501 44s-47.5 73.666 -47.5 132.999v466
c0 8 4 12 12 12h52c6 0 9.66699 -3.66699 11 -11l7 -121h130c7.33301 0 11 -3.66699 11 -11v-50c0 -8 -3.66699 -12 -11 -12h-130v-269z" />
    <glyph glyph-name="u" unicode="u" horiz-adv-x="551" 
d="M413 517l59 0.000976562c7.33301 0 11 -4 11 -12v-463c0 -7.33301 -2.66699 -12 -8 -14c-58 -26 -121 -39 -189 -39c-68.667 0 -122.667 17.667 -162 53s-59 89.666 -59 162.999v300c0 8 4 12 12 12h59c7.33301 0 11 -4 11 -12v-298c0 -96.667 46.333 -145 139 -145
c40.667 0 79 6.33301 115 19v424c0 8 4 12 12 12z" />
    <glyph glyph-name="v" unicode="v" horiz-adv-x="500" 
d="M285 0h-73.001c-5.33301 0 -9.66602 3 -12.999 9l-183 494c-3.33301 9.33301 -0.333008 14 9 14h64c6 0 10.333 -3 13 -9l99 -285l20.5 -59.5c11.667 -33.667 20.834 -59.167 27.501 -76.5h1c13.333 40.667 29 86 47 136l100 285c1.33301 6 5.66602 9 12.999 9h64
c8 0 11 -4.66699 9 -14l-184 -494c-3.33301 -6 -8 -9 -14 -9z" />
    <glyph glyph-name="w" unicode="w" horiz-adv-x="756" 
d="M179 0c-7.33301 0 -11.333 3.33398 -12 10.001l-149 493c-2.66699 9.33301 0.333008 14 9 14h62c6.66699 0 11 -3.33301 13 -10l66 -237l45 -177h2c18.667 77.333 32.667 131.333 42 162l76 243c2 6.66699 6 10 12 10h66c6 0 10 -3.33301 12 -10l76 -243
c12.667 -40.667 27 -94.667 43 -162h1c2 7.33301 9 34.666 21 81.999l24 95l67 237c0.666992 6.66699 4.66699 10 12 10h62c9.33301 0 12.333 -4.66699 9 -14l-148 -493c-2 -6.66699 -6.33301 -10 -13 -10h-70c-7.33301 -0 -11.333 3.33301 -12 10l-84 272
c-10.667 36 -21 77.667 -31 125h-3l-32 -125l-84 -272c-0.666992 -6.66699 -4.66699 -10 -12 -10h-70z" />
    <glyph glyph-name="x" unicode="x" horiz-adv-x="487" 
d="M294 261l174.001 -247c6 -9.33301 3.66699 -14 -7 -14h-74c-6 -0 -10.333 2.33301 -13 7l-130 197l-130 -197c-2.66699 -4.66699 -7.33398 -7 -14.001 -7h-74c-10.667 0 -13 4.66699 -7 14l174 247l-163 242c-2.66699 3.33301 -3.33398 6.5 -2.00098 9.5
s4.33301 4.5 9 4.5h70c5.33301 0 10 -2.66699 14 -8l123 -190l123 190c4 5.33301 8.33301 8 13 8h70c4.66699 0 7.83398 -1.5 9.50098 -4.5s1.16699 -6.16699 -1.5 -9.5z" />
    <glyph glyph-name="y" unicode="y" horiz-adv-x="551" 
d="M400 119l-0.00195312 386c0 8 3.66699 12 11 12h59c8 0 12 -4 12 -12v-491c0 -142 -70.333 -213.333 -211 -214c-74 0 -138.333 23 -193 69c-4.66699 4.66699 -5 10.334 -1 17.001l30 41c4.66699 7.33301 10 8.33301 16 3c48 -36.667 97.333 -55.334 148 -56.001
c44 0.666992 76.833 12.5 98.5 35.5s31.834 59.5 30.501 109.5v23c-41.333 -17.333 -82.666 -26 -123.999 -26c-58.667 0 -108.667 17.167 -150 51.5s-62 83.5 -62 147.5v290c0 8 3.66699 12 11 12h59c8 0 12 -4 12 -12v-286c0 -43.333 12.833 -75.333 38.5 -96
s59.5 -31 101.5 -31c44 0 82 9 114 27z" />
    <glyph glyph-name="z" unicode="z" horiz-adv-x="467" 
d="M422 0l-380 0.000976562c-7.33301 0 -11 3.66699 -11 11v30c0 6 1.66699 10.667 5 14l278 388h-257c-7.33301 0 -11 4 -11 12v50c0 8 3.66699 12 11 12h359c8 0 12 -4 12 -12v-27c0 -4.66699 -1.66699 -9.33398 -5 -14.001l-280 -391h279c7.33301 0 11 -3.66699 11 -11
v-51c0 -7.33301 -3.66699 -11 -11 -11z" />
    <glyph glyph-name="braceleft" unicode="{" horiz-adv-x="297" 
d="M252 -117h-26.999c-40.667 0 -70.334 10 -89.001 30s-28 52.667 -28 98v199c0 64.667 -20 100.334 -60 107.001c-7.33301 1.33301 -11 5.33301 -11 12v54c0 6.66699 3.66699 10.667 11 12c40 6.66699 60 42.334 60 107.001v199c0 45.333 9.33301 78 28 98s48 30 88 30h28
c8 0 12 -3.66699 12 -11v-53c0 -7.33301 -4 -11 -12 -11h-22c-30.667 -0.666992 -46 -20 -46 -58v-208c0 -33.333 -6.83301 -62 -20.5 -86s-31.167 -39.333 -52.5 -46c21.333 -6.66699 38.833 -22 52.5 -46s20.5 -52.667 20.5 -86v-208
c0 -20.667 3.83301 -35.334 11.5 -44.001s19.5 -13.334 35.5 -14.001h21c8 0 12 -3.66699 12 -11v-53c0 -7.33301 -4 -11 -12 -11z" />
    <glyph glyph-name="bar" unicode="|" horiz-adv-x="241" 
d="M148 -139h-54c-8 0 -12 3.66699 -12 11v978c0 7.33301 4 11 12 11h54c7.33301 0 11 -3.66699 11 -11v-978c0 -7.33301 -3.66699 -11 -11 -11z" />
    <glyph glyph-name="braceright" unicode="}" horiz-adv-x="297" 
d="M72 -117h-26.999c-8 0 -12 3.66699 -12 11v53c0 7.33301 4 11 12 11h21c16 0.666992 27.833 5.33398 35.5 14.001s11.5 23.334 11.5 44.001v208c0 33.333 6.83301 62 20.5 86s31.167 39.333 52.5 46c-21.333 6.66699 -38.833 22 -52.5 46s-20.5 52.667 -20.5 86v208
c0 38 -15.333 57.333 -46 58h-22c-8 0 -12 3.66699 -12 11v53c0 7.33301 4 11 12 11h28c40 0 69.333 -10 88 -30s28 -52.667 28 -98v-199c0 -64.667 20 -100.334 60 -107.001c7.33301 -1.33301 11 -5.33301 11 -12v-54c0 -6.66699 -3.66699 -10.667 -11 -12
c-40 -6.66699 -60 -42.334 -60 -107.001v-199c0 -45.333 -9.33301 -78 -28 -98s-48.334 -30 -89.001 -30z" />
    <glyph glyph-name="asciitilde" unicode="~" 
d="M505 333c-30.667 -37.333 -70.666 -56 -119.999 -56c-18.667 0 -52.334 8.33301 -101.001 25c-36 14 -63 21 -81 21c-30.667 0 -55.334 -8.66699 -74.001 -26c-5.33301 -5.33301 -10.666 -6 -15.999 -2l-36 31c-6 5.33301 -6.66699 10.333 -2 15
c28 36.667 67.333 55 118 55c22.667 0 56.334 -8.33301 101.001 -25c35.333 -14 62.333 -21 81 -21c31.333 0 56.333 9 75 27c5.33301 4.66699 10.666 4.66699 15.999 0l36 -29c5.33301 -5.33301 6.33301 -10.333 3 -15z" />
    <glyph glyph-name="exclamdown" unicode="&#xa1;" horiz-adv-x="238" 
d="M92 345h53c8 0 12 -3.66699 12 -11l6 -342v-175c0 -7.33301 -4 -11 -12 -11h-65c-7.33301 0 -11 3.66699 -11 11v175l6 342c0 7.33301 3.66699 11 11 11zM61 471c0 16.667 5.5 30.5 16.5 41.5s24.833 16.5 41.5 16.5s30.334 -5.5 41.001 -16.5s16 -24.833 16 -41.5
s-5.33301 -30.5 -16 -41.5s-24.334 -16.5 -41.001 -16.5s-30.5 5.5 -41.5 16.5s-16.5 24.833 -16.5 41.5z" />
    <glyph glyph-name="cent" unicode="&#xa2;" horiz-adv-x="499" 
d="M424 104l29.001 -41c4 -6.66699 3 -12 -3 -16c-46.667 -34.667 -99.334 -54 -158.001 -58v-71c0 -7.33301 -3.66699 -11 -11 -11h-36c-7.33301 0 -11 3.66699 -11 11v73c-54 6.66699 -96.5 27.334 -127.5 62.001s-46.5 77.667 -46.5 129v152
c0 51.333 15.5 94.333 46.5 129s73.5 55.334 127.5 62.001v74c0 7.33301 3.66699 11 11 11h36c7.33301 0 11 -3.66699 11 -11v-72c50.667 -2.66699 98.667 -19 144 -49c6.66699 -4.66699 7.66699 -10.334 3 -17.001l-26 -41c-4 -6 -9.33301 -7 -16 -3
c-38 24.667 -78.667 37 -122 37c-42 0 -74.667 -11 -98 -33s-35 -51 -35 -87v-152c0 -36.667 11.667 -65.834 35 -87.501s55.666 -32.5 96.999 -32.5c46.667 0 91.334 15 134.001 45c6.66699 4.66699 12 3.66699 16 -3z" />
    <glyph glyph-name="sterling" unicode="&#xa3;" horiz-adv-x="549" 
d="M492 0h-432.001c-7.33301 0 -11 3.66699 -11 11v48c0 7.33301 3.66699 11 11 11c42 5.33301 63 40.333 63 105v166h-63c-7.33301 0 -11 3.66699 -11 11v47c0 8 3.66699 12 11 12h63v125c0 56 17.833 101.667 53.5 137s82.834 53 141.501 53
c70.667 0 128.667 -19.333 174 -58c5.33301 -4.66699 6 -10 2 -16l-27 -38c-4 -7.33301 -9.33301 -8.33301 -16 -3c-38.667 29.333 -83 44 -133 44c-38.667 0 -68.667 -10.833 -90 -32.5s-32 -50.5 -32 -86.5v-125h196c8 0 12 -4 12 -12v-47c0 -7.33301 -4 -11 -12 -11h-196
v-166c0 -52 -13.333 -87 -40 -105h336c8 0 12 -4 12 -12v-47c0 -7.33301 -4 -11 -12 -11z" />
    <glyph glyph-name="currency" unicode="&#xa4;" horiz-adv-x="638" 
d="M465 149c-40.667 -29.333 -89.332 -44.001 -145.999 -44.001s-105.334 14.667 -146.001 44l-51 -50c-4.66699 -6 -10 -6 -16 0l-33 33c-6 4.66699 -6 10 0 16l50 51c-29.333 40.667 -44 89.667 -44 147c0 56 14.667 104.333 44 145l-50 50c-6 6 -6 11.667 0 17l33 33
c6 6 11.333 6 16 0l51 -51c41.333 30.667 90 46 146 46s104.667 -15.333 146 -46l50 51c6 4.66699 11.667 4.66699 17 0l33 -33c6 -5.33301 6 -11 0 -17l-50 -50c29.333 -40.667 44 -89 44 -145s-14.667 -105 -44 -147l50 -51c5.33301 -5.33301 5.33301 -10.666 0 -15.999
l-33 -33c-6 -6 -11.667 -6 -17 0zM149.002 345.999c0 -51.333 15.833 -92.833 47.5 -124.5s72.5 -47.5 122.5 -47.5s91 16.167 123 48.5s47.667 73.5 47 123.5c-0.666992 49.333 -17 90 -49 122s-72.333 48 -121 48c-50 0 -90.833 -16 -122.5 -48s-47.5 -72.667 -47.5 -122z
" />
    <glyph glyph-name="yen" unicode="&#xa5;" horiz-adv-x="587" 
d="M482 715h68c4.66699 0 7.83398 -1.33301 9.50098 -4s1.16699 -6 -1.5 -10l-198 -379h101c8 0 12 -4 12 -12v-40c0 -7.33301 -4 -11 -12 -11h-127v-67h127c8 0 12 -3.66699 12 -11v-40c0 -7.33301 -4 -11 -12 -11h-127v-119c0 -7.33301 -3.66699 -11 -11 -11h-60
c-8 0 -12 3.66699 -12 11v119h-127c-8 0 -12 3.66699 -12 11v40c0 7.33301 4 11 12 11h127v67h-127c-8 0 -12 3.66699 -12 11v40c0 8 4 12 12 12h102l-200 379c-4.66699 9.33301 -1.66699 14 9 14h69c5.33301 0 9.66602 -2.66699 12.999 -8l176 -357l175 357
c2 5.33301 6.66699 8 14 8z" />
    <glyph glyph-name="brokenbar" unicode="&#xa6;" horiz-adv-x="243" 
d="M149 425h-54c-8 0 -12 3.66699 -12 11v414c0 7.33301 4 11 12 11h54c7.33301 0 11 -3.66699 11 -11v-414c0 -7.33301 -3.66699 -11 -11 -11zM149 -139h-54c-8 0 -12 3.66699 -12 11v414c0 7.33301 4 11 12 11h54c7.33301 0 11 -3.66699 11 -11v-414
c0 -7.33301 -3.66699 -11 -11 -11z" />
    <glyph glyph-name="section" unicode="&#xa7;" horiz-adv-x="509" 
d="M445 -7c0 -55.333 -18.1689 -98.834 -54.502 -130.501s-81.5 -47.5 -135.5 -47.5c-37.333 0 -73.166 7.83301 -107.499 23.5s-63.5 36.834 -87.5 63.501c-4 6.66699 -4 12 0 16l32 41c4.66699 6.66699 9.66699 7 15 1c44.667 -46 93.667 -69 147 -69
c35.333 0 62.833 9.16699 82.5 27.5s29.5 41.5 29.5 69.5c0 16.667 -3.33301 31.167 -10 43.5s-17.834 23.333 -33.501 33s-29.5 17 -41.5 22s-29.667 11.833 -53 20.5c-22.667 8 -40 14.5 -52 19.5s-27.5 12.833 -46.5 23.5s-33.167 21.5 -42.5 32.5
s-17.833 25.333 -25.5 43s-11.5 37.5 -11.5 59.5c0 69.333 36.667 116.666 110 141.999c-55.333 36.667 -83 83.667 -83 141c0 52 18.5 91.333 55.5 118s81.167 40 132.5 40c52.667 0 103.334 -16 152.001 -48c7.33301 -4 8.33301 -9 3 -15l-27 -40
c-3.33301 -6 -8.66602 -7 -15.999 -3c-37.333 22 -74.666 33 -111.999 33c-34 0 -60.5 -7.5 -79.5 -22.5s-28.5 -35.833 -28.5 -62.5c0 -12.667 2.66699 -24.5 8 -35.5s11.333 -20 18 -27s17 -14.5 31 -22.5s25.667 -13.833 35 -17.5l41 -16.5
c28 -11.333 49.333 -20.5 64 -27.5s32.167 -17.833 52.5 -32.5s35.166 -32.167 44.499 -52.5s14 -44.166 14 -71.499c0 -70 -30.667 -116.667 -92 -140c48 -30.667 72 -74.667 72 -132zM129.998 289.999c0 -32 13.668 -56.665 41.001 -73.998s72.666 -35.333 135.999 -54
c24 5.33301 43.333 16.666 58 33.999s22 38.666 22 63.999c0 29.333 -11 52 -33 68s-63 36 -123 60c-32 -6 -56.833 -17.5 -74.5 -34.5s-26.5 -38.167 -26.5 -63.5z" />
    <glyph glyph-name="dieresis" unicode="&#xa8;" horiz-adv-x="274" 
d="M97 662c0 -14.667 -4.33301 -26.167 -13 -34.5s-20 -12.5 -34 -12.5s-25.333 4.33301 -34 13s-13 20 -13 34c0 14.667 4.33301 26.334 13 35.001s20 13 34 13s25.333 -4.33301 34 -13s13 -20.334 13 -35.001zM289 662c0 -14 -4.33301 -25.333 -13 -34s-20 -13 -34 -13
s-25.5 4.33301 -34.5 13s-13.5 20 -13.5 34c0 14.667 4.5 26.334 13.5 35.001s20.5 13 34.5 13s25.333 -4.33301 34 -13s13 -20.334 13 -35.001z" />
    <glyph glyph-name="copyright" unicode="&#xa9;" horiz-adv-x="831" 
d="M778 356c0 -112.667 -34.333 -202 -103 -268s-154.667 -99 -258 -99c-104 0 -190.667 33 -260 99s-104 155.333 -104 268c0 113.333 34.667 203.333 104 270s156 100 260 100c103.333 0 189.333 -33.333 258 -100s103 -156.667 103 -270zM94 356
c0 -103.333 30.5 -183.833 91.5 -241.5s138.167 -86.5 231.5 -86.5c92 0 168.333 28.833 229 86.5s91 138.167 91 241.5c0 105.333 -30.167 186.833 -90.5 244.5s-136.833 86.5 -229.5 86.5s-169.667 -29 -231 -87s-92 -139.333 -92 -244zM550 208
c-33.333 -34.667 -78.001 -52.002 -134.001 -52.002c-41.333 0.666992 -76.333 13.167 -105 37.5s-43 57.5 -43 99.5v129c0 42 14 75.167 42 99.5s62.667 36.5 104 36.5c51.333 0 95 -18 131 -54c4 -5.33301 4 -10.666 0 -15.999l-22 -28
c-4.66699 -5.33301 -10 -5.66602 -16 -0.999023c-26 27.333 -56.333 41 -91 41c-24.667 -0.666992 -45.334 -8 -62.001 -22s-25 -32.333 -25 -55v-131c0 -23.333 8.33301 -42 25 -56s37.334 -21 62.001 -21c38.667 0 72.334 12 101.001 36c6 6 11 5.66699 15 -1l18 -27
c4 -6 4 -11 0 -15z" />
    <glyph glyph-name="guillemotleft" unicode="&#xab;" horiz-adv-x="515" 
d="M256 71l-64 0.000976562c-6.66699 0 -11.334 2.33301 -14.001 7l-138 205c-2.66699 5.33301 -2.66699 10.666 0 15.999l138 205c2.66699 4.66699 7.33398 7 14.001 7h64c10.667 0 13 -4.66699 7 -14l-140 -206l140 -206c6 -9.33301 3.66699 -14 -7 -14zM462 71.001
l-64 0.000976562c-6.66699 0 -11.334 2.33301 -14.001 7l-138 205c-2.66699 5.33301 -2.66699 10.666 0 15.999l138 205c2.66699 4.66699 7.33398 7 14.001 7h64c10.667 0 13 -4.66699 7 -14l-140 -206l140 -206c6 -9.33301 3.66699 -14 -7 -14z" />
    <glyph glyph-name="logicalnot" unicode="&#xac;" 
d="M494 184h-54c-7.33301 0 -11 3.66699 -11 11v139h-354c-7.33301 0 -11 3.66699 -11 11v54c0 8 3.66699 12 11 12h419c7.33301 0 11 -4 11 -12v-204c0 -7.33301 -3.66699 -11 -11 -11z" />
    <glyph glyph-name="registered" unicode="&#xae;" horiz-adv-x="518" 
d="M467 518c0 -64 -19.833 -114.667 -59.5 -152s-89.167 -56 -148.5 -56s-108.833 18.667 -148.5 56s-59.5 88 -59.5 152c0 63.333 19.833 113.833 59.5 151.5s89.167 56.5 148.5 56.5s108.833 -18.833 148.5 -56.5s59.5 -88.167 59.5 -151.5zM85 518
c0 -54.667 16.5 -97.334 49.5 -128.001s74.833 -46 125.5 -46c49.333 0 90.5 15.333 123.5 46s49.5 73.334 49.5 128.001c0 55.333 -16.333 98.333 -49 129s-74 46 -124 46c-50.667 0 -92.5 -15.333 -125.5 -46s-49.5 -73.667 -49.5 -129zM211 420h-9
c-7.33301 0 -11 4 -11 12v178c0 8 3.66699 12 11 12h67c22 0 39.667 -5.33301 53 -16s20 -26.334 20 -47.001c0 -35.333 -17.667 -55.666 -53 -60.999l50 -64c2.66699 -4 3.5 -7.33301 2.5 -10s-3.83301 -4 -8.5 -4h-13c-6 0 -10.667 2.66699 -14 8l-51 68h-33v-64
c0 -8 -3.66699 -12 -11 -12zM222 592v-66h47c27.333 0 41 11 41 33s-13.667 33 -41 33h-47z" />
    <glyph glyph-name="macron" unicode="&#xaf;" horiz-adv-x="286" 
d="M0 631v43c0 8 3.66699 12 11 12h252c7.33301 0 11 -4 11 -12v-43c0 -7.33301 -3.66699 -11 -11 -11h-252c-7.33301 0 -11 3.66699 -11 11z" />
    <glyph glyph-name="degree" unicode="&#xb0;" horiz-adv-x="362" 
d="M318 590c0 -40.667 -12.833 -73.5 -38.5 -98.5s-58.167 -37.5 -97.5 -37.5c-40 0 -72.833 12.167 -98.5 36.5s-38.5 57.5 -38.5 99.5s12.667 75.167 38 99.5s58.333 36.5 99 36.5c39.333 0 71.833 -12.167 97.5 -36.5s38.5 -57.5 38.5 -99.5zM102 590
c0 -26.667 7.5 -47.167 22.5 -61.5s34.167 -21.5 57.5 -21.5s42.333 7.16699 57 21.5s22 34.833 22 61.5c0 26 -7.33301 46.333 -22 61s-33.667 22 -57 22s-42.5 -7.33301 -57.5 -22s-22.5 -35 -22.5 -61z" />
    <glyph glyph-name="plusminus" unicode="&#xb1;" 
d="M317 191h-55c-8 0 -12 3.66699 -12 11v159h-170c-7.33301 0 -11 3.66699 -11 11v54c0 8 3.66699 12 11 12h170v158c0 8 4 12 12 12h55c8 0 12 -4 12 -12v-158h170c7.33301 0 11 -4 11 -12v-54c0 -7.33301 -3.66699 -11 -11 -11h-170v-159c0 -7.33301 -4 -11 -12 -11z
M499 49h-419c-7.33301 0 -11 3.66699 -11 11v55c0 7.33301 3.66699 11 11 11h419c7.33301 0 11 -3.66699 11 -11v-55c0 -7.33301 -3.66699 -11 -11 -11z" />
    <glyph glyph-name="two.sups" unicode="&#xb2;" horiz-adv-x="319" 
d="M276 410l-237.999 -0.00195312c-7.33301 0 -11 3.66699 -11 11v30c0 6 1.66699 10.667 5 14l106 103c20 20.667 34.667 36.5 44 47.5s18.166 24 26.499 39s12.5 29.167 12.5 42.5c0 33.333 -20.667 50 -62 50c-32 0 -60.333 -13 -85 -39c-6 -6 -11.667 -5.66699 -17 1
l-18 25c-4 6 -4 11.333 0 16c35.333 35.333 76.333 53 123 53c36.667 0 65.5 -9.66699 86.5 -29s31.5 -44.666 31.5 -75.999c0 -28 -8.16699 -54.667 -24.5 -80s-43.833 -56.666 -82.5 -93.999c-4 -4 -13.5 -13 -28.5 -27l-31.5 -30h163c8 0 12 -3.66699 12 -11v-35
c0 -7.33301 -4 -11 -12 -11z" />
    <glyph glyph-name="three.sups" unicode="&#xb3;" horiz-adv-x="321" 
d="M289 532c0 -37.333 -12.498 -68.001 -37.498 -92.001s-56.167 -35.667 -93.5 -35c-50.667 0.666992 -95 19.334 -133 56.001c-4.66699 5.33301 -4.66699 10.333 0 15l19 24c5.33301 5.33301 10.666 5.66602 15.999 0.999023c25.333 -26.667 57.666 -40 96.999 -40
c22 0 40 6.83301 54 20.5s21 32.5 21 56.5c0 20 -6.83301 36.333 -20.5 49s-32.5 19 -56.5 19c-12.667 0 -24 -1 -34 -3c-7.33301 -1.33301 -12 1.33398 -14 8.00098l-6 13c-2 6 -1 11.333 3 16l71 80l24 25h-146c-7.33301 0 -11 3.66699 -11 11v31
c0 7.33301 3.66699 11 11 11h216c7.33301 0 11 -3.66699 11 -11v-19c0 -4.66699 -2 -9 -6 -13l-100 -111h12c30.667 0 55.5 -10.667 74.5 -32s28.5 -48 28.5 -80z" />
    <glyph glyph-name="acute" unicode="&#xb4;" horiz-adv-x="239" 
d="M61 597h-45c-4.66699 0 -8 1.33301 -10 4s-1.66699 6 1 10l81 133c3.33301 4.66699 8 7 14 7h63c4.66699 0 7.5 -1.33301 8.5 -4s0.166992 -6 -2.5 -10l-96 -133c-3.33301 -4.66699 -8 -7 -14 -7z" />
    <glyph glyph-name="paragraph" unicode="&#xb6;" horiz-adv-x="642" 
d="M308 -139l-54 -0.000976562c-8 0 -12 3.66699 -12 11v406c-66.667 0 -119 21.333 -157 64s-57 94 -57 154c0 60.667 19.5 112.334 58.5 155.001s93.167 64 162.5 64h294c7.33301 0 11 -3.66699 11 -11v-832c0 -7.33301 -3.66699 -11 -11 -11h-54c-8 0 -12 3.66699 -12 11
v767h-158v-767c0 -7.33301 -3.66699 -11 -11 -11z" />
    <glyph glyph-name="periodcentered" unicode="&#xb7;" horiz-adv-x="236" 
d="M173 309c0 -16 -5.16699 -29.167 -15.5 -39.5s-23.5 -15.5 -39.5 -15.5c-16.667 0 -30 5.16699 -40 15.5s-15 23.5 -15 39.5c0 16.667 5 30.167 15 40.5s23.333 15.5 40 15.5c16 0 29.167 -5.16699 39.5 -15.5s15.5 -23.833 15.5 -40.5z" />
    <glyph glyph-name="cedilla" unicode="&#xb8;" horiz-adv-x="179" 
d="M193 -122c0 -26.667 -10.5 -47.168 -31.5 -61.501s-49.167 -21.5 -84.5 -21.5c-20.667 0 -40 3 -58 9c-6 2 -9 6.33301 -9 13v24c0 8 4.33301 11.333 13 10c14.667 -4.66699 29.667 -7 45 -7c40 0 60 13 60 39c0 24 -21 36.333 -63 37
c-6.66699 0 -11.334 2.66699 -14.001 8c-1.33301 2.66699 -1 6.33398 1 11.001l23 56c2 6 6.33301 9 13 9h27c4 0 6.83301 -1.33301 8.5 -4s1.83398 -5.66699 0.500977 -9l-17 -41c26 -1.33301 46.833 -8.5 62.5 -21.5s23.5 -29.833 23.5 -50.5z" />
    <glyph glyph-name="one.sups" unicode="&#xb9;" horiz-adv-x="211" 
d="M147 410h-36.001c-7.33301 0 -11 3.66699 -11 11v307l-50 -35c-5.33301 -4.66699 -10.333 -3.66699 -15 3l-17 24c-4 5.33301 -3 10.333 3 15l82 58c4.66699 3.33301 9.33398 5 14.001 5h30c7.33301 0 11 -3.66699 11 -11v-366c0 -7.33301 -3.66699 -11 -11 -11z" />
    <glyph glyph-name="guillemotright" unicode="&#xbb;" horiz-adv-x="515" 
d="M116 71l-64 -0.000976562c-10.667 0 -13 4.66699 -7 14l140 206l-140 206c-6 9.33301 -3.66699 14 7 14h64c6.66699 0 11.334 -2.33301 14.001 -7l138 -205c2.66699 -5.33301 2.66699 -10.666 0 -15.999l-138 -205c-2.66699 -4.66699 -7.33398 -7 -14.001 -7zM322 70.999
l-64 -0.000976562c-10.667 0 -13 4.66699 -7 14l140 206l-140 206c-6 9.33301 -3.66699 14 7 14h64c6.66699 0 11.334 -2.33301 14.001 -7l138 -205c2.66699 -5.33301 2.66699 -10.666 0 -15.999l-138 -205c-2.66699 -4.66699 -7.33398 -7 -14.001 -7z" />
    <glyph glyph-name="onequarter" unicode="&#xbc;" horiz-adv-x="812" 
d="M160 327h-36.001c-7.33301 0 -11 3.66699 -11 11v307l-50 -35c-5.33301 -4.66699 -10.333 -3.66699 -15 3l-17 23c-4 6 -3 11.333 3 16l82 58c4.66699 3.33301 9.33398 5 14.001 5h30c7.33301 0 11 -4 11 -12v-365c0 -7.33301 -3.66699 -11 -11 -11zM663.999 701
l-527.999 -694c-2.66699 -4.66699 -7.33398 -7 -14.001 -7h-41c-4.66699 0 -7.66699 1.5 -9 4.5s-1 6.16699 1 9.5l529 694c2.66699 4.66699 7.33398 7 14.001 7h41c4.66699 0 7.66699 -1.5 9 -4.5s0.666016 -6.16699 -2.00098 -9.5zM732 0l-35.999 -0.000976562
c-7.33301 0 -11 3.66699 -11 11v73h-174c-7.33301 0 -11 3.66699 -11 11v22c0 4.66699 1 9.33398 3 14.001l138 249c3.33301 5.33301 7.66602 8 12.999 8h37c10 0 12.667 -4.66699 8 -14l-129 -233h115v72c0 8 3.66699 12 11 12h36c7.33301 0 11 -4 11 -12v-72h29
c8 0 12 -4 12 -12v-34c0 -7.33301 -4 -11 -12 -11h-29v-73c0 -7.33301 -3.66699 -11 -11 -11z" />
    <glyph glyph-name="onehalf" unicode="&#xbd;" horiz-adv-x="841" 
d="M160 327h-36.001c-7.33301 0 -11 3.66699 -11 11v307l-50 -35c-5.33301 -4.66699 -10.333 -3.66699 -15 3l-17 23c-4 6 -3 11.333 3 16l82 58c4.66699 3.33301 9.33398 5 14.001 5h30c7.33301 0 11 -4 11 -12v-365c0 -7.33301 -3.66699 -11 -11 -11zM663.999 701
l-527.999 -694c-2.66699 -4.66699 -7.33398 -7 -14.001 -7h-41c-4.66699 0 -7.66699 1.5 -9 4.5s-1 6.16699 1 9.5l529 694c2.66699 4.66699 7.33398 7 14.001 7h41c4.66699 0 7.66699 -1.5 9 -4.5s0.666016 -6.16699 -2.00098 -9.5zM789 0l-237.999 -0.00195312
c-7.33301 0 -11 3.66699 -11 11v30c0 6 1.66699 10.667 5 14l106 103c20 20.667 34.667 36.5 44 47.5s18.166 24 26.499 39s12.5 29.167 12.5 42.5c0 33.333 -20.667 50 -62 50c-32 0 -60.333 -13 -85 -39c-6 -6 -11.667 -5.66699 -17 1l-18 25c-4 6 -4 11.333 0 16
c35.333 35.333 76.333 53 123 53c36.667 0 65.5 -9.66699 86.5 -29s31.5 -44.666 31.5 -75.999c0 -28 -8.16699 -54.667 -24.5 -80s-43.833 -56.666 -82.5 -93.999c-4 -4 -13.5 -13 -28.5 -27l-31.5 -30h163c8 0 12 -3.66699 12 -11v-35c0 -7.33301 -4 -11 -12 -11z" />
    <glyph glyph-name="threequarters" unicode="&#xbe;" horiz-adv-x="852" 
d="M301 449c0 -37.333 -12.498 -68.001 -37.498 -92.001s-56.167 -35.667 -93.5 -35c-50.667 0.666992 -95 19.334 -133 56.001c-4.66699 5.33301 -4.66699 10.333 0 15l19 24c5.33301 5.33301 10.666 5.66602 15.999 0.999023c25.333 -26.667 57.666 -40 96.999 -40
c22 0 40 7 54 21s21 32.667 21 56c0 20 -6.83301 36.333 -20.5 49s-32.5 19 -56.5 19c-12.667 0 -24 -1 -34 -3c-7.33301 -1.33301 -12 1.33398 -14 8.00098l-6 13c-2 6 -1 11.333 3 16l71 80l24 25h-146c-7.33301 0 -11 3.66699 -11 11v31c0 7.33301 3.66699 11 11 11h216
c7.33301 0 11 -3.66699 11 -11v-19c0 -4.66699 -2 -9 -6 -13l-100 -111h12c30.667 0 55.5 -10.667 74.5 -32s28.5 -48 28.5 -80zM731.002 700.999l-527.999 -694c-2.66699 -4.66699 -7.33398 -7 -14.001 -7h-41c-4.66699 0 -7.66699 1.5 -9 4.5s-1 6.16699 1 9.5l529 694
c2.66699 4.66699 7.33398 7 14.001 7h41c4.66699 0 7.66699 -1.5 9 -4.5s0.666016 -6.16699 -2.00098 -9.5zM770.003 -0.000976562l-35.999 -0.000976562c-7.33301 0 -11 3.66699 -11 11v73h-174c-7.33301 0 -11 3.66699 -11 11v22c0 4.66699 1 9.33398 3 14.001l138 249
c3.33301 5.33301 7.66602 8 12.999 8h37c10 0 12.667 -4.66699 8 -14l-129 -233h115v72c0 8 3.66699 12 11 12h36c7.33301 0 11 -4 11 -12v-72h29c8 0 12 -4 12 -12v-34c0 -7.33301 -4 -11 -12 -11h-29v-73c0 -7.33301 -3.66699 -11 -11 -11z" />
    <glyph glyph-name="questiondown" unicode="&#xbf;" horiz-adv-x="470" 
d="M228 349l59.001 0.00390625c7.33301 0 11 -3.66699 11 -11v-59c0 -26.667 -6.33301 -50.334 -19 -71.001s-28 -37.834 -46 -51.501l-53.5 -40.5c-17.667 -13.333 -32.834 -29.833 -45.501 -49.5s-19 -41.834 -19 -66.501c0 -36 11 -66.333 33 -91s55.667 -37 101 -37
c54.667 0 103.667 21.667 147 65c6.66699 6 12 5.66699 16 -1l31 -44c4 -5.33301 3.66699 -10.333 -1 -15c-21.333 -22 -49 -40.5 -83 -55.5s-71.333 -22.5 -112 -22.5c-61.333 0 -112 18 -152 54s-60 85 -60 147c0 27.333 4.5 51.666 13.5 72.999s20.167 38.333 33.5 51
s27.833 25.5 43.5 38.5l43.5 35.5c13.333 10.667 24.5 24.167 33.5 40.5s13.5 34.833 13.5 55.5v44c0 7.33301 4 11 12 11zM201.001 475.004c0 16 5.16699 29.167 15.5 39.5s23.833 15.5 40.5 15.5s30 -5.16699 40 -15.5s15 -23.5 15 -39.5c0 -16.667 -5 -30.167 -15 -40.5
s-23.333 -15.5 -40 -15.5s-30.167 5.16699 -40.5 15.5s-15.5 23.833 -15.5 40.5z" />
    <glyph glyph-name="Agrave" unicode="&#xc0;" horiz-adv-x="619" 
d="M85 0h-67c-8 -0 -11 4.33301 -9 13l249 693c2 6 6 9 12 9h79c6.66699 0 11 -3 13 -9l248 -693c3.33301 -8.66699 0.333008 -13 -9 -13h-67c-6.66699 0 -11 3 -13 9l-61 178h-300l-62 -178c-2 -6 -6.33301 -9 -13 -9zM308 620l-122 -354h248l-122 354h-4zM279 792
l-121 133c-3.33301 3.33301 -4.33301 6.5 -3 9.5s4.33301 4.5 9 4.5h70c6 0 10.333 -2.33301 13 -7l105 -133c6 -9.33301 3.66699 -14 -7 -14h-52c-5.33301 0 -10 2.33301 -14 7z" />
    <glyph glyph-name="Aacute" unicode="&#xc1;" horiz-adv-x="619" 
d="M85 0h-67c-8 -0 -11 4.33301 -9 13l249 693c2 6 6 9 12 9h79c6.66699 0 11 -3 13 -9l248 -693c3.33301 -8.66699 0.333008 -13 -9 -13h-67c-6.66699 0 -11 3 -13 9l-61 178h-300l-62 -178c-2 -6 -6.33301 -9 -13 -9zM308 620l-122 -354h248l-122 354h-4zM452 925
l-121 -133c-4 -4.66699 -8.66699 -7 -14 -7h-52c-10.667 0 -13 4.66699 -7 14l105 133c2.66699 4.66699 7 7 13 7h70c4.66699 0 7.66699 -1.5 9 -4.5s0.333008 -6.16699 -3 -9.5z" />
    <glyph glyph-name="Acircumflex" unicode="&#xc2;" horiz-adv-x="619" 
d="M85 0h-67c-8 -0 -11 4.33301 -9 13l249 693c2 6 6 9 12 9h79c6.66699 0 11 -3 13 -9l248 -693c3.33301 -8.66699 0.333008 -13 -9 -13h-67c-6.66699 0 -11 3 -13 9l-61 178h-300l-62 -178c-2 -6 -6.33301 -9 -13 -9zM308 620l-122 -354h248l-122 354h-4zM212 785h-59.001
c-4.66699 0 -7.66699 1.5 -9 4.5s-0.333008 6.16699 3 9.5l123 133c4 4.66699 8.66699 7 14 7h52c4.66699 0 9.33398 -2.33301 14.001 -7l123 -133c3.33301 -3.33301 4.33301 -6.5 3 -9.5s-4.33301 -4.5 -9 -4.5h-59c-5.33301 0 -10 2.33301 -14 7l-84 86l-84 -86
c-4 -4.66699 -8.66699 -7 -14 -7z" />
    <glyph glyph-name="Atilde" unicode="&#xc3;" horiz-adv-x="619" 
d="M85 0h-67c-8 -0 -11 4.33301 -9 13l249 693c2 6 6 9 12 9h79c6.66699 0 11 -3 13 -9l248 -693c3.33301 -8.66699 0.333008 -13 -9 -13h-67c-6.66699 0 -11 3 -13 9l-61 178h-300l-62 -178c-2 -6 -6.33301 -9 -13 -9zM308 620l-122 -354h248l-122 354h-4zM466 881
c-6.66699 -18.667 -17.5 -35.501 -32.5 -50.501s-32.5 -22.5 -52.5 -22.5c-18 0 -41.667 8 -71 24s-49.666 24 -60.999 24c-15.333 0 -29 -11.333 -41 -34c-2.66699 -6 -7.66699 -7.66699 -15 -5l-33 19c-6 3.33301 -8 8.33301 -6 15c7.33301 18.667 18.166 35 32.499 49
s31.5 21 51.5 21c19.333 0 43.666 -8.33301 72.999 -25c30.667 -15.333 51.334 -23 62.001 -23c8.66699 0 15.5 2.5 20.5 7.5s10.833 13.833 17.5 26.5c4 6.66699 9 8.33398 15 5.00098l34 -18c5.33301 -2.66699 7.33301 -7 6 -13z" />
    <glyph glyph-name="Adieresis" unicode="&#xc4;" horiz-adv-x="619" 
d="M85 0h-67c-8 -0 -11 4.33301 -9 13l249 693c2 6 6 9 12 9h79c6.66699 0 11 -3 13 -9l248 -693c3.33301 -8.66699 0.333008 -13 -9 -13h-67c-6.66699 0 -11 3 -13 9l-61 178h-300l-62 -178c-2 -6 -6.33301 -9 -13 -9zM308 620l-122 -354h248l-122 354h-4zM257 847
c0 -14.667 -4.66699 -26.5 -14 -35.5s-21 -13.5 -35 -13.5c-14.667 0 -26.5 4.5 -35.5 13.5s-13.5 20.833 -13.5 35.5s4.5 26.667 13.5 36s20.833 14 35.5 14c14 0 25.667 -4.66699 35 -14s14 -21.333 14 -36zM461 847c0 -14.667 -4.66699 -26.5 -14 -35.5
s-21.333 -13.5 -36 -13.5s-26.5 4.5 -35.5 13.5s-13.5 20.833 -13.5 35.5s4.5 26.667 13.5 36s20.833 14 35.5 14s26.667 -4.66699 36 -14s14 -21.333 14 -36z" />
    <glyph glyph-name="Aring" unicode="&#xc5;" horiz-adv-x="619" 
d="M85 0h-67c-8 -0 -11 4.33301 -9 13l249 693c2 6 6 9 12 9h79c6.66699 0 11 -3 13 -9l248 -693c3.33301 -8.66699 0.333008 -13 -9 -13h-67c-6.66699 0 -11 3 -13 9l-61 178h-300l-62 -178c-2 -6 -6.33301 -9 -13 -9zM308 620l-122 -354h248l-122 354h-4zM418 874
c0 -32 -10 -57.333 -30 -76s-45.667 -28 -77 -28c-32 0 -58.333 9.5 -79 28.5s-31 44.167 -31 75.5s10.167 56.666 30.5 75.999s46.833 29 79.5 29c31.333 0 57 -9.66699 77 -29s30 -44.666 30 -75.999zM252 874c0 -16.667 5.33301 -30 16 -40s25 -15 43 -15
c17.333 0 31 4.83301 41 14.5s15 23.167 15 40.5s-5 31 -15 41s-23.667 15 -41 15c-18 0 -32.333 -5 -43 -15s-16 -23.667 -16 -41z" />
    <glyph glyph-name="AE" unicode="&#xc6;" horiz-adv-x="865" 
d="M490 322v-244h313c7.33301 0 11 -3.66699 11 -11v-56c0 -7.33301 -3.66699 -11 -11 -11h-386c-8 0 -12 3.66699 -12 11v177h-220l-90 -180c-2 -5.33301 -6.33301 -8 -13 -8h-69c-10 0 -12.667 4.66699 -8 14l348 693c2 5.33301 6.33301 8 13 8h425
c8 0 12 -3.66699 12 -11v-56c0 -7.33301 -4 -11 -12 -11h-301v-237h280c7.33301 0 11 -3.66699 11 -11v-56c0 -7.33301 -3.66699 -11 -11 -11h-280zM405 637l-184 -370h184v370z" />
    <glyph glyph-name="Ccedilla" unicode="&#xc7;" horiz-adv-x="587" 
d="M421 -121c0 -27.333 -10.667 -48.499 -32 -63.499s-50 -22.5 -86 -22.5c-21.333 0 -41 3 -59 9c-6 2 -9 6.33301 -9 13v25c0 8.66699 4.33301 12 13 10c14.667 -4.66699 30 -7 46 -7c38.667 0 58.334 13 59.001 39c1.33301 24 -20 36.333 -64 37
c-6.66699 0 -11.334 2.66699 -14.001 8c-1.33301 3.33301 -1 7 1 11l21 52c-68.667 5.33301 -124.5 29.166 -167.5 71.499s-64.5 100.5 -64.5 174.5v242c0 79.333 24.5 140.5 73.5 183.5s111.5 64.5 187.5 64.5c79.333 0 150.333 -23.333 213 -70c5.33301 -4 6 -9 2 -15
l-32 -47c-4 -5.33301 -9.66699 -6 -17 -2c-49.333 36 -105 54 -167 54c-56 0 -99.167 -15 -129.5 -45s-45.5 -71 -45.5 -123v-241c0 -52 15.333 -93.167 46 -123.5s74 -45.5 130 -45.5c68.667 0 130 21 184 63c5.33301 5.33301 10.333 4.33301 15 -3l33 -46
c4 -7.33301 3 -13 -3 -17c-55.333 -46 -124 -71.333 -206 -76l-16 -40c26.667 -1.33301 48 -8.33301 64 -21s24 -29 24 -49z" />
    <glyph glyph-name="Egrave" unicode="&#xc8;" 
d="M175 324v-246h344c7.33301 0 11 -3.66699 11 -11v-56c0 -7.33301 -3.66699 -11 -11 -11h-418c-8 0 -12 3.66699 -12 11v693c0 7.33301 4 11 12 11h404c7.33301 0 11 -3.66699 11 -11v-56c0 -7.33301 -3.66699 -11 -11 -11h-330v-234h307c7.33301 0 11 -4 11 -12v-55
c0 -8 -3.66699 -12 -11 -12h-307zM293 792l-121 133c-3.33301 3.33301 -4.33301 6.5 -3 9.5s4.33301 4.5 9 4.5h70c6 0 10.333 -2.33301 13 -7l105 -133c6 -9.33301 3.66699 -14 -7 -14h-52c-5.33301 0 -10 2.33301 -14 7z" />
    <glyph glyph-name="Eacute" unicode="&#xc9;" 
d="M175 324v-246h344c7.33301 0 11 -3.66699 11 -11v-56c0 -7.33301 -3.66699 -11 -11 -11h-418c-8 0 -12 3.66699 -12 11v693c0 7.33301 4 11 12 11h404c7.33301 0 11 -3.66699 11 -11v-56c0 -7.33301 -3.66699 -11 -11 -11h-330v-234h307c7.33301 0 11 -4 11 -12v-55
c0 -8 -3.66699 -12 -11 -12h-307zM436 925l-121 -133c-4 -4.66699 -8.66699 -7 -14 -7h-52c-10.667 0 -13 4.66699 -7 14l105 133c2.66699 4.66699 7 7 13 7h70c4.66699 0 7.66699 -1.5 9 -4.5s0.333008 -6.16699 -3 -9.5z" />
    <glyph glyph-name="Ecircumflex" unicode="&#xca;" 
d="M175 324v-246h344c7.33301 0 11 -3.66699 11 -11v-56c0 -7.33301 -3.66699 -11 -11 -11h-418c-8 0 -12 3.66699 -12 11v693c0 7.33301 4 11 12 11h404c7.33301 0 11 -3.66699 11 -11v-56c0 -7.33301 -3.66699 -11 -11 -11h-330v-234h307c7.33301 0 11 -4 11 -12v-55
c0 -8 -3.66699 -12 -11 -12h-307zM215 785h-59.001c-4.66699 0 -7.66699 1.5 -9 4.5s-0.333008 6.16699 3 9.5l123 133c4 4.66699 8.66699 7 14 7h52c4.66699 0 9.33398 -2.33301 14.001 -7l123 -133c3.33301 -3.33301 4.33301 -6.5 3 -9.5s-4.33301 -4.5 -9 -4.5h-59
c-5.33301 0 -10 2.33301 -14 7l-84 86l-84 -86c-4 -4.66699 -8.66699 -7 -14 -7z" />
    <glyph glyph-name="Edieresis" unicode="&#xcb;" 
d="M175 324v-246h344c7.33301 0 11 -3.66699 11 -11v-56c0 -7.33301 -3.66699 -11 -11 -11h-418c-8 0 -12 3.66699 -12 11v693c0 7.33301 4 11 12 11h404c7.33301 0 11 -3.66699 11 -11v-56c0 -7.33301 -3.66699 -11 -11 -11h-330v-234h307c7.33301 0 11 -4 11 -12v-55
c0 -8 -3.66699 -12 -11 -12h-307zM254 847c0 -14.667 -4.66699 -26.5 -14 -35.5s-21 -13.5 -35 -13.5c-14.667 0 -26.5 4.5 -35.5 13.5s-13.5 20.833 -13.5 35.5s4.5 26.667 13.5 36s20.833 14 35.5 14c14 0 25.667 -4.66699 35 -14s14 -21.333 14 -36zM458 847
c0 -14.667 -4.66699 -26.5 -14 -35.5s-21.333 -13.5 -36 -13.5s-26.5 4.5 -35.5 13.5s-13.5 20.833 -13.5 35.5s4.5 26.667 13.5 36s20.833 14 35.5 14s26.667 -4.66699 36 -14s14 -21.333 14 -36z" />
    <glyph glyph-name="Igrave" unicode="&#xcc;" horiz-adv-x="263" 
d="M174 704v-693c0 -7.33301 -3.66699 -11 -11 -11h-62c-8 0 -12 3.66699 -12 11v693c0 7.33301 4 11 12 11h62c7.33301 0 11 -3.66699 11 -11zM103 792l-121 133c-3.33301 3.33301 -4.33301 6.5 -3 9.5s4.33301 4.5 9 4.5h70c6 0 10.333 -2.33301 13 -7l105 -133
c6 -9.33301 3.66699 -14 -7 -14h-52c-5.33301 0 -10 2.33301 -14 7z" />
    <glyph glyph-name="Iacute" unicode="&#xcd;" horiz-adv-x="263" 
d="M173 704v-693c0 -7.33301 -3.66699 -11 -11 -11h-62c-8 0 -12 3.66699 -12 11v693c0 7.33301 4 11 12 11h62c7.33301 0 11 -3.66699 11 -11zM273 925l-121 -133c-4 -4.66699 -8.66699 -7 -14 -7h-52c-10.667 0 -13 4.66699 -7 14l105 133c2.66699 4.66699 7 7 13 7h70
c4.66699 0 7.66699 -1.5 9 -4.5s0.333008 -6.16699 -3 -9.5z" />
    <glyph glyph-name="Icircumflex" unicode="&#xce;" horiz-adv-x="263" 
d="M54 785h-54.002c-4.66699 0 -7.66699 1.33301 -9 4s-0.666016 6 2.00098 10l99 132c3.33301 5.33301 8 8 14 8h47c6 0 10.667 -2.66699 14 -8l102 -132c2.66699 -4 3.33398 -7.33301 2.00098 -10s-4.33301 -4 -9 -4h-54c-5.33301 0 -10 2.33301 -14 7l-65 86l-62 -86
c-2.66699 -4.66699 -7 -7 -13 -7zM173.998 704v-693c0 -7.33301 -3.66699 -11 -11 -11h-62c-8 0 -12 3.66699 -12 11v693c0 7.33301 4 11 12 11h62c7.33301 0 11 -3.66699 11 -11z" />
    <glyph glyph-name="Idieresis" unicode="&#xcf;" horiz-adv-x="263" 
d="M162 0h-62c-7.33301 0 -11 3.66699 -11 11v693c0 7.33301 3.66699 11 11 11h62c8 0 12 -3.66699 12 -11v-693c0 -7.33301 -4 -11 -12 -11zM92 857c0 -14.667 -4.66699 -26.5 -14 -35.5s-21 -13.5 -35 -13.5s-25.667 4.5 -35 13.5s-14 20.833 -14 35.5
s4.66699 26.667 14 36s21 14 35 14s25.667 -4.66699 35 -14s14 -21.333 14 -36zM269 857c0 -14.667 -4.66699 -26.5 -14 -35.5s-21.333 -13.5 -36 -13.5s-26.5 4.5 -35.5 13.5s-13.5 20.833 -13.5 35.5s4.5 26.667 13.5 36s20.833 14 35.5 14s26.667 -4.66699 36 -14
s14 -21.333 14 -36z" />
    <glyph glyph-name="Eth" unicode="&#xd0;" horiz-adv-x="679" 
d="M110 715h244c81.333 0 145 -22.5 191 -67.5s69 -108.167 69 -189.5v-205c0 -80.667 -23 -143 -69 -187s-109.667 -66 -191 -66h-244c-8 0 -12 3.66699 -12 11v330h-76c-7.33301 0 -11 3.66699 -11 11v37c0 7.33301 3.66699 11 11 11h76v304c0 7.33301 4 11 12 11zM353 80
c56 0 98.833 14.5 128.5 43.5s44.5 72.167 44.5 129.5v205c0 58.667 -14.833 103.167 -44.5 133.5s-72.5 45.5 -128.5 45.5h-169v-237h167c7.33301 0 11 -3.66699 11 -11v-37c0 -7.33301 -3.66699 -11 -11 -11h-167v-261h169z" />
    <glyph glyph-name="Ntilde" unicode="&#xd1;" horiz-adv-x="704" 
d="M162 0l-60.999 0.00195312c-8 0 -12 3.66699 -12 11v693c0 7.33301 4 11 12 11h70c6 0 10.667 -2.66699 14 -8l265 -432c45.333 -76.667 73.333 -125.334 84 -146.001l3 1c-4 83.333 -6 173.666 -6 270.999v303c0 7.33301 3.66699 11 11 11h62
c7.33301 0 11 -3.66699 11 -11v-693c0 -7.33301 -3.66699 -11 -11 -11h-70c-6.66699 -0 -11.334 2.33301 -14.001 7l-263 417c-33.333 54 -62.333 104.667 -87 152l-2 -1c4 -105.333 6 -192.333 6 -261v-303c0 -7.33301 -4 -11 -12 -11zM509.001 881.002
c-6.66699 -18.667 -17.5 -35.501 -32.5 -50.501s-32.5 -22.5 -52.5 -22.5c-18 0 -41.667 8 -71 24s-49.666 24 -60.999 24c-15.333 0 -29 -11.333 -41 -34c-2.66699 -6 -7.66699 -7.66699 -15 -5l-33 19c-6 3.33301 -8 8.33301 -6 15c7.33301 18.667 18.166 35 32.499 49
s31.5 21 51.5 21c19.333 0 43.666 -8.33301 72.999 -25c30.667 -15.333 51.334 -23 62.001 -23c8.66699 0 15.5 2.5 20.5 7.5s10.833 13.833 17.5 26.5c4 6.66699 9 8.33398 15 5.00098l34 -18c5.33301 -2.66699 7.33301 -7 6 -13z" />
    <glyph glyph-name="Ograve" unicode="&#xd2;" horiz-adv-x="674" 
d="M610 251c0 -80.667 -24.333 -144.5 -73 -191.5s-115.334 -70.5 -200.001 -70.5s-151.334 23.5 -200.001 70.5s-73 110.833 -73 191.5v211c0 82 24.333 146.5 73 193.5s115.334 70.5 200.001 70.5s151.334 -23.5 200.001 -70.5s73 -111.5 73 -193.5v-211zM150 251
c0 -56.667 16.333 -101 49 -133s78.667 -48 138 -48s105.166 16 137.499 48s48.5 76.333 48.5 133v211c0 58.667 -16.167 104.167 -48.5 136.5s-78.166 48.5 -137.499 48.5s-105.333 -16.167 -138 -48.5s-49 -77.833 -49 -136.5v-211zM320 792l-121 133
c-3.33301 3.33301 -4.33301 6.5 -3 9.5s4.33301 4.5 9 4.5h70c6 0 10.333 -2.33301 13 -7l105 -133c6 -9.33301 3.66699 -14 -7 -14h-52c-5.33301 0 -10 2.33301 -14 7z" />
    <glyph glyph-name="Oacute" unicode="&#xd3;" horiz-adv-x="674" 
d="M610 251c0 -80.667 -24.333 -144.5 -73 -191.5s-115.334 -70.5 -200.001 -70.5s-151.334 23.5 -200.001 70.5s-73 110.833 -73 191.5v211c0 82 24.333 146.5 73 193.5s115.334 70.5 200.001 70.5s151.334 -23.5 200.001 -70.5s73 -111.5 73 -193.5v-211zM150 251
c0 -56.667 16.333 -101 49 -133s78.667 -48 138 -48s105.166 16 137.499 48s48.5 76.333 48.5 133v211c0 58.667 -16.167 104.167 -48.5 136.5s-78.166 48.5 -137.499 48.5s-105.333 -16.167 -138 -48.5s-49 -77.833 -49 -136.5v-211zM466 925l-121 -133
c-4 -4.66699 -8.66699 -7 -14 -7h-52c-10.667 0 -13 4.66699 -7 14l105 133c2.66699 4.66699 7 7 13 7h70c4.66699 0 7.66699 -1.5 9 -4.5s0.333008 -6.16699 -3 -9.5z" />
    <glyph glyph-name="Ocircumflex" unicode="&#xd4;" horiz-adv-x="674" 
d="M610 251c0 -80.667 -24.333 -144.5 -73 -191.5s-115.334 -70.5 -200.001 -70.5s-151.334 23.5 -200.001 70.5s-73 110.833 -73 191.5v211c0 82 24.333 146.5 73 193.5s115.334 70.5 200.001 70.5s151.334 -23.5 200.001 -70.5s73 -111.5 73 -193.5v-211zM150 251
c0 -56.667 16.333 -101 49 -133s78.667 -48 138 -48s105.166 16 137.499 48s48.5 76.333 48.5 133v211c0 58.667 -16.167 104.167 -48.5 136.5s-78.166 48.5 -137.499 48.5s-105.333 -16.167 -138 -48.5s-49 -77.833 -49 -136.5v-211zM239 785h-59.001
c-4.66699 0 -7.66699 1.5 -9 4.5s-0.333008 6.16699 3 9.5l123 133c4 4.66699 8.66699 7 14 7h52c4.66699 0 9.33398 -2.33301 14.001 -7l123 -133c3.33301 -3.33301 4.33301 -6.5 3 -9.5s-4.33301 -4.5 -9 -4.5h-59c-5.33301 0 -10 2.33301 -14 7l-84 86l-84 -86
c-4 -4.66699 -8.66699 -7 -14 -7z" />
    <glyph glyph-name="Otilde" unicode="&#xd5;" horiz-adv-x="674" 
d="M610 251c0 -80.667 -24.333 -144.5 -73 -191.5s-115.334 -70.5 -200.001 -70.5s-151.334 23.5 -200.001 70.5s-73 110.833 -73 191.5v211c0 82 24.333 146.5 73 193.5s115.334 70.5 200.001 70.5s151.334 -23.5 200.001 -70.5s73 -111.5 73 -193.5v-211zM150 251
c0 -56.667 16.333 -101 49 -133s78.667 -48 138 -48s105.166 16 137.499 48s48.5 76.333 48.5 133v211c0 58.667 -16.167 104.167 -48.5 136.5s-78.166 48.5 -137.499 48.5s-105.333 -16.167 -138 -48.5s-49 -77.833 -49 -136.5v-211zM493 881
c-6.66699 -18.667 -17.5 -35.501 -32.5 -50.501s-32.5 -22.5 -52.5 -22.5c-18 0 -41.667 8 -71 24s-49.666 24 -60.999 24c-15.333 0 -29 -11.333 -41 -34c-2.66699 -6 -7.66699 -7.66699 -15 -5l-33 19c-6 3.33301 -8 8.33301 -6 15c7.33301 18.667 18.166 35 32.499 49
s31.5 21 51.5 21c19.333 0 43.666 -8.33301 72.999 -25c30.667 -15.333 51.334 -23 62.001 -23c8.66699 0 15.5 2.5 20.5 7.5s10.833 13.833 17.5 26.5c4 6.66699 9 8.33398 15 5.00098l34 -18c5.33301 -2.66699 7.33301 -7 6 -13z" />
    <glyph glyph-name="Odieresis" unicode="&#xd6;" horiz-adv-x="674" 
d="M610 251c0 -80.667 -24.333 -144.5 -73 -191.5s-115.334 -70.5 -200.001 -70.5s-151.334 23.5 -200.001 70.5s-73 110.833 -73 191.5v211c0 82 24.333 146.5 73 193.5s115.334 70.5 200.001 70.5s151.334 -23.5 200.001 -70.5s73 -111.5 73 -193.5v-211zM150 251
c0 -56.667 16.333 -101 49 -133s78.667 -48 138 -48s105.166 16 137.499 48s48.5 76.333 48.5 133v211c0 58.667 -16.167 104.167 -48.5 136.5s-78.166 48.5 -137.499 48.5s-105.333 -16.167 -138 -48.5s-49 -77.833 -49 -136.5v-211zM284 847
c0 -14.667 -4.66699 -26.5 -14 -35.5s-21 -13.5 -35 -13.5c-14.667 0 -26.5 4.5 -35.5 13.5s-13.5 20.833 -13.5 35.5s4.5 26.667 13.5 36s20.833 14 35.5 14c14 0 25.667 -4.66699 35 -14s14 -21.333 14 -36zM488 847c0 -14.667 -4.66699 -26.5 -14 -35.5
s-21.333 -13.5 -36 -13.5s-26.5 4.5 -35.5 13.5s-13.5 20.833 -13.5 35.5s4.5 26.667 13.5 36s20.833 14 35.5 14s26.667 -4.66699 36 -14s14 -21.333 14 -36z" />
    <glyph glyph-name="multiply" unicode="&#xd7;" 
d="M290 276l-162.001 -163c-5.33301 -6 -11 -6 -17 0l-38 38c-6 6 -6 11.333 0 16l163 164l-163 162c-6 6 -6 11.667 0 17l38 38c5.33301 5.33301 11 5.33301 17 0l162 -163l163 163c6 6 11.333 6 16 0l38 -38c6 -5.33301 6 -11 0 -17l-162 -162l162 -164
c6 -4.66699 6 -10 0 -16l-38 -38c-5.33301 -6.66699 -10.666 -6.66699 -15.999 0z" />
    <glyph glyph-name="Oslash" unicode="&#xd8;" horiz-adv-x="688" 
d="M161 -54l-50.001 0.000976562c-10 0 -12.667 4.66699 -8 14l47 90c-57.333 47.333 -86 114 -86 200v212c0 81.333 25 145.666 75 192.999s118.333 71 205 71c55.333 0 103.333 -9.66699 144 -29l31 59c2.66699 5.33301 7 8 13 8h50
c4.66699 0 7.83398 -1.33301 9.50098 -4s1.16699 -6 -1.5 -10l-47 -89c54 -46.667 81 -113 81 -199v-212c0 -80 -25 -143.5 -75 -190.5s-118.333 -70.5 -205 -70.5c-50 0 -95.667 9 -137 27l-33 -62c-2 -5.33301 -6.33301 -8 -13 -8zM152.999 250.001
c0 -48 13.333 -87.333 40 -118l256 490c-29.333 15.333 -64.333 23 -105 23c-60.667 0 -107.667 -16 -141 -48s-50 -77 -50 -135v-212zM245.999 91.001c28 -13.333 60.667 -20 98 -20c60.667 0 107.667 15.833 141 47.5s50 75.5 50 131.5v212c0 46.667 -12 84.667 -36 114z
" />
    <glyph glyph-name="Ugrave" unicode="&#xd9;" horiz-adv-x="691" 
d="M608 244c0 -76.667 -23.833 -138.334 -71.5 -185.001s-111.5 -70 -191.5 -70c-79.333 0 -142.833 23.333 -190.5 70s-71.5 108.334 -71.5 185.001v460c0 7.33301 4 11 12 11h64c7.33301 0 11 -3.66699 11 -11v-454c0 -56.667 15.333 -101.167 46 -133.5
s73.667 -48.5 129 -48.5c56 0 99.333 16.167 130 48.5s46 76.833 46 133.5v454c0 7.33301 3.66699 11 11 11h64c8 0 12 -3.66699 12 -11v-460zM315 792l-121 133c-3.33301 3.33301 -4.33301 6.5 -3 9.5s4.33301 4.5 9 4.5h70c6 0 10.333 -2.33301 13 -7l105 -133
c6 -9.33301 3.66699 -14 -7 -14h-52c-5.33301 0 -10 2.33301 -14 7z" />
    <glyph glyph-name="Uacute" unicode="&#xda;" horiz-adv-x="691" 
d="M608 244c0 -76.667 -23.833 -138.334 -71.5 -185.001s-111.5 -70 -191.5 -70c-79.333 0 -142.833 23.333 -190.5 70s-71.5 108.334 -71.5 185.001v460c0 7.33301 4 11 12 11h64c7.33301 0 11 -3.66699 11 -11v-454c0 -56.667 15.333 -101.167 46 -133.5
s73.667 -48.5 129 -48.5c56 0 99.333 16.167 130 48.5s46 76.833 46 133.5v454c0 7.33301 3.66699 11 11 11h64c8 0 12 -3.66699 12 -11v-460zM488 925l-121 -133c-4 -4.66699 -8.66699 -7 -14 -7h-52c-10.667 0 -13 4.66699 -7 14l105 133c2.66699 4.66699 7 7 13 7h70
c4.66699 0 7.66699 -1.5 9 -4.5s0.333008 -6.16699 -3 -9.5z" />
    <glyph glyph-name="Ucircumflex" unicode="&#xdb;" horiz-adv-x="691" 
d="M608 244c0 -76.667 -23.833 -138.334 -71.5 -185.001s-111.5 -70 -191.5 -70c-79.333 0 -142.833 23.333 -190.5 70s-71.5 108.334 -71.5 185.001v460c0 7.33301 4 11 12 11h64c7.33301 0 11 -3.66699 11 -11v-454c0 -56.667 15.333 -101.167 46 -133.5
s73.667 -48.5 129 -48.5c56 0 99.333 16.167 130 48.5s46 76.833 46 133.5v454c0 7.33301 3.66699 11 11 11h64c8 0 12 -3.66699 12 -11v-460zM248 785h-59.001c-4.66699 0 -7.66699 1.5 -9 4.5s-0.333008 6.16699 3 9.5l123 133c4 4.66699 8.66699 7 14 7h52
c4.66699 0 9.33398 -2.33301 14.001 -7l123 -133c3.33301 -3.33301 4.33301 -6.5 3 -9.5s-4.33301 -4.5 -9 -4.5h-59c-5.33301 0 -10 2.33301 -14 7l-84 86l-84 -86c-4 -4.66699 -8.66699 -7 -14 -7z" />
    <glyph glyph-name="Udieresis" unicode="&#xdc;" horiz-adv-x="691" 
d="M608 244c0 -76.667 -23.833 -138.334 -71.5 -185.001s-111.5 -70 -191.5 -70c-79.333 0 -142.833 23.333 -190.5 70s-71.5 108.334 -71.5 185.001v460c0 7.33301 4 11 12 11h64c7.33301 0 11 -3.66699 11 -11v-454c0 -56.667 15.333 -101.167 46 -133.5
s73.667 -48.5 129 -48.5c56 0 99.333 16.167 130 48.5s46 76.833 46 133.5v454c0 7.33301 3.66699 11 11 11h64c8 0 12 -3.66699 12 -11v-460zM293 847c0 -14.667 -4.66699 -26.5 -14 -35.5s-21 -13.5 -35 -13.5c-14.667 0 -26.5 4.5 -35.5 13.5s-13.5 20.833 -13.5 35.5
s4.5 26.667 13.5 36s20.833 14 35.5 14c14 0 25.667 -4.66699 35 -14s14 -21.333 14 -36zM497 847c0 -14.667 -4.66699 -26.5 -14 -35.5s-21.333 -13.5 -36 -13.5s-26.5 4.5 -35.5 13.5s-13.5 20.833 -13.5 35.5s4.5 26.667 13.5 36s20.833 14 35.5 14
s26.667 -4.66699 36 -14s14 -21.333 14 -36z" />
    <glyph glyph-name="Yacute" unicode="&#xdd;" horiz-adv-x="568" 
d="M315 0h-63c-7.33301 0 -11 3.66699 -11 11v261l-235 429c-4.66699 9.33301 -2 14 8 14h72c6.66699 0 11 -2.66699 13 -8l185 -357l184 357c2 5.33301 6.33301 8 13 8h72c10 0 12.667 -4.66699 8 -14l-234 -431v-259c0 -7.33301 -4 -11 -12 -11zM419 925l-121 -133
c-4 -4.66699 -8.66699 -7 -14 -7h-52c-10.667 0 -13 4.66699 -7 14l105 133c2.66699 4.66699 7 7 13 7h70c4.66699 0 7.66699 -1.5 9 -4.5s0.333008 -6.16699 -3 -9.5z" />
    <glyph glyph-name="Thorn" unicode="&#xde;" horiz-adv-x="642" 
d="M165 0h-64c-8 0 -12 3.66699 -12 11v693c0 7.33301 4 11 12 11h64c7.33301 0 11 -3.66699 11 -11v-99h166c78.667 0 140.167 -20.5 184.5 -61.5s66.5 -97.833 66.5 -170.5c0 -73.333 -22.167 -130.5 -66.5 -171.5s-105.833 -61.5 -184.5 -61.5h-166v-129
c0 -7.33301 -3.66699 -11 -11 -11zM176 524v-303h164c109.333 0 164 50.667 164 152c0 50 -14 87.667 -42 113s-68.667 38 -122 38h-164z" />
    <glyph glyph-name="germandbls" unicode="&#xdf;" horiz-adv-x="558" 
d="M486 529c0 -33.333 -7.00195 -63.333 -21.002 -90s-35.333 -46.334 -64 -59.001c76 -30 114 -88.333 114 -175c0 -64 -20.5 -114.667 -61.5 -152s-92.5 -56 -154.5 -56c-33.333 0 -65.666 5.33301 -96.999 16c-6 3.33301 -9 7.66602 -9 12.999v55
c0 9.33301 4.33301 12.333 13 9c26 -8.66699 54 -13 84 -13c42 0 76.167 11.5 102.5 34.5s39.5 55.167 39.5 96.5c0 40.667 -11.667 72.334 -35 95.001s-57 34 -101 34h-88c-7.33301 0 -11 4 -11 12v51c0 8 3.66699 12 11 12h85c34.667 0 61.834 11 81.501 33
s29.5 50 29.5 84c0 84 -42.667 126 -128 126c-83.333 0 -125 -45.333 -125 -136v-508c0 -7.33301 -4 -11 -12 -11h-59c-7.33301 0 -11 3.66699 -11 11v508c0 66.667 19.167 117.834 57.5 153.501s88.166 53.5 149.499 53.5c62.667 0 113.334 -17 152.001 -51
s58 -82.667 58 -146z" />
    <glyph glyph-name="agrave" unicode="&#xe0;" horiz-adv-x="511" 
d="M61 476c50.667 34.667 113.667 52.001 189 52.001c62.667 0 111.5 -16.5 146.5 -49.5s52.5 -81.167 52.5 -144.5v-300c0 -6.66699 -3 -11 -9 -13c-58.667 -21.333 -123 -32 -193 -32c-62 0 -113.333 13.333 -154 40s-61 68 -61 124c0 51.333 19.333 90.666 58 117.999
s91 41 157 41c34.667 0 74.667 -4 120 -12v32c0 41.333 -9.33301 72 -28 92s-49.334 30 -92.001 30c-53.333 0 -100.666 -12.333 -141.999 -37c-6 -4 -11 -3 -15 3l-29 42c-3.33301 6 -3.33301 10.667 0 14zM114 153.001c0 -29.333 12.167 -51.833 36.5 -67.5
s56.5 -23.5 96.5 -23.5s80 6 120 18v150c-42.667 8 -82.667 12 -120 12c-88.667 0 -133 -29.667 -133 -89zM294 597.001h-45c-6 0 -10.667 2.33301 -14 7l-96 133c-2.66699 4 -3.5 7.33301 -2.5 10s3.83301 4 8.5 4h63c6 0 10.667 -2.33301 14 -7l81 -133
c2.66699 -4 3 -7.33301 1 -10s-5.33301 -4 -10 -4z" />
    <glyph glyph-name="aacute" unicode="&#xe1;" horiz-adv-x="511" 
d="M61 476c50.667 34.667 113.667 52.001 189 52.001c62.667 0 111.5 -16.5 146.5 -49.5s52.5 -81.167 52.5 -144.5v-300c0 -6.66699 -3 -11 -9 -13c-58.667 -21.333 -123 -32 -193 -32c-62 0 -113.333 13.333 -154 40s-61 68 -61 124c0 51.333 19.333 90.666 58 117.999
s91 41 157 41c34.667 0 74.667 -4 120 -12v32c0 41.333 -9.33301 72 -28 92s-49.334 30 -92.001 30c-53.333 0 -100.666 -12.333 -141.999 -37c-6 -4 -11 -3 -15 3l-29 42c-3.33301 6 -3.33301 10.667 0 14zM114 153.001c0 -29.333 12.167 -51.833 36.5 -67.5
s56.5 -23.5 96.5 -23.5s80 6 120 18v150c-42.667 8 -82.667 12 -120 12c-88.667 0 -133 -29.667 -133 -89zM250 597.001h-45c-4.66699 0 -8 1.33301 -10 4s-1.66699 6 1 10l81 133c3.33301 4.66699 8 7 14 7h63c10.667 0 12.667 -4.66699 6 -14l-96 -133
c-3.33301 -4.66699 -8 -7 -14 -7z" />
    <glyph glyph-name="acircumflex" unicode="&#xe2;" horiz-adv-x="511" 
d="M61 476c50.667 34.667 113.667 52.001 189 52.001c62.667 0 111.5 -16.5 146.5 -49.5s52.5 -81.167 52.5 -144.5v-300c0 -6.66699 -3 -11 -9 -13c-58.667 -21.333 -123 -32 -193 -32c-62 0 -113.333 13.333 -154 40s-61 68 -61 124c0 51.333 19.333 90.666 58 117.999
s91 41 157 41c34.667 0 74.667 -4 120 -12v32c0 41.333 -9.33301 72 -28 92s-49.334 30 -92.001 30c-53.333 0 -100.666 -12.333 -141.999 -37c-6 -4 -11 -3 -15 3l-29 42c-3.33301 6 -3.33301 10.667 0 14zM114 153.001c0 -29.333 12.167 -51.833 36.5 -67.5
s56.5 -23.5 96.5 -23.5s80 6 120 18v150c-42.667 8 -82.667 12 -120 12c-88.667 0 -133 -29.667 -133 -89zM163 597.001h-50.001c-4.66699 0 -7.66699 1.33301 -9 4s-0.666016 6 2.00098 10l113 133c4.66699 4.66699 9.33398 7 14.001 7h43c6 0 10.667 -2.33301 14 -7
l112 -133c3.33301 -4 4.5 -7.33301 3.5 -10s-3.83301 -4 -8.5 -4h-52c-6 0 -10.667 2.33301 -14 7l-76 91l-78 -91c-4.66699 -4.66699 -9.33398 -7 -14.001 -7z" />
    <glyph glyph-name="atilde" unicode="&#xe3;" horiz-adv-x="511" 
d="M61 476c50.667 34.667 113.667 52.001 189 52.001c62.667 0 111.5 -16.5 146.5 -49.5s52.5 -81.167 52.5 -144.5v-300c0 -6.66699 -3 -11 -9 -13c-58.667 -21.333 -123 -32 -193 -32c-62 0 -113.333 13.333 -154 40s-61 68 -61 124c0 51.333 19.333 90.666 58 117.999
s91 41 157 41c34.667 0 74.667 -4 120 -12v32c0 41.333 -9.33301 72 -28 92s-49.334 30 -92.001 30c-53.333 0 -100.666 -12.333 -141.999 -37c-6 -4 -11 -3 -15 3l-29 42c-3.33301 6 -3.33301 10.667 0 14zM114 153.001c0 -29.333 12.167 -51.833 36.5 -67.5
s56.5 -23.5 96.5 -23.5s80 6 120 18v150c-42.667 8 -82.667 12 -120 12c-88.667 0 -133 -29.667 -133 -89zM408 680.001c-6 -18.667 -16.6641 -35.501 -31.9971 -50.501s-33 -22.5 -53 -22.5c-16.667 0 -40.334 8 -71.001 24c-29.333 16 -49.333 24 -60 24
c-17.333 0 -31 -11.333 -41 -34c-3.33301 -6 -8.66602 -7.66699 -15.999 -5l-33 19c-6.66699 4 -8.33398 9 -5.00098 15c7.33301 18.667 18.333 35 33 49s31.667 21 51 21s43.666 -8.33301 72.999 -25c29.333 -15.333 49.666 -23 60.999 -23c14 0 27 11.333 39 34
c3.33301 7.33301 8.33301 9 15 5l33 -18c6 -3.33301 8 -7.66602 6 -12.999z" />
    <glyph glyph-name="adieresis" unicode="&#xe4;" horiz-adv-x="511" 
d="M61 476c50.667 34.667 113.667 52.001 189 52.001c62.667 0 111.5 -16.5 146.5 -49.5s52.5 -81.167 52.5 -144.5v-300c0 -6.66699 -3 -11 -9 -13c-58.667 -21.333 -123 -32 -193 -32c-62 0 -113.333 13.333 -154 40s-61 68 -61 124c0 51.333 19.333 90.666 58 117.999
s91 41 157 41c34.667 0 74.667 -4 120 -12v32c0 41.333 -9.33301 72 -28 92s-49.334 30 -92.001 30c-53.333 0 -100.666 -12.333 -141.999 -37c-6 -4 -11 -3 -15 3l-29 42c-3.33301 6 -3.33301 10.667 0 14zM114 153.001c0 -29.333 12.167 -51.833 36.5 -67.5
s56.5 -23.5 96.5 -23.5s80 6 120 18v150c-42.667 8 -82.667 12 -120 12c-88.667 0 -133 -29.667 -133 -89zM201 662.001c0 -14.667 -4.33301 -26.167 -13 -34.5s-20 -12.5 -34 -12.5s-25.333 4.33301 -34 13s-13 20 -13 34c0 14.667 4.33301 26.334 13 35.001s20 13 34 13
s25.333 -4.33301 34 -13s13 -20.334 13 -35.001zM393 662.001c0 -14 -4.33301 -25.333 -13 -34s-20 -13 -34 -13s-25.5 4.33301 -34.5 13s-13.5 20 -13.5 34c0 14.667 4.5 26.334 13.5 35.001s20.5 13 34.5 13s25.333 -4.33301 34 -13s13 -20.334 13 -35.001z" />
    <glyph glyph-name="aring" unicode="&#xe5;" horiz-adv-x="511" 
d="M61 476c50.667 34.667 113.667 52.001 189 52.001c62.667 0 111.5 -16.5 146.5 -49.5s52.5 -81.167 52.5 -144.5v-300c0 -6.66699 -3 -11 -9 -13c-58.667 -21.333 -123 -32 -193 -32c-62 0 -113.333 13.333 -154 40s-61 68 -61 124c0 51.333 19.333 90.666 58 117.999
s91 41 157 41c34.667 0 74.667 -4 120 -12v32c0 41.333 -9.33301 72 -28 92s-49.334 30 -92.001 30c-53.333 0 -100.666 -12.333 -141.999 -37c-6 -4 -11 -3 -15 3l-29 42c-3.33301 6 -3.33301 10.667 0 14zM114 153.001c0 -29.333 12.167 -51.833 36.5 -67.5
s56.5 -23.5 96.5 -23.5s80 6 120 18v150c-42.667 8 -82.667 12 -120 12c-88.667 0 -133 -29.667 -133 -89zM359 685.001c0 -31.333 -9.83301 -56.168 -29.5 -74.501s-44.834 -27.5 -75.501 -27.5c-32 0 -58.167 9.33301 -78.5 28s-30.5 43.667 -30.5 75
c0 30.667 10.167 55.334 30.5 74.001s46.5 28 78.5 28c30.667 0 55.834 -9.33301 75.501 -28s29.5 -43.667 29.5 -75zM195 684.999c0 -16 5.33301 -29 16 -39s24.667 -15 42 -15c16.667 0 30.167 5 40.5 15s15.5 23 15.5 39c0 16.667 -5.16699 30 -15.5 40
s-23.833 15 -40.5 15c-17.333 0 -31.333 -5 -42 -15s-16 -23.333 -16 -40z" />
    <glyph glyph-name="ae" unicode="&#xe6;" horiz-adv-x="820" 
d="M564 -11c-56 0 -103.672 17.332 -143.005 51.999c-48 -34.667 -107.333 -52 -178 -52c-58 0 -107.667 14.167 -149 42.5s-62 68.833 -62 121.5c0 50.667 19.333 89.334 58 116.001s89 40 151 40c34.667 0 74.667 -3.33301 120 -10v46c0 72 -39.667 108 -119 108
c-50.667 0 -98.334 -12.333 -143.001 -37c-6.66699 -2.66699 -12 -1.33398 -16 3.99902l-24 40c-3.33301 6.66699 -2.33301 12 3 16c52.667 34 113.334 51 182.001 51s122.334 -26 161.001 -78c38.667 52 94.334 78 167.001 78c56 0 103.667 -16.333 143 -49s59 -79 59 -139
v-101c0 -8 -4 -12 -12 -12h-320v-50c0 -36.667 10.833 -64.5 32.5 -83.5s51.834 -28.5 90.501 -28.5c60.667 0 111.334 18.667 152.001 56c6 4.66699 11.333 4.33398 16 -0.999023l31 -40c4.66699 -6 4.33398 -11 -0.999023 -15c-52 -50 -118.333 -75 -199 -75z
M114.995 153.999c0 -29.333 12.001 -52.001 36.001 -68.001s54 -24 90 -24c49.333 0 94 12.333 134 37c-9.33301 20.667 -14 44.334 -14 71.001v61c-42.667 6.66699 -80.334 10 -113.001 10c-88.667 0 -133 -29 -133 -87zM441.996 330.998l-0.000976562 -38.001h253v40
c0 38.667 -11.667 68.334 -35 89.001s-53.666 31 -90.999 31c-38 0 -68.667 -10.333 -92 -31s-35 -51 -35 -91z" />
    <glyph glyph-name="ccedilla" unicode="&#xe7;" horiz-adv-x="470" 
d="M442 47c-48.667 -35.333 -100.666 -54.332 -155.999 -56.999l-16 -40c26 -1.33301 46.833 -8.5 62.5 -21.5s23.5 -29.833 23.5 -50.5c0 -26.667 -10.5 -47.167 -31.5 -61.5s-49.167 -21.5 -84.5 -21.5c-20.667 0 -40 3 -58 9c-6 2 -9 6.33301 -9 13v24
c0 8 4.33301 11.333 13 10c14.667 -4.66699 29.667 -7 45 -7c40 0 60 13 60 39c0 24 -21 36.333 -63 37c-6.66699 0 -11.334 2.66699 -14.001 8c-1.33301 2.66699 -1 6.33398 1 11.001l21 52c-57.333 4.66699 -102.5 24.334 -135.5 59.001s-49.5 78.667 -49.5 132v152
c0 57.333 19.333 104 58 140s90.334 54 155.001 54c58 0 112.333 -16.667 163 -50c6.66699 -4.66699 7.66699 -10.334 3 -17.001l-26 -41c-4.66699 -6 -10 -7 -16 -3c-38 24.667 -78.667 37 -122 37c-42 0 -74.667 -11 -98 -33s-35 -51 -35 -87v-152
c0 -36.667 11.667 -65.834 35 -87.501s55.666 -32.5 96.999 -32.5c46 0 90.667 14.667 134 44c6 5.33301 11.333 4.66602 16 -2.00098l29 -41c4.66699 -6.66699 4 -12 -2 -16z" />
    <glyph glyph-name="egrave" unicode="&#xe8;" horiz-adv-x="518" 
d="M472 329v-98.001c0 -8 -3.66699 -12 -11 -12h-327v-42c0 -36.667 12 -65 36 -85s55.333 -30 94 -30c54.667 0 105.667 18.667 153 56c6.66699 4 12 3 16 -3l29 -38c4.66699 -5.33301 4 -10.666 -2 -15.999c-57.333 -48 -123.333 -72 -198 -72
c-58 0 -107.667 16.5 -149 49.5s-62 79.167 -62 138.5v152c0 64.667 20.5 114 61.5 148s91.167 51 150.5 51c58.667 0 108.167 -17 148.5 -51s60.5 -83.333 60.5 -148zM392 328.999c0 40.667 -11.833 71.667 -35.5 93s-54.834 32 -93.501 32
c-39.333 0 -70.666 -10.5 -93.999 -31.5s-35 -52.167 -35 -93.5v-42h258v42zM305 596.999h-45c-6 0 -10.667 2.33301 -14 7l-96 133c-6.66699 9.33301 -4.66699 14 6 14h63c6 0 10.667 -2.33301 14 -7l81 -133c2.66699 -4 3 -7.33301 1 -10s-5.33301 -4 -10 -4z" />
    <glyph glyph-name="eacute" unicode="&#xe9;" horiz-adv-x="518" 
d="M472 329v-98.001c0 -8 -3.66699 -12 -11 -12h-327v-42c0 -36.667 12 -65 36 -85s55.333 -30 94 -30c54.667 0 105.667 18.667 153 56c6.66699 4 12 3 16 -3l29 -38c4.66699 -5.33301 4 -10.666 -2 -15.999c-57.333 -48 -123.333 -72 -198 -72
c-58 0 -107.667 16.5 -149 49.5s-62 79.167 -62 138.5v152c0 64.667 20.5 114 61.5 148s91.167 51 150.5 51c58.667 0 108.167 -17 148.5 -51s60.5 -83.333 60.5 -148zM392 328.999c0 40.667 -11.833 71.667 -35.5 93s-54.834 32 -93.501 32
c-39.333 0 -70.666 -10.5 -93.999 -31.5s-35 -52.167 -35 -93.5v-42h258v42zM254 596.999h-45c-4.66699 0 -8 1.33301 -10 4s-1.66699 6 1 10l81 133c3.33301 4.66699 8 7 14 7h63c10.667 0 12.667 -4.66699 6 -14l-96 -133c-3.33301 -4.66699 -8 -7 -14 -7z" />
    <glyph glyph-name="ecircumflex" unicode="&#xea;" horiz-adv-x="518" 
d="M472 329v-98.001c0 -8 -3.66699 -12 -11 -12h-327v-42c0 -36.667 12 -65 36 -85s55.333 -30 94 -30c54.667 0 105.667 18.667 153 56c6.66699 4 12 3 16 -3l29 -38c4.66699 -5.33301 4 -10.666 -2 -15.999c-57.333 -48 -123.333 -72 -198 -72
c-58 0 -107.667 16.5 -149 49.5s-62 79.167 -62 138.5v152c0 64.667 20.5 114 61.5 148s91.167 51 150.5 51c58.667 0 108.167 -17 148.5 -51s60.5 -83.333 60.5 -148zM392 328.999c0 40.667 -11.833 71.667 -35.5 93s-54.834 32 -93.501 32
c-39.333 0 -70.666 -10.5 -93.999 -31.5s-35 -52.167 -35 -93.5v-42h258v42zM171 596.999h-50.001c-11.333 0 -13.666 4.66699 -6.99902 14l113 133c4.66699 4.66699 9.33398 7 14.001 7h43c6 0 10.667 -2.33301 14 -7l112 -133c3.33301 -4 4.5 -7.33301 3.5 -10
s-3.83301 -4 -8.5 -4h-52c-6 0 -10.667 2.33301 -14 7l-76 91l-78 -91c-4.66699 -4.66699 -9.33398 -7 -14.001 -7z" />
    <glyph glyph-name="edieresis" unicode="&#xeb;" horiz-adv-x="518" 
d="M472 329v-98.001c0 -8 -3.66699 -12 -11 -12h-327v-42c0 -36.667 12 -65 36 -85s55.333 -30 94 -30c54.667 0 105.667 18.667 153 56c6.66699 4 12 3 16 -3l29 -38c4.66699 -5.33301 4 -10.666 -2 -15.999c-57.333 -48 -123.333 -72 -198 -72
c-58 0 -107.667 16.5 -149 49.5s-62 79.167 -62 138.5v152c0 64.667 20.5 114 61.5 148s91.167 51 150.5 51c58.667 0 108.167 -17 148.5 -51s60.5 -83.333 60.5 -148zM392 328.999c0 40.667 -11.833 71.667 -35.5 93s-54.834 32 -93.501 32
c-39.333 0 -70.666 -10.5 -93.999 -31.5s-35 -52.167 -35 -93.5v-42h258v42zM212 661.999c0 -14.667 -4.33301 -26.167 -13 -34.5s-20 -12.5 -34 -12.5s-25.333 4.33301 -34 13s-13 20 -13 34c0 14.667 4.33301 26.334 13 35.001s20 13 34 13s25.333 -4.33301 34 -13
s13 -20.334 13 -35.001zM404 661.999c0 -14 -4.33301 -25.333 -13 -34s-20 -13 -34 -13s-25.5 4.33301 -34.5 13s-13.5 20 -13.5 34c0 14.667 4.5 26.334 13.5 35.001s20.5 13 34.5 13s25.333 -4.33301 34 -13s13 -20.334 13 -35.001z" />
    <glyph glyph-name="igrave" unicode="&#xec;" horiz-adv-x="220" 
d="M139 0h-59c-7.33301 0 -11 3.66699 -11 11v494c0 8 3.66699 12 11 12h59c8 0 12 -4 12 -12v-494c0 -7.33301 -4 -11 -12 -11zM151 597h-45c-6 0 -10.667 2.33301 -14 7l-96 133c-2.66699 4 -3.5 7.33301 -2.5 10s3.83301 4 8.5 4h63c6 0 10.667 -2.33301 14 -7l81 -133
c2.66699 -4 3 -7.33301 1 -10s-5.33301 -4 -10 -4z" />
    <glyph glyph-name="iacute" unicode="&#xed;" horiz-adv-x="220" 
d="M139 0h-59c-7.33301 0 -11 3.66699 -11 11v494c0 8 3.66699 12 11 12h59c8 0 12 -4 12 -12v-494c0 -7.33301 -4 -11 -12 -11zM111 597h-45c-4.66699 0 -8 1.33301 -10 4s-1.66699 6 1 10l81 133c3.33301 4.66699 8 7 14 7h63c10.667 0 12.667 -4.66699 6 -14l-96 -133
c-3.33301 -4.66699 -8 -7 -14 -7z" />
    <glyph glyph-name="icircumflex" unicode="&#xee;" horiz-adv-x="220" 
d="M139 0h-59c-7.33301 0 -11 3.66699 -11 11v494c0 8 3.66699 12 11 12h59c8 0 12 -4 12 -12v-494c0 -7.33301 -4 -11 -12 -11zM36 597h-49.002c-4.66699 0 -7.66699 1.5 -9 4.5s-1 6.16699 1 9.5l95 133c3.33301 4.66699 8 7 14 7h44
c4.66699 0 9.33398 -2.33301 14.001 -7l95 -133c2.66699 -3.33301 3.33398 -6.5 2.00098 -9.5s-4.33301 -4.5 -9 -4.5h-50c-6 0 -10.667 2.33301 -14 7l-60 93l-60 -92c-3.33301 -5.33301 -8 -8 -14 -8z" />
    <glyph glyph-name="idieresis" unicode="&#xef;" horiz-adv-x="220" 
d="M139 0h-59c-7.33301 0 -11 3.66699 -11 11v494c0 8 3.66699 12 11 12h59c8 0 12 -4 12 -12v-494c0 -7.33301 -4 -11 -12 -11zM86 662c0 -13.333 -4.33301 -24.333 -13 -33s-19.667 -13 -33 -13s-24.333 4.33301 -33 13s-13 19.667 -13 33s4.33301 24.5 13 33.5
s19.667 13.5 33 13.5s24.333 -4.5 33 -13.5s13 -20.167 13 -33.5zM225 662c0 -13.333 -4.5 -24.333 -13.5 -33s-20.167 -13 -33.5 -13s-24.333 4.33301 -33 13s-13 19.667 -13 33s4.33301 24.5 13 33.5s19.667 13.5 33 13.5s24.5 -4.5 33.5 -13.5s13.5 -20.167 13.5 -33.5z
" />
    <glyph glyph-name="eth" unicode="&#xf0;" horiz-adv-x="550" 
d="M440 685l-58.999 -44c70.667 -64.667 106.334 -155 107.001 -271v-185c0 -58.667 -19.833 -106 -59.5 -142s-92.834 -54 -159.501 -54s-119.834 18 -159.501 54s-59.5 83.333 -59.5 142v114c0 58.667 19.5 106.167 58.5 142.5s90.5 54.5 154.5 54.5
c62 0 110.333 -19 145 -57c-6.66699 64.667 -36 117.334 -88 158.001l-97 -71c-6 -4 -11.333 -3 -16 3l-16 22c-4 5.33301 -3 10.666 3 15.999l81 60c-38.667 20 -80 32 -124 36c-8.66699 0 -12.334 4 -11.001 12v47c1.33301 7.33301 5.33301 11 12 11
c71.333 -5.33301 133.333 -25 186 -59l72 53c6.66699 4.66699 12.334 3.66699 17.001 -3l16 -22c4 -6 3 -11.667 -3 -17zM133.001 185c0 -38 11.667 -68 35 -90s57 -33 101 -33s77.667 11 101 33s35.333 52 36 90v114c0.666992 38.667 -11 69.167 -35 91.5
s-58 33.5 -102 33.5s-77.667 -11.167 -101 -33.5s-35 -52.833 -35 -91.5v-114z" />
    <glyph glyph-name="ntilde" unicode="&#xf1;" horiz-adv-x="557" 
d="M138 0l-59.001 -0.00195312c-7.33301 0 -11 3.66699 -11 11v464c0 6.66699 2.66699 11.334 8 14.001c62 26 126 39 192 39c70 0 125 -17.667 165 -53s60 -89.666 60 -162.999v-301c0 -7.33301 -4 -11 -12 -11h-59c-7.33301 0 -11 3.66699 -11 11v299
c0 96 -47.667 144 -143 144c-41.333 0 -80.666 -6 -117.999 -18v-425c0 -7.33301 -4 -11 -12 -11zM422.999 679.998c-6 -18.667 -16.6641 -35.501 -31.9971 -50.501s-33 -22.5 -53 -22.5c-16.667 0 -40.334 8 -71.001 24c-29.333 16 -49.333 24 -60 24
c-17.333 0 -31 -11.333 -41 -34c-3.33301 -6 -8.66602 -7.66699 -15.999 -5l-33 19c-6.66699 4 -8.33398 9 -5.00098 15c7.33301 18.667 18.333 35 33 49s31.667 21 51 21s43.666 -8.33301 72.999 -25c29.333 -15.333 49.666 -23 60.999 -23c14 0 27 11.333 39 34
c3.33301 7.33301 8.33301 9 15 5l33 -18c6 -3.33301 8 -7.66602 6 -12.999z" />
    <glyph glyph-name="ograve" unicode="&#xf2;" horiz-adv-x="540" 
d="M490 185c0 -59.333 -19.833 -106.833 -59.5 -142.5s-93.167 -53.5 -160.5 -53.5s-120.833 18 -160.5 54s-59.5 83.333 -59.5 142v144c0 59.333 20 107.333 60 144s93.333 55 160 55c67.333 0 120.833 -18.333 160.5 -55s59.5 -84.667 59.5 -144v-144zM133 185
c0 -38 11.833 -68 35.5 -90s57.5 -33 101.5 -33s78 11 102 33s36 52 36 90v144c0 38.667 -12 69.167 -36 91.5s-58 33.5 -102 33.5s-77.833 -11.167 -101.5 -33.5s-35.5 -52.833 -35.5 -91.5v-144zM314 597h-45c-6 0 -10.667 2.33301 -14 7l-96 133
c-2.66699 4 -3.5 7.33301 -2.5 10s3.83301 4 8.5 4h63c6 0 10.667 -2.33301 14 -7l81 -133c2.66699 -4 3 -7.33301 1 -10s-5.33301 -4 -10 -4z" />
    <glyph glyph-name="oacute" unicode="&#xf3;" horiz-adv-x="540" 
d="M490 185c0 -59.333 -19.833 -106.833 -59.5 -142.5s-93.167 -53.5 -160.5 -53.5s-120.833 18 -160.5 54s-59.5 83.333 -59.5 142v144c0 59.333 20 107.333 60 144s93.333 55 160 55c67.333 0 120.833 -18.333 160.5 -55s59.5 -84.667 59.5 -144v-144zM133 185
c0 -38 11.833 -68 35.5 -90s57.5 -33 101.5 -33s78 11 102 33s36 52 36 90v144c0 38.667 -12 69.167 -36 91.5s-58 33.5 -102 33.5s-77.833 -11.167 -101.5 -33.5s-35.5 -52.833 -35.5 -91.5v-144zM263 597h-45c-4.66699 0 -8 1.33301 -10 4s-1.66699 6 1 10l81 133
c3.33301 4.66699 8 7 14 7h63c4.66699 0 7.5 -1.33301 8.5 -4s0.166992 -6 -2.5 -10l-96 -133c-3.33301 -4.66699 -8 -7 -14 -7z" />
    <glyph glyph-name="ocircumflex" unicode="&#xf4;" horiz-adv-x="540" 
d="M490 185c0 -59.333 -19.833 -106.833 -59.5 -142.5s-93.167 -53.5 -160.5 -53.5s-120.833 18 -160.5 54s-59.5 83.333 -59.5 142v144c0 59.333 20 107.333 60 144s93.333 55 160 55c67.333 0 120.833 -18.333 160.5 -55s59.5 -84.667 59.5 -144v-144zM133 185
c0 -38 11.833 -68 35.5 -90s57.5 -33 101.5 -33s78 11 102 33s36 52 36 90v144c0 38.667 -12 69.167 -36 91.5s-58 33.5 -102 33.5s-77.833 -11.167 -101.5 -33.5s-35.5 -52.833 -35.5 -91.5v-144zM178 597h-50.001c-5.33301 0 -8.66602 1.33301 -9.99902 4
s-0.333008 6 3 10l113 133c4.66699 4.66699 9.33398 7 14.001 7h43c6 0 10.667 -2.33301 14 -7l112 -133c3.33301 -4 4.5 -7.33301 3.5 -10s-3.83301 -4 -8.5 -4h-52c-6 0 -10.667 2.33301 -14 7l-76 91l-78 -91c-4.66699 -4.66699 -9.33398 -7 -14.001 -7z" />
    <glyph glyph-name="otilde" unicode="&#xf5;" horiz-adv-x="540" 
d="M490 185c0 -59.333 -19.833 -106.833 -59.5 -142.5s-93.167 -53.5 -160.5 -53.5s-120.833 18 -160.5 54s-59.5 83.333 -59.5 142v144c0 59.333 20 107.333 60 144s93.333 55 160 55c67.333 0 120.833 -18.333 160.5 -55s59.5 -84.667 59.5 -144v-144zM133 185
c0 -38 11.833 -68 35.5 -90s57.5 -33 101.5 -33s78 11 102 33s36 52 36 90v144c0 38.667 -12 69.167 -36 91.5s-58 33.5 -102 33.5s-77.833 -11.167 -101.5 -33.5s-35.5 -52.833 -35.5 -91.5v-144zM425 680c-6 -18.667 -16.6641 -35.501 -31.9971 -50.501
s-33 -22.5 -53 -22.5c-16.667 0 -40.334 8 -71.001 24c-29.333 16 -49.333 24 -60 24c-17.333 0 -31 -11.333 -41 -34c-3.33301 -6 -8.66602 -7.66699 -15.999 -5l-33 19c-6.66699 4 -8.33398 9 -5.00098 15c7.33301 18.667 18.333 35 33 49s31.667 21 51 21
s43.666 -8.33301 72.999 -25c29.333 -15.333 49.666 -23 60.999 -23c14 0 27 11.333 39 34c3.33301 7.33301 8.33301 9 15 5l33 -18c6 -3.33301 8 -7.66602 6 -12.999z" />
    <glyph glyph-name="odieresis" unicode="&#xf6;" horiz-adv-x="540" 
d="M490 185c0 -59.333 -19.833 -106.833 -59.5 -142.5s-93.167 -53.5 -160.5 -53.5s-120.833 18 -160.5 54s-59.5 83.333 -59.5 142v144c0 59.333 20 107.333 60 144s93.333 55 160 55c67.333 0 120.833 -18.333 160.5 -55s59.5 -84.667 59.5 -144v-144zM133 185
c0 -38 11.833 -68 35.5 -90s57.5 -33 101.5 -33s78 11 102 33s36 52 36 90v144c0 38.667 -12 69.167 -36 91.5s-58 33.5 -102 33.5s-77.833 -11.167 -101.5 -33.5s-35.5 -52.833 -35.5 -91.5v-144zM221 662c0 -14.667 -4.33301 -26.167 -13 -34.5s-20 -12.5 -34 -12.5
s-25.333 4.33301 -34 13s-13 20 -13 34c0 14.667 4.33301 26.334 13 35.001s20 13 34 13s25.333 -4.33301 34 -13s13 -20.334 13 -35.001zM413 662c0 -14 -4.33301 -25.333 -13 -34s-20 -13 -34 -13s-25.5 4.33301 -34.5 13s-13.5 20 -13.5 34
c0 14.667 4.5 26.334 13.5 35.001s20.5 13 34.5 13s25.333 -4.33301 34 -13s13 -20.334 13 -35.001z" />
    <glyph glyph-name="divide" unicode="&#xf7;" 
d="M499 296h-419c-7.33301 0 -11 3.66699 -11 11v55c0 7.33301 3.66699 11 11 11h419c7.33301 0 11 -3.66699 11 -11v-55c0 -7.33301 -3.66699 -11 -11 -11zM346 158c0 -16.667 -5.16699 -30.167 -15.5 -40.5s-23.833 -15.5 -40.5 -15.5s-30 5.16699 -40 15.5
s-15 23.833 -15 40.5s5 30.167 15 40.5s23.333 15.5 40 15.5s30.167 -5.16699 40.5 -15.5s15.5 -23.833 15.5 -40.5zM346 505c0 -16 -5.16699 -29.167 -15.5 -39.5s-23.833 -15.5 -40.5 -15.5s-30 5.16699 -40 15.5s-15 23.5 -15 39.5c0 16.667 5 30.167 15 40.5
s23.333 15.5 40 15.5s30.167 -5.16699 40.5 -15.5s15.5 -23.833 15.5 -40.5z" />
    <glyph glyph-name="oslash" unicode="&#xf8;" horiz-adv-x="540" 
d="M114 -57h-50.001c-10 0 -12.667 4.66699 -8 14l51 88c-38 36 -57 82.667 -57 140v144c0 59.333 19.833 107.333 59.5 144s93.167 55 160.5 55c40 0 74.667 -7 104 -21l39 66c3.33301 5.33301 8 8 14 8h50c10 0 12.667 -4.66699 8 -14l-55 -94c40 -36 60 -84 60 -144v-144
c0 -59.333 -19.833 -106.833 -59.5 -142.5s-93.167 -53.5 -160.5 -53.5c-42.667 0 -78.667 7.33301 -108 22l-35 -60c-3.33301 -5.33301 -7.66602 -8 -12.999 -8zM132.999 185c0 -24.667 5.66699 -45.667 17 -63l187 318c-18.667 9.33301 -41 14 -67 14
c-44 0 -77.833 -11.167 -101.5 -33.5s-35.5 -52.833 -35.5 -91.5v-144zM269.999 62c44 0 77.834 10.999 101.501 32.999s35.5 52 35.5 90v144c0 26.667 -6.66699 49.334 -20 68.001l-187 -320c21.333 -10 44.666 -15 69.999 -15z" />
    <glyph glyph-name="ugrave" unicode="&#xf9;" horiz-adv-x="551" 
d="M413 517l59 0.000976562c7.33301 0 11 -4 11 -12v-463c0 -7.33301 -2.66699 -12 -8 -14c-58 -26 -121 -39 -189 -39c-68.667 0 -122.667 17.667 -162 53s-59 89.666 -59 162.999v300c0 8 4 12 12 12h59c7.33301 0 11 -4 11 -12v-298c0 -96.667 46.333 -145 139 -145
c40.667 0 79 6.33301 115 19v424c0 8 4 12 12 12zM321 597.001h-45c-6 0 -10.667 2.33301 -14 7l-96 133c-2.66699 4 -3.5 7.33301 -2.5 10s3.83301 4 8.5 4h63c6 0 10.667 -2.33301 14 -7l81 -133c2.66699 -4 3 -7.33301 1 -10s-5.33301 -4 -10 -4z" />
    <glyph glyph-name="uacute" unicode="&#xfa;" horiz-adv-x="551" 
d="M413 517l59 0.000976562c7.33301 0 11 -4 11 -12v-463c0 -7.33301 -2.66699 -12 -8 -14c-58 -26 -121 -39 -189 -39c-68.667 0 -122.667 17.667 -162 53s-59 89.666 -59 162.999v300c0 8 4 12 12 12h59c7.33301 0 11 -4 11 -12v-298c0 -96.667 46.333 -145 139 -145
c40.667 0 79 6.33301 115 19v424c0 8 4 12 12 12zM268 597.001h-45c-4.66699 0 -8 1.33301 -10 4s-1.66699 6 1 10l81 133c3.33301 4.66699 8 7 14 7h63c10.667 0 12.667 -4.66699 6 -14l-96 -133c-3.33301 -4.66699 -8 -7 -14 -7z" />
    <glyph glyph-name="ucircumflex" unicode="&#xfb;" horiz-adv-x="551" 
d="M413 517l59 0.000976562c7.33301 0 11 -4 11 -12v-463c0 -7.33301 -2.66699 -12 -8 -14c-58 -26 -121 -39 -189 -39c-68.667 0 -122.667 17.667 -162 53s-59 89.666 -59 162.999v300c0 8 4 12 12 12h59c7.33301 0 11 -4 11 -12v-298c0 -96.667 46.333 -145 139 -145
c40.667 0 79 6.33301 115 19v424c0 8 4 12 12 12zM185 597.001h-50.001c-4.66699 0 -7.66699 1.33301 -9 4s-0.666016 6 2.00098 10l113 133c4.66699 4.66699 9.33398 7 14.001 7h43c6 0 10.667 -2.33301 14 -7l112 -133c3.33301 -4 4.5 -7.33301 3.5 -10
s-3.83301 -4 -8.5 -4h-52c-6 0 -10.667 2.33301 -14 7l-76 91l-78 -91c-4.66699 -4.66699 -9.33398 -7 -14.001 -7z" />
    <glyph glyph-name="udieresis" unicode="&#xfc;" horiz-adv-x="551" 
d="M413 517l59 0.000976562c7.33301 0 11 -4 11 -12v-463c0 -7.33301 -2.66699 -12 -8 -14c-58 -26 -121 -39 -189 -39c-68.667 0 -122.667 17.667 -162 53s-59 89.666 -59 162.999v300c0 8 4 12 12 12h59c7.33301 0 11 -4 11 -12v-298c0 -96.667 46.333 -145 139 -145
c40.667 0 79 6.33301 115 19v424c0 8 4 12 12 12zM228 662.001c0 -14.667 -4.33301 -26.167 -13 -34.5s-20 -12.5 -34 -12.5s-25.333 4.33301 -34 13s-13 20 -13 34c0 14.667 4.33301 26.334 13 35.001s20 13 34 13s25.333 -4.33301 34 -13s13 -20.334 13 -35.001z
M420 662.001c0 -14 -4.33301 -25.333 -13 -34s-20 -13 -34 -13s-25.5 4.33301 -34.5 13s-13.5 20 -13.5 34c0 14.667 4.5 26.334 13.5 35.001s20.5 13 34.5 13s25.333 -4.33301 34 -13s13 -20.334 13 -35.001z" />
    <glyph glyph-name="yacute" unicode="&#xfd;" horiz-adv-x="551" 
d="M400 119l-0.00195312 386c0 8 3.66699 12 11 12h59c8 0 12 -4 12 -12v-491c0 -142 -70.333 -213.333 -211 -214c-74 0 -138.333 23 -193 69c-4.66699 4.66699 -5 10.334 -1 17.001l30 41c4.66699 7.33301 10 8.33301 16 3c48 -36.667 97.333 -55.334 148 -56.001
c44 0.666992 76.833 12.5 98.5 35.5s31.834 59.5 30.501 109.5v23c-41.333 -17.333 -82.666 -26 -123.999 -26c-58.667 0 -108.667 17.167 -150 51.5s-62 83.5 -62 147.5v290c0 8 3.66699 12 11 12h59c8 0 12 -4 12 -12v-286c0 -43.333 12.833 -75.333 38.5 -96
s59.5 -31 101.5 -31c44 0 82 9 114 27zM268.998 597h-45c-4.66699 0 -8 1.33301 -10 4s-1.66699 6 1 10l81 133c3.33301 4.66699 8 7 14 7h63c10.667 0 12.667 -4.66699 6 -14l-96 -133c-3.33301 -4.66699 -8 -7 -14 -7z" />
    <glyph glyph-name="thorn" unicode="&#xfe;" horiz-adv-x="544" 
d="M151 503c38.667 16.667 80.001 24.999 124.001 24.999c63.333 0 115.5 -16.667 156.5 -50s61.5 -83.666 61.5 -150.999v-139c0 -63.333 -20.833 -112.333 -62.5 -147s-93.834 -52 -156.501 -52c-44.667 0 -85.667 9.33301 -123 28v-195c0 -8 -4 -12 -12 -12h-59
c-7.33301 0 -11 4 -11 12v882c0 7.33301 3.66699 11 11 11h59c8 0 12 -3.66699 12 -11v-201zM268.001 61.999c41.333 0 75.333 10.333 102 31s40 52.667 40 96v136c0 45.333 -13.167 78.333 -39.5 99s-60.833 31 -103.5 31c-41.333 0 -80 -8.33301 -116 -25v-340
c35.333 -18.667 74.333 -28 117 -28z" />
    <glyph glyph-name="ydieresis" unicode="&#xff;" horiz-adv-x="551" 
d="M400 119l-0.00195312 386c0 8 3.66699 12 11 12h59c8 0 12 -4 12 -12v-491c0 -142 -70.333 -213.333 -211 -214c-74 0 -138.333 23 -193 69c-4.66699 4.66699 -5 10.334 -1 17.001l30 41c4.66699 7.33301 10 8.33301 16 3c48 -36.667 97.333 -55.334 148 -56.001
c44 0.666992 76.833 12.5 98.5 35.5s31.834 59.5 30.501 109.5v23c-41.333 -17.333 -82.666 -26 -123.999 -26c-58.667 0 -108.667 17.167 -150 51.5s-62 83.5 -62 147.5v290c0 8 3.66699 12 11 12h59c8 0 12 -4 12 -12v-286c0 -43.333 12.833 -75.333 38.5 -96
s59.5 -31 101.5 -31c44 0 82 9 114 27zM224.998 662c0 -14.667 -4.33301 -26.167 -13 -34.5s-20 -12.5 -34 -12.5s-25.333 4.33301 -34 13s-13 20 -13 34c0 14.667 4.33301 26.334 13 35.001s20 13 34 13s25.333 -4.33301 34 -13s13 -20.334 13 -35.001zM416.998 662
c0 -14 -4.33301 -25.333 -13 -34s-20 -13 -34 -13s-25.5 4.33301 -34.5 13s-13.5 20 -13.5 34c0 14.667 4.5 26.334 13.5 35.001s20.5 13 34.5 13s25.333 -4.33301 34 -13s13 -20.334 13 -35.001z" />
    <glyph glyph-name="Amacron" unicode="&#x100;" horiz-adv-x="619" 
d="M85 0h-67c-8 -0 -11 4.33301 -9 13l249 693c2 6 6 9 12 9h79c6.66699 0 11 -3 13 -9l248 -693c3.33301 -8.66699 0.333008 -13 -9 -13h-67c-6.66699 0 -11 3 -13 9l-61 178h-300l-62 -178c-2 -6 -6.33301 -9 -13 -9zM308 620l-122 -354h248l-122 354h-4zM445 811h-272
c-7.33301 0 -11 3.66699 -11 11v45c0 8 3.66699 12 11 12h272c7.33301 0 11 -4 11 -12v-45c0 -7.33301 -3.66699 -11 -11 -11z" />
    <glyph glyph-name="amacron" unicode="&#x101;" horiz-adv-x="511" 
d="M61 476c50.667 34.667 113.667 52.001 189 52.001c62.667 0 111.5 -16.5 146.5 -49.5s52.5 -81.167 52.5 -144.5v-300c0 -6.66699 -3 -11 -9 -13c-58.667 -21.333 -123 -32 -193 -32c-62 0 -113.333 13.333 -154 40s-61 68 -61 124c0 51.333 19.333 90.666 58 117.999
s91 41 157 41c34.667 0 74.667 -4 120 -12v32c0 41.333 -9.33301 72 -28 92s-49.334 30 -92.001 30c-53.333 0 -100.666 -12.333 -141.999 -37c-6 -4 -11 -3 -15 3l-29 42c-3.33301 6 -3.33301 10.667 0 14zM114 153.001c0 -29.333 12.167 -51.833 36.5 -67.5
s56.5 -23.5 96.5 -23.5s80 6 120 18v150c-42.667 8 -82.667 12 -120 12c-88.667 0 -133 -29.667 -133 -89zM118 631.001v43c0 8 3.66699 12 11 12h252c7.33301 0 11 -4 11 -12v-43c0 -7.33301 -3.66699 -11 -11 -11h-252c-7.33301 0 -11 3.66699 -11 11z" />
    <glyph glyph-name="Abreve" unicode="&#x102;" horiz-adv-x="619" 
d="M85 0h-67c-8 -0 -11 4.33301 -9 13l249 693c2 6 6 9 12 9h79c6.66699 0 11 -3 13 -9l248 -693c3.33301 -8.66699 0.333008 -13 -9 -13h-67c-6.66699 0 -11 3 -13 9l-61 178h-300l-62 -178c-2 -6 -6.33301 -9 -13 -9zM308 620l-122 -354h248l-122 354h-4zM473 910
c-5.33301 -42 -21.998 -75.5 -49.998 -100.5s-65.667 -37.5 -113 -37.5c-46.667 0 -84 12.5 -112 37.5s-45 58.167 -51 99.5c-0.666992 6.66699 2.66602 11 9.99902 13l44 11c6.66699 0.666992 11 -2.33301 13 -9c9.33301 -56 41.333 -84 96 -84c55.333 0 87.333 28 96 84
c2 6.66699 6.33301 9.66699 13 9l44 -11c7.33301 -2 10.666 -6 9.99902 -12z" />
    <glyph glyph-name="abreve" unicode="&#x103;" horiz-adv-x="511" 
d="M61 476c50.667 34.667 113.667 52.001 189 52.001c62.667 0 111.5 -16.5 146.5 -49.5s52.5 -81.167 52.5 -144.5v-300c0 -6.66699 -3 -11 -9 -13c-58.667 -21.333 -123 -32 -193 -32c-62 0 -113.333 13.333 -154 40s-61 68 -61 124c0 51.333 19.333 90.666 58 117.999
s91 41 157 41c34.667 0 74.667 -4 120 -12v32c0 41.333 -9.33301 72 -28 92s-49.334 30 -92.001 30c-53.333 0 -100.666 -12.333 -141.999 -37c-6 -4 -11 -3 -15 3l-29 42c-3.33301 6 -3.33301 10.667 0 14zM114 153.001c0 -29.333 12.167 -51.833 36.5 -67.5
s56.5 -23.5 96.5 -23.5s80 6 120 18v150c-42.667 8 -82.667 12 -120 12c-88.667 0 -133 -29.667 -133 -89zM405 732.001c-4.66699 -40.667 -20.501 -73.332 -47.501 -97.999s-62.833 -37 -107.5 -37c-44 0 -79.167 12.167 -105.5 36.5s-42.166 56.833 -47.499 97.5
c-1.33301 7.33301 2 11.666 10 12.999l40 5c6.66699 0.666992 11 -2.33301 13 -9c9.33301 -53.333 39.333 -80 90 -80c52 0 82.667 26.667 92 80c0.666992 6.66699 5 9.66699 13 9l39 -5c8 -1.33301 11.667 -5.33301 11 -12z" />
    <glyph glyph-name="Aogonek" unicode="&#x104;" horiz-adv-x="619" 
d="M627 -183c-26 -11.333 -53.6689 -17 -83.002 -17s-52.666 7.33301 -69.999 22s-26 34.667 -26 60c0 22 8 43.833 24 65.5s37.333 39.5 64 53.5h-3c-6.66699 2.66699 -11.667 8.33398 -15 17.001l-58 170h-300l-62 -179c-2 -6 -6.33301 -9 -13 -9h-67
c-8 0 -11 4.33301 -9 13l249 693c2 6 6 9 12 9h79c6.66699 0 11 -3 13 -9l248 -693c3.33301 -8 1.33301 -12.667 -6 -14c-25.333 -12 -45.5 -26.833 -60.5 -44.5s-22.5 -34.167 -22.5 -49.5c0 -22 13.333 -33 40 -33c19.333 0 36 2.66699 50 8c7.33301 2 12 -0.333008 14 -7
l9 -42c0.666992 -6.66699 -1.66602 -11.334 -6.99902 -14.001zM307.998 620l-122 -355h248l-122 355h-4z" />
    <glyph glyph-name="aogonek" unicode="&#x105;" horiz-adv-x="512" 
d="M449 340l-0.00195312 -303.994c0 -6.66699 -3 -11.334 -9 -14.001c-33.333 -14 -61 -32.333 -83 -55s-33 -43.334 -33 -62.001c0 -22 14.333 -33 43 -33c18.667 0 34.334 2.66699 47.001 8c7.33301 3.33301 12 0.666016 14 -8.00098l9 -39
c2 -6.66699 -0.333008 -11.334 -7 -14.001c-25.333 -12 -52.333 -18 -81 -18c-62 0 -93 27.333 -93 82c0 18.667 6.83301 38.667 20.5 60s31.834 39.666 54.501 54.999c-26 -6 -54.333 -9 -85 -9c-62 0 -113.167 13.167 -153.5 39.5s-60.5 68.5 -60.5 126.5
c0 51.333 19.333 90.333 58 117s90.667 40 156 40c34 0 74.333 -4 121 -12v37c0 39.333 -9.5 68.666 -28.5 87.999s-49.833 29 -92.5 29c-53.333 0 -100.666 -12.333 -141.999 -37c-6 -4 -11 -3 -15 3l-29 42c-4 6.66699 -3 12 3 16c51.333 33.333 113.666 50 186.999 50
c62 0 110.667 -16.167 146 -48.5s53 -78.833 53 -139.5zM113.998 155.006c0 -30.667 11.832 -53.833 35.499 -69.5s55.834 -23.5 96.501 -23.5c41.333 0 81.666 5.66699 120.999 17v153c-35.333 6.66699 -75.666 10 -120.999 10c-88 0 -132 -29 -132 -87z" />
    <glyph glyph-name="Cacute" unicode="&#x106;" horiz-adv-x="587" 
d="M555 65c-61.333 -50.667 -136.999 -76 -226.999 -76c-76.667 0 -139.667 21.5 -189 64.5s-74 103.833 -74 182.5v242c0 79.333 24.5 140.5 73.5 183.5s111.5 64.5 187.5 64.5c79.333 0 150.333 -23.333 213 -70c5.33301 -4 6 -9 2 -15l-32 -47
c-4 -5.33301 -9.66699 -6 -17 -2c-49.333 36 -105 54 -167 54c-56 0 -99.167 -15 -129.5 -45s-45.5 -71 -45.5 -123v-241c0 -52 15.333 -93 46 -123s74 -45 130 -45c69.333 0 130.666 20.667 183.999 62c5.33301 5.33301 10.333 4.33301 15 -3l33 -46
c4 -7.33301 3 -13 -3 -17zM465.001 925l-121 -133c-4 -4.66699 -8.66699 -7 -14 -7h-52c-10.667 0 -13 4.66699 -7 14l105 133c2.66699 4.66699 7 7 13 7h70c4.66699 0 7.66699 -1.5 9 -4.5s0.333008 -6.16699 -3 -9.5z" />
    <glyph glyph-name="cacute" unicode="&#x107;" horiz-adv-x="470" 
d="M442 47c-52.667 -38.667 -111.667 -57.9971 -177 -57.9971s-117.333 17.833 -156 53.5s-58 82.167 -58 139.5v152c0 57.333 19.333 104 58 140s90.334 54 155.001 54c58 0 112.333 -16.667 163 -50c6.66699 -4.66699 7.66699 -10.334 3 -17.001l-26 -41
c-4.66699 -6 -10 -7 -16 -3c-38 24.667 -78.667 37 -122 37c-42 0 -74.667 -11 -98 -33s-35 -51 -35 -87v-152c0 -36.667 11.667 -65.834 35 -87.501s55.666 -32.5 96.999 -32.5c46 0 90.667 14.667 134 44c6 5.33301 11.333 4.66602 16 -2.00098l29 -41
c4.66699 -6.66699 4 -12 -2 -16zM248 597.003h-45c-4.66699 0 -8 1.33301 -10 4s-1.66699 6 1 10l81 133c3.33301 4.66699 8 7 14 7h63c10.667 0 12.667 -4.66699 6 -14l-96 -133c-3.33301 -4.66699 -8 -7 -14 -7z" />
    <glyph glyph-name="Cdotaccent" unicode="&#x10a;" horiz-adv-x="587" 
d="M555 65c-61.333 -50.667 -136.999 -76 -226.999 -76c-76.667 0 -139.667 21.5 -189 64.5s-74 103.833 -74 182.5v242c0 79.333 24.5 140.5 73.5 183.5s111.5 64.5 187.5 64.5c79.333 0 150.333 -23.333 213 -70c5.33301 -4 6 -9 2 -15l-32 -47
c-4 -5.33301 -9.66699 -6 -17 -2c-49.333 36 -105 54 -167 54c-56 0 -99.167 -15 -129.5 -45s-45.5 -71 -45.5 -123v-241c0 -52 15.333 -93 46 -123s74 -45 130 -45c69.333 0 130.666 20.667 183.999 62c5.33301 5.33301 10.333 4.33301 15 -3l33 -46
c4 -7.33301 3 -13 -3 -17zM378.001 852c0 -15.333 -5.33301 -28.333 -16 -39s-23.667 -16 -39 -16s-28.333 5.5 -39 16.5s-16 23.833 -16 38.5c0 15.333 5.33301 28.333 16 39s23.667 16 39 16s28.333 -5.33301 39 -16s16 -23.667 16 -39z" />
    <glyph glyph-name="cdotaccent" unicode="&#x10b;" horiz-adv-x="470" 
d="M442 47c-52.667 -38.667 -111.667 -57.9971 -177 -57.9971s-117.333 17.833 -156 53.5s-58 82.167 -58 139.5v152c0 57.333 19.333 104 58 140s90.334 54 155.001 54c58 0 112.333 -16.667 163 -50c6.66699 -4.66699 7.66699 -10.334 3 -17.001l-26 -41
c-4.66699 -6 -10 -7 -16 -3c-38 24.667 -78.667 37 -122 37c-42 0 -74.667 -11 -98 -33s-35 -51 -35 -87v-152c0 -36.667 11.667 -65.834 35 -87.501s55.666 -32.5 96.999 -32.5c46 0 90.667 14.667 134 44c6 5.33301 11.333 4.66602 16 -2.00098l29 -41
c4.66699 -6.66699 4 -12 -2 -16zM305 662.003c0 -14 -4.66699 -25.833 -14 -35.5s-21.333 -14.5 -36 -14.5c-14 0 -25.833 4.83301 -35.5 14.5s-14.5 21.5 -14.5 35.5c0 14.667 4.83301 26.667 14.5 36s21.5 14 35.5 14c14.667 0 26.667 -4.66699 36 -14s14 -21.333 14 -36z
" />
    <glyph glyph-name="Ccaron" unicode="&#x10c;" horiz-adv-x="587" 
d="M555 65c-61.333 -50.667 -136.999 -76 -226.999 -76c-76.667 0 -139.667 21.5 -189 64.5s-74 103.833 -74 182.5v242c0 79.333 24.5 140.5 73.5 183.5s111.5 64.5 187.5 64.5c79.333 0 150.333 -23.333 213 -70c5.33301 -4 6 -9 2 -15l-32 -47
c-4 -5.33301 -9.66699 -6 -17 -2c-49.333 36 -105 54 -167 54c-56 0 -99.167 -15 -129.5 -45s-45.5 -71 -45.5 -123v-241c0 -52 15.333 -93 46 -123s74 -45 130 -45c69.333 0 130.666 20.667 183.999 62c5.33301 5.33301 10.333 4.33301 15 -3l33 -46
c4 -7.33301 3 -13 -3 -17zM166.001 939h59.001c5.33301 0 10 -2.33301 14 -7l84 -86l84 86c4 4.66699 8.66699 7 14 7h59c4.66699 0 7.66699 -1.5 9 -4.5s0.333008 -6.16699 -3 -9.5l-123 -133c-4.66699 -4.66699 -9.33398 -7 -14.001 -7h-52c-5.33301 0 -10 2.33301 -14 7
l-123 133c-3.33301 3.33301 -4.33301 6.5 -3 9.5s4.33301 4.5 9 4.5z" />
    <glyph glyph-name="ccaron" unicode="&#x10d;" horiz-adv-x="470" 
d="M442 47c-52.667 -38.667 -111.667 -57.9971 -177 -57.9971s-117.333 17.833 -156 53.5s-58 82.167 -58 139.5v152c0 57.333 19.333 104 58 140s90.334 54 155.001 54c58 0 112.333 -16.667 163 -50c6.66699 -4.66699 7.66699 -10.334 3 -17.001l-26 -41
c-4.66699 -6 -10 -7 -16 -3c-38 24.667 -78.667 37 -122 37c-42 0 -74.667 -11 -98 -33s-35 -51 -35 -87v-152c0 -36.667 11.667 -65.834 35 -87.501s55.666 -32.5 96.999 -32.5c46 0 90.667 14.667 134 44c6 5.33301 11.333 4.66602 16 -2.00098l29 -41
c4.66699 -6.66699 4 -12 -2 -16zM118 751.003h50.001c4.66699 0 9.33398 -2.33301 14.001 -7l78 -91l76 91c3.33301 4.66699 8 7 14 7h52c4.66699 0 7.5 -1.33301 8.5 -4s-0.166992 -6 -3.5 -10l-112 -133c-3.33301 -4.66699 -8 -7 -14 -7h-43
c-4.66699 0 -9.33398 2.33301 -14.001 7l-113 133c-3.33301 4 -4.33301 7.33301 -3 10s4.66602 4 9.99902 4z" />
    <glyph glyph-name="Dcaron" unicode="&#x10e;" horiz-adv-x="670" 
d="M345 0h-244c-8 0 -12 3.66699 -12 11v693c0 7.33301 4 11 12 11h244c81.333 0 145 -22.5 191 -67.5s69 -108.167 69 -189.5v-205c0 -80.667 -23 -143 -69 -187s-109.667 -66 -191 -66zM175 637v-557h169c56 0 98.833 14.5 128.5 43.5s44.5 72.167 44.5 129.5v205
c0 58.667 -14.833 103.167 -44.5 133.5s-72.5 45.5 -128.5 45.5h-169zM173 939h59.001c5.33301 0 10 -2.33301 14 -7l84 -86l84 86c4 4.66699 8.66699 7 14 7h59c4.66699 0 7.66699 -1.5 9 -4.5s0.333008 -6.16699 -3 -9.5l-123 -133
c-4.66699 -4.66699 -9.33398 -7 -14.001 -7h-52c-5.33301 0 -10 2.33301 -14 7l-123 133c-3.33301 3.33301 -4.33301 6.5 -3 9.5s4.33301 4.5 9 4.5z" />
    <glyph glyph-name="dcaron" unicode="&#x10f;" horiz-adv-x="563" 
d="M267 528c44 0 86 -10.334 126 -31.001v207c0 7.33301 4 11 12 11h59c7.33301 0 11 -3.66699 11 -11v-667c0 -6 -3 -10.333 -9 -13c-60.667 -23.333 -125 -35 -193 -35s-122.167 17.833 -162.5 53.5s-60.5 89.834 -60.5 162.501v111c0 66 20 117.833 60 155.5
s92.333 56.5 157 56.5zM522 559.999l35 145c2 6.66699 6.33301 10 13 10h51c8 0 11 -4.33301 9 -13l-49 -145c-2 -6 -6.33301 -9 -13 -9h-36c-8 0 -11.333 4 -10 12zM133 204.999c0 -50.667 12.001 -87.333 36.001 -110s59.333 -34 106 -34c46 0 85.333 6.33301 118 19v339
c-34.667 24 -74.334 36 -119.001 36c-94 0 -141 -46.333 -141 -139v-111z" />
    <glyph glyph-name="Dcroat" unicode="&#x110;" horiz-adv-x="679" 
d="M110 715h244c81.333 0 145 -22.5 191 -67.5s69 -108.167 69 -189.5v-205c0 -80.667 -23 -143 -69 -187s-109.667 -66 -191 -66h-244c-8 0 -12 3.66699 -12 11v330h-76c-7.33301 0 -11 3.66699 -11 11v37c0 7.33301 3.66699 11 11 11h76v304c0 7.33301 4 11 12 11zM353 80
c56 0 98.833 14.5 128.5 43.5s44.5 72.167 44.5 129.5v205c0 58.667 -14.833 103.167 -44.5 133.5s-72.5 45.5 -128.5 45.5h-169v-237h167c7.33301 0 11 -3.66699 11 -11v-37c0 -7.33301 -3.66699 -11 -11 -11h-167v-261h169z" />
    <glyph glyph-name="dcroat" unicode="&#x111;" horiz-adv-x="543" 
d="M475 643l68 -0.000976562c8 0 12 -4 12 -12v-34c0 -7.33301 -4 -11 -12 -11h-68v-549c0 -6 -3 -10.333 -9 -13c-60.667 -23.333 -125 -35 -193 -35s-122.167 17.833 -162.5 53.5s-60.5 89.834 -60.5 162.501v99c0 66 20 118 60 156s92.333 57 157 57
c44.667 0 86.667 -10.667 126 -32v101h-139c-7.33301 0 -11 3.66699 -11 11v34c0 8 3.66699 12 11 12h139v61c0 7.33301 4 11 12 11h59c7.33301 0 11 -3.66699 11 -11v-61zM133 204.999c0 -50.667 12.001 -87.333 36.001 -110s59.333 -34 106 -34
c46 0 85.333 6.33301 118 19v327c-34.667 24 -74.334 36 -119.001 36c-94 0 -141 -46.333 -141 -139v-99z" />
    <glyph glyph-name="Emacron" unicode="&#x112;" 
d="M175 324v-246h344c7.33301 0 11 -3.66699 11 -11v-56c0 -7.33301 -3.66699 -11 -11 -11h-418c-8 0 -12 3.66699 -12 11v693c0 7.33301 4 11 12 11h404c7.33301 0 11 -3.66699 11 -11v-56c0 -7.33301 -3.66699 -11 -11 -11h-330v-234h307c7.33301 0 11 -4 11 -12v-55
c0 -8 -3.66699 -12 -11 -12h-307zM441 811h-272c-7.33301 0 -11 3.66699 -11 11v45c0 8 3.66699 12 11 12h272c7.33301 0 11 -4 11 -12v-45c0 -7.33301 -3.66699 -11 -11 -11z" />
    <glyph glyph-name="emacron" unicode="&#x113;" horiz-adv-x="518" 
d="M472 329v-98.001c0 -8 -3.66699 -12 -11 -12h-327v-42c0 -36.667 12 -65 36 -85s55.333 -30 94 -30c54.667 0 105.667 18.667 153 56c6.66699 4 12 3 16 -3l29 -38c4.66699 -5.33301 4 -10.666 -2 -15.999c-57.333 -48 -123.333 -72 -198 -72
c-58 0 -107.667 16.5 -149 49.5s-62 79.167 -62 138.5v152c0 64.667 20.5 114 61.5 148s91.167 51 150.5 51c58.667 0 108.167 -17 148.5 -51s60.5 -83.333 60.5 -148zM392 328.999c0 40.667 -11.833 71.667 -35.5 93s-54.834 32 -93.501 32
c-39.333 0 -70.666 -10.5 -93.999 -31.5s-35 -52.167 -35 -93.5v-42h258v42zM124 630.999v43c0 8 3.66699 12 11 12h252c7.33301 0 11 -4 11 -12v-43c0 -7.33301 -3.66699 -11 -11 -11h-252c-7.33301 0 -11 3.66699 -11 11z" />
    <glyph glyph-name="Edotaccent" unicode="&#x116;" 
d="M175 324v-246h344c7.33301 0 11 -3.66699 11 -11v-56c0 -7.33301 -3.66699 -11 -11 -11h-418c-8 0 -12 3.66699 -12 11v693c0 7.33301 4 11 12 11h404c7.33301 0 11 -3.66699 11 -11v-56c0 -7.33301 -3.66699 -11 -11 -11h-330v-234h307c7.33301 0 11 -4 11 -12v-55
c0 -8 -3.66699 -12 -11 -12h-307zM361 852c0 -15.333 -5.33301 -28.333 -16 -39s-23.667 -16 -39 -16c-14.667 0 -27.5 5.5 -38.5 16.5s-16.5 23.833 -16.5 38.5c0 15.333 5.33301 28.333 16 39s23.667 16 39 16s28.333 -5.33301 39 -16s16 -23.667 16 -39z" />
    <glyph glyph-name="edotaccent" unicode="&#x117;" horiz-adv-x="518" 
d="M472 329v-98.001c0 -8 -3.66699 -12 -11 -12h-327v-42c0 -36.667 12 -65 36 -85s55.333 -30 94 -30c54.667 0 105.667 18.667 153 56c6.66699 4 12 3 16 -3l29 -38c4.66699 -5.33301 4 -10.666 -2 -15.999c-57.333 -48 -123.333 -72 -198 -72
c-58 0 -107.667 16.5 -149 49.5s-62 79.167 -62 138.5v152c0 64.667 20.5 114 61.5 148s91.167 51 150.5 51c58.667 0 108.167 -17 148.5 -51s60.5 -83.333 60.5 -148zM392 328.999c0 40.667 -11.833 71.667 -35.5 93s-54.834 32 -93.501 32
c-39.333 0 -70.666 -10.5 -93.999 -31.5s-35 -52.167 -35 -93.5v-42h258v42zM311 661.999c0 -14 -4.66699 -25.833 -14 -35.5s-21.333 -14.5 -36 -14.5c-14 0 -25.833 4.83301 -35.5 14.5s-14.5 21.5 -14.5 35.5c0 14.667 4.83301 26.667 14.5 36s21.5 14 35.5 14
c14.667 0 26.667 -4.66699 36 -14s14 -21.333 14 -36z" />
    <glyph glyph-name="Eogonek" unicode="&#x118;" horiz-adv-x="578" 
d="M484 -128c18 0 34 2.66797 48 8.00098c7.33301 2 12 -0.333008 14 -7l9 -42c2 -6 -0.333008 -10.667 -7 -14c-26 -11.333 -53.333 -17 -82 -17c-30 0 -53.5 7.33301 -70.5 22s-25.5 34.667 -25.5 60c0 22 8 43.667 24 65s37.333 39 64 53h-357c-8 0 -12 3.66699 -12 11
v693c0 7.33301 4 11 12 11h403c7.33301 0 11 -3.66699 11 -11v-56c0 -7.33301 -3.66699 -11 -11 -11h-330v-235h307c8 0 12 -3.66699 12 -11v-56c0 -7.33301 -4 -11 -12 -11h-307v-246h344c8 0 12 -3.66699 12 -11v-57c0 -6.66699 -3 -11.334 -9 -14.001
c-22.667 -12 -41.5 -26.167 -56.5 -42.5s-22.5 -32.833 -22.5 -49.5c0 -21.333 14 -32 42 -32z" />
    <glyph glyph-name="eogonek" unicode="&#x119;" horiz-adv-x="515" 
d="M406 -179c-26 -14.667 -54.332 -22.002 -84.999 -22.002c-28 0 -50.167 6.83301 -66.5 20.5s-24.5 33.834 -24.5 60.501c0 37.333 22.667 75.333 68 114c-8 -3.33301 -19 -5 -33 -5c-59.333 0 -109.833 16.333 -151.5 49s-62.5 78.667 -62.5 138v157
c0 63.333 20.333 111.666 61 144.999s90.667 50 150 50s108.666 -16.667 147.999 -50s59 -81.666 59 -144.999v-102c0 -7.33301 -3.66699 -11 -11 -11h-324v-43c0 -36.667 11.833 -65 35.5 -85s54.834 -30 93.501 -30c60.667 0 111 18.333 151 55
c5.33301 4.66699 10.666 4 15.999 -2l29 -38c4.66699 -6.66699 4.33398 -12 -0.999023 -16c-10.667 -9.33301 -33.667 -24.666 -69 -45.999c-28 -18.667 -50 -38 -66 -58s-24 -37.333 -24 -52c0 -23.333 12.667 -35 38 -35c15.333 0 30 3.66699 44 11
c6.66699 3.33301 11.667 1.33301 15 -6l15 -40c3.33301 -6 1.66602 -10.667 -5.00098 -14zM134.001 330.998l0.000976562 -43h257v45c0 40 -12.333 70.333 -37 91s-56.334 31 -95.001 31c-37.333 0 -67.5 -10.333 -90.5 -31s-34.5 -51.667 -34.5 -93z" />
    <glyph glyph-name="Ecaron" unicode="&#x11a;" 
d="M175 324v-246h344c7.33301 0 11 -3.66699 11 -11v-56c0 -7.33301 -3.66699 -11 -11 -11h-418c-8 0 -12 3.66699 -12 11v693c0 7.33301 4 11 12 11h404c7.33301 0 11 -3.66699 11 -11v-56c0 -7.33301 -3.66699 -11 -11 -11h-330v-234h307c7.33301 0 11 -4 11 -12v-55
c0 -8 -3.66699 -12 -11 -12h-307zM149 939h59.001c5.33301 0 10 -2.33301 14 -7l84 -86l84 86c4 4.66699 8.66699 7 14 7h59c4.66699 0 7.66699 -1.5 9 -4.5s0.333008 -6.16699 -3 -9.5l-123 -133c-4.66699 -4.66699 -9.33398 -7 -14.001 -7h-52
c-5.33301 0 -10 2.33301 -14 7l-123 133c-3.33301 3.33301 -4.33301 6.5 -3 9.5s4.33301 4.5 9 4.5z" />
    <glyph glyph-name="ecaron" unicode="&#x11b;" horiz-adv-x="518" 
d="M472 329v-98.001c0 -8 -3.66699 -12 -11 -12h-327v-42c0 -36.667 12 -65 36 -85s55.333 -30 94 -30c54.667 0 105.667 18.667 153 56c6.66699 4 12 3 16 -3l29 -38c4.66699 -5.33301 4 -10.666 -2 -15.999c-57.333 -48 -123.333 -72 -198 -72
c-58 0 -107.667 16.5 -149 49.5s-62 79.167 -62 138.5v152c0 64.667 20.5 114 61.5 148s91.167 51 150.5 51c58.667 0 108.167 -17 148.5 -51s60.5 -83.333 60.5 -148zM392 328.999c0 40.667 -11.833 71.667 -35.5 93s-54.834 32 -93.501 32
c-39.333 0 -70.666 -10.5 -93.999 -31.5s-35 -52.167 -35 -93.5v-42h258v42zM124 750.999h50.001c4.66699 0 9.33398 -2.33301 14.001 -7l78 -91l76 91c3.33301 4.66699 8 7 14 7h52c4.66699 0 7.5 -1.33301 8.5 -4s-0.166992 -6 -3.5 -10l-112 -133
c-3.33301 -4.66699 -8 -7 -14 -7h-43c-4.66699 0 -9.33398 2.33301 -14.001 7l-113 133c-3.33301 4 -4.33301 7.33301 -3 10s4.66602 4 9.99902 4z" />
    <glyph glyph-name="Gbreve" unicode="&#x11e;" horiz-adv-x="646" 
d="M582 90c-65.333 -67.333 -148.331 -101 -248.998 -101c-77.333 0 -141.333 21.667 -192 65s-76 104.333 -76 183v242c0 78.667 24.667 139.5 74 182.5s111.666 64.5 186.999 64.5c89.333 0 168.333 -23.667 237 -71c7.33301 -4 8.33301 -9.33301 3 -16l-34 -47
c-3.33301 -5.33301 -8.33301 -6.33301 -15 -3c-57.333 38 -121 57 -191 57c-54 0 -96.833 -14.833 -128.5 -44.5s-47.5 -71.167 -47.5 -124.5v-240c0 -53.333 16.667 -94.5 50 -123.5s77.666 -43.5 132.999 -43.5c68.667 0 125 18.667 169 56v186h-164
c-7.33301 0 -11 3.66699 -11 11v56c0 7.33301 3.66699 11 11 11h237c7.33301 0 11 -3.66699 11 -11v-276c0 -6 -1.33301 -10.333 -4 -13zM489.002 910c-5.33301 -42 -21.998 -75.5 -49.998 -100.5s-65.667 -37.5 -113 -37.5c-46.667 0 -84 12.5 -112 37.5
s-45 58.167 -51 99.5c-0.666992 6.66699 2.66602 11 9.99902 13l44 11c6.66699 0.666992 11 -2.33301 13 -9c9.33301 -56 41.333 -84 96 -84c55.333 0 87.333 28 96 84c2 6.66699 6.33301 9.66699 13 9l44 -11c7.33301 -2 10.666 -6 9.99902 -12z" />
    <glyph glyph-name="gbreve" unicode="&#x11f;" horiz-adv-x="543" 
d="M475 14c0 -142.667 -70.335 -214.003 -211.002 -214.003c-73.333 0 -137.666 23 -192.999 69c-4.66699 4 -5 9.33301 -1 16l29 43c4.66699 6.66699 10 7.33398 16 2.00098c46.667 -37.333 96.334 -56 149.001 -56c45.333 0 78.5 11.833 99.5 35.5
s30.833 60.834 29.5 111.501v24c-40 -19.333 -82.667 -29 -128 -29c-63.333 0 -115 17.333 -155 52s-60 85.334 -60 152.001v100c0 71.333 20.5 123.833 61.5 157.5s95.167 50.5 162.5 50.5c69.333 0 133.333 -13 192 -39c6 -2 9 -6.33301 9 -13v-462zM132.998 219.997
c0 -86.667 46 -130 138 -130c52 0 92.667 10 122 30v317c-32.667 11.333 -72 17 -118 17c-94.667 0 -142 -44.667 -142 -134v-100zM426.998 731.997c-4.66699 -40.667 -20.501 -73.332 -47.501 -97.999s-62.833 -37 -107.5 -37c-44 0 -79.167 12.167 -105.5 36.5
s-42.166 56.833 -47.499 97.5c-1.33301 7.33301 2 11.666 10 12.999l40 5c6.66699 0.666992 11 -2.33301 13 -9c9.33301 -53.333 39.333 -80 90 -80c52 0 82.667 26.667 92 80c0.666992 6.66699 5 9.66699 13 9l39 -5c8 -1.33301 11.667 -5.33301 11 -12z" />
    <glyph glyph-name="Gdotaccent" unicode="&#x120;" horiz-adv-x="646" 
d="M582 90c-65.333 -67.333 -148.331 -101 -248.998 -101c-77.333 0 -141.333 21.667 -192 65s-76 104.333 -76 183v242c0 78.667 24.667 139.5 74 182.5s111.666 64.5 186.999 64.5c89.333 0 168.333 -23.667 237 -71c7.33301 -4 8.33301 -9.33301 3 -16l-34 -47
c-3.33301 -5.33301 -8.33301 -6.33301 -15 -3c-57.333 38 -121 57 -191 57c-54 0 -96.833 -14.833 -128.5 -44.5s-47.5 -71.167 -47.5 -124.5v-240c0 -53.333 16.667 -94.5 50 -123.5s77.666 -43.5 132.999 -43.5c68.667 0 125 18.667 169 56v186h-164
c-7.33301 0 -11 3.66699 -11 11v56c0 7.33301 3.66699 11 11 11h237c7.33301 0 11 -3.66699 11 -11v-276c0 -6 -1.33301 -10.333 -4 -13zM381.002 852c0 -15.333 -5.33301 -28.333 -16 -39s-23.667 -16 -39 -16c-14.667 0 -27.5 5.5 -38.5 16.5s-16.5 23.833 -16.5 38.5
c0 15.333 5.33301 28.333 16 39s23.667 16 39 16s28.333 -5.33301 39 -16s16 -23.667 16 -39z" />
    <glyph glyph-name="gdotaccent" unicode="&#x121;" horiz-adv-x="543" 
d="M475 14c0 -142.667 -70.335 -214.003 -211.002 -214.003c-73.333 0 -137.666 23 -192.999 69c-4.66699 4 -5 9.33301 -1 16l29 43c4.66699 6.66699 10 7.33398 16 2.00098c46.667 -37.333 96.334 -56 149.001 -56c45.333 0 78.5 11.833 99.5 35.5
s30.833 60.834 29.5 111.501v24c-40 -19.333 -82.667 -29 -128 -29c-63.333 0 -115 17.333 -155 52s-60 85.334 -60 152.001v100c0 71.333 20.5 123.833 61.5 157.5s95.167 50.5 162.5 50.5c69.333 0 133.333 -13 192 -39c6 -2 9 -6.33301 9 -13v-462zM132.998 219.997
c0 -86.667 46 -130 138 -130c52 0 92.667 10 122 30v317c-32.667 11.333 -72 17 -118 17c-94.667 0 -142 -44.667 -142 -134v-100zM321.998 661.997c0 -14 -4.66699 -25.833 -14 -35.5s-21.333 -14.5 -36 -14.5c-14 0 -25.833 4.83301 -35.5 14.5s-14.5 21.5 -14.5 35.5
c0 14.667 4.83301 26.667 14.5 36s21.5 14 35.5 14c14.667 0 26.667 -4.66699 36 -14s14 -21.333 14 -36z" />
    <glyph glyph-name="uni0122" unicode="&#x122;" horiz-adv-x="646" 
d="M582 90c-65.333 -67.333 -148.331 -101 -248.998 -101c-77.333 0 -141.333 21.667 -192 65s-76 104.333 -76 183v242c0 78.667 24.667 139.5 74 182.5s111.666 64.5 186.999 64.5c89.333 0 168.333 -23.667 237 -71c7.33301 -4 8.33301 -9.33301 3 -16l-34 -47
c-3.33301 -5.33301 -8.33301 -6.33301 -15 -3c-57.333 38 -121 57 -191 57c-54 0 -96.833 -14.833 -128.5 -44.5s-47.5 -71.167 -47.5 -124.5v-240c0 -53.333 16.667 -94.5 50 -123.5s77.666 -43.5 132.999 -43.5c68.667 0 125 18.667 169 56v186h-164
c-7.33301 0 -11 3.66699 -11 11v56c0 7.33301 3.66699 11 11 11h237c7.33301 0 11 -3.66699 11 -11v-276c0 -6 -1.33301 -10.333 -4 -13zM298.002 -244h-38c-9.33301 0 -13 4 -11 12l37 146c2 6.66699 6.33301 10 13 10h54c8.66699 0 12 -4.33301 10 -13l-52 -146
c-2 -6 -6.33301 -9 -13 -9z" />
    <glyph glyph-name="uni0123" unicode="&#x123;" horiz-adv-x="543" 
d="M475 14c0 -142.667 -70.335 -214.003 -211.002 -214.003c-73.333 0 -137.666 23 -192.999 69c-4.66699 4 -5 9.33301 -1 16l29 43c4.66699 6.66699 10 7.33398 16 2.00098c46.667 -37.333 96.334 -56 149.001 -56c45.333 0 78.5 11.833 99.5 35.5
s30.833 60.834 29.5 111.501v24c-40 -19.333 -82.667 -29 -128 -29c-63.333 0 -115 17.333 -155 52s-60 85.334 -60 152.001v100c0 71.333 20.5 123.833 61.5 157.5s95.167 50.5 162.5 50.5c69.333 0 133.333 -13 192 -39c6 -2 9 -6.33301 9 -13v-462zM132.998 219.997
c0 -86.667 46 -130 138 -130c52 0 92.667 10 122 30v317c-32.667 11.333 -72 17 -118 17c-94.667 0 -142 -44.667 -142 -134v-100zM284.998 596.997h-55c-4 0 -7 1.33301 -9 4s-2 5.66699 0 9l55 137c2 6 6.33301 9 13 9h38c9.33301 0 12.333 -4.33301 9 -13l-39 -136
c-2 -6.66699 -6 -10 -12 -10z" />
    <glyph glyph-name="Hbar" unicode="&#x126;" horiz-adv-x="692" 
d="M598 614h59c8 0 12 -4 12 -12v-36c0 -8 -4 -12 -12 -12h-59v-543c0 -7.33301 -3.66699 -11 -11 -11h-63c-7.33301 0 -11 3.66699 -11 11v313h-334v-313c0 -7.33301 -3.66699 -11 -11 -11h-62c-8 0 -12 3.66699 -12 11v543h-59c-7.33301 0 -11 4 -11 12v36
c0 8 3.66699 12 11 12h59v90c0 7.33301 4 11 12 11h62c7.33301 0 11 -3.66699 11 -11v-90h334v90c0 7.33301 3.66699 11 11 11h63c7.33301 0 11 -3.66699 11 -11v-90zM179 401h334v153h-334v-153z" />
    <glyph glyph-name="hbar" unicode="&#x127;" horiz-adv-x="558" 
d="M151 491c40 16.667 82 25 126 25c66 0 118.667 -17.833 158 -53.5s59 -90.5 59 -164.5v-287c0 -7.33301 -3.66699 -11 -11 -11h-59c-8 0 -12 3.66699 -12 11v284c0 52 -11.833 89.5 -35.5 112.5s-58.5 34.5 -104.5 34.5c-42.667 0 -83 -8.66699 -121 -26v-405
c0 -7.33301 -3.66699 -11 -11 -11h-59c-8 0 -12 3.66699 -12 11v575h-68c-7.33301 0 -11 3.66699 -11 11v34c0 8 3.66699 12 11 12h68v61c0 7.33301 4 11 12 11h59c7.33301 0 11 -3.66699 11 -11v-61h140c7.33301 0 11 -4 11 -12v-34c0 -7.33301 -3.66699 -11 -11 -11h-140
v-95z" />
    <glyph glyph-name="Imacron" unicode="&#x12a;" horiz-adv-x="264" 
d="M4 838v44c0 7.33301 3.66699 11 11 11h234c7.33301 0 11 -3.66699 11 -11v-44c0 -7.33301 -3.66699 -11 -11 -11h-234c-7.33301 0 -11 3.66699 -11 11zM175 704v-693c0 -7.33301 -4 -11 -12 -11h-62c-8 0 -12 3.66699 -12 11v693c0 7.33301 4 11 12 11h62
c8 0 12 -3.66699 12 -11z" />
    <glyph glyph-name="imacron" unicode="&#x12b;" horiz-adv-x="220" 
d="M207 618h-193c-7.33301 0 -11 4 -11 12v43c0 7.33301 3.66699 11 11 11h193c7.33301 0 11 -3.66699 11 -11v-43c0 -8 -3.66699 -12 -11 -12zM140 0h-59c-8 0 -12 3.66699 -12 11v494c0 8 4 12 12 12h59c7.33301 0 11 -4 11 -12v-494c0 -7.33301 -3.66699 -11 -11 -11z
" />
    <glyph glyph-name="Iogonek" unicode="&#x12e;" horiz-adv-x="263" 
d="M151 -128c18 0 33.667 2.66699 47 8c7.33301 2 12 -0.666992 14 -8l9 -42c2 -6 -0.333008 -10.667 -7 -14c-25.333 -10.667 -52 -16 -80 -16c-30 0 -53.667 7.33301 -71 22s-26 35.334 -26 62.001c0 44.667 20 83.667 60 117c-5.33301 1.33301 -8 5.66602 -8 12.999v690
c0 7.33301 3.66699 11 11 11h63c7.33301 0 11 -3.66699 11 -11v-693c0 -7.33301 -3 -11.333 -9 -12c-16.667 -12 -30.167 -26.667 -40.5 -44s-15.5 -33.333 -15.5 -48c0 -23.333 14 -35 42 -35z" />
    <glyph glyph-name="iogonek" unicode="&#x12f;" horiz-adv-x="220" 
d="M202 -179c-26.667 -13.333 -56.333 -20.002 -89 -20.002c-65.333 0 -98 30 -98 90c0 38.667 22.333 75.334 67 110.001h-3c-6.66699 1.33301 -10 5.33301 -10 12v492c0 8 4 12 12 12h59c7.33301 0 11 -4 11 -12v-494c0 -7.33301 -3.66699 -11.333 -11 -12
c-38 -29.333 -57 -58.666 -57 -87.999c0 -26 15.333 -39 46 -39c18 0 36.333 3.66699 55 11c8 3.33301 12.333 1 13 -7l11 -40c2 -7.33301 0 -12.333 -6 -15zM160.001 661.998c0 -14 -4.66699 -25.667 -14 -35s-21 -14 -35 -14s-25.833 4.66699 -35.5 14s-14.5 21 -14.5 35
c0 14.667 4.83301 26.667 14.5 36s21.5 14 35.5 14s25.667 -4.66699 35 -14s14 -21.333 14 -36z" />
    <glyph glyph-name="Idotaccent" unicode="&#x130;" horiz-adv-x="263" 
d="M174 704v-693c0 -7.33301 -3.66699 -11 -11 -11h-62c-8 0 -12 3.66699 -12 11v693c0 7.33301 4 11 12 11h62c7.33301 0 11 -3.66699 11 -11zM187 852c0 -15.333 -5.33301 -28.333 -16 -39s-23.667 -16 -39 -16c-14.667 0 -27.5 5.5 -38.5 16.5s-16.5 23.833 -16.5 38.5
c0 15.333 5.33301 28.333 16 39s23.667 16 39 16s28.333 -5.33301 39 -16s16 -23.667 16 -39z" />
    <glyph glyph-name="dotlessi" unicode="&#x131;" horiz-adv-x="220" 
d="M139 0h-59c-7.33301 0 -11 3.66699 -11 11v494c0 8 3.66699 12 11 12h59c8 0 12 -4 12 -12v-494c0 -7.33301 -4 -11 -12 -11z" />
    <glyph glyph-name="IJ" unicode="&#x132;" horiz-adv-x="776" 
d="M174 704v-693c0 -7.33301 -3.66699 -11 -11 -11h-62c-8 0 -12 3.66699 -12 11v693c0 7.33301 4 11 12 11h62c7.33301 0 11 -3.66699 11 -11zM692 228c0 -76 -19.167 -134.834 -57.5 -176.501s-88.833 -62.5 -151.5 -62.5c-71.333 0 -137 26 -197 78
c-6 4 -6.66699 9.33301 -2 16l28 46c4 6.66699 9.33301 7.33398 16 2.00098c51.333 -40.667 103 -61 155 -61c82.667 0 124 53 124 159v475c0 7.33301 4 11 12 11h62c7.33301 0 11 -3.66699 11 -11v-476z" />
    <glyph glyph-name="ij" unicode="&#x133;" horiz-adv-x="500" 
d="M140 0h-59c-8 0 -12 3.66699 -12 11v494c0 8 4 12 12 12h59c7.33301 0 11 -4 11 -12v-494c0 -7.33301 -3.66699 -11 -11 -11zM160 662c0 -14 -4.66699 -25.667 -14 -35s-21 -14 -35 -14s-25.833 4.66699 -35.5 14s-14.5 21 -14.5 35s4.83301 25.667 14.5 35
s21.5 14 35.5 14s25.667 -4.5 35 -13.5s14 -20.833 14 -35.5zM431 -17c0 -60 -13.001 -105.667 -39.001 -137s-63 -47 -111 -47c-17.333 0 -33.666 1 -48.999 3c-7.33301 0.666992 -11 5 -11 13v50c0 8 4 12 12 12c14 -2 27 -3 39 -3c26 0 45.333 8.33301 58 25
s19 44.667 19 84v522c0 8 4 12 12 12h59c7.33301 0 11 -4 11 -12v-522zM439.999 662c0 -14 -4.66699 -25.667 -14 -35s-21 -14 -35 -14s-25.833 4.66699 -35.5 14s-14.5 21 -14.5 35s4.83301 25.667 14.5 35s21.5 14 35.5 14s25.667 -4.5 35 -13.5s14 -20.833 14 -35.5z" />
    <glyph glyph-name="uni0136" unicode="&#x136;" horiz-adv-x="614" 
d="M163 0h-61.999c-8 0 -12 3.66699 -12 11v693c0 7.33301 4 11 12 11h62c7.33301 0 11 -3.66699 11 -11v-331l309 335c4.66699 4.66699 9.66699 7 15 7h80c5.33301 0 8.66602 -1.5 9.99902 -4.5s0.333008 -6.16699 -3 -9.5l-287 -308l307 -379
c2.66699 -4 3.33398 -7.33301 2.00098 -10s-4.33301 -4 -9 -4h-81c-6.66699 -0 -11.334 2.33301 -14.001 7l-262 326l-67 -69v-253c0 -7.33301 -3.66699 -11 -11 -11zM289.001 -244h-38c-9.33301 0 -13 4 -11 12l37 146c2 6.66699 6.33301 10 13 10h54
c8.66699 0 12 -4.33301 10 -13l-52 -146c-2 -6 -6.33301 -9 -13 -9z" />
    <glyph glyph-name="uni0137" unicode="&#x137;" horiz-adv-x="495" 
d="M481 0h-74c-6 -0 -11 2.33301 -15 7l-190 231l-51 -49v-178c0 -7.33301 -4 -11 -12 -11h-59c-7.33301 0 -11 3.66699 -11 11v693c0 7.33301 3.66699 11 11 11h59c8 0 12 -3.66699 12 -11v-414l226 221c3.33301 4 8 6 14 6h73c4.66699 0 7.5 -1.5 8.5 -4.5
s-0.166992 -6.16699 -3.5 -9.5l-212 -209l230 -280c6.66699 -9.33301 4.66699 -14 -6 -14zM243 -236h-36c-8.66699 0 -12 4 -10 12l34 139c2 6.66699 6.33301 10 13 10h51c8 0 11 -4.33301 9 -13l-48 -139c-2 -6 -6.33301 -9 -13 -9z" />
    <glyph glyph-name="Lacute" unicode="&#x139;" horiz-adv-x="512" 
d="M488 0h-388c-8 0 -12 3.66699 -12 11v693c0 7.33301 4 11 12 11h63c7.33301 0 11 -3.66699 11 -11v-626h314c7.33301 0 11 -3.66699 11 -11v-56c0 -7.33301 -3.66699 -11 -11 -11zM282 925l-121 -133c-4 -4.66699 -8.66699 -7 -14 -7h-52c-10.667 0 -13 4.66699 -7 14
l105 133c2.66699 4.66699 7 7 13 7h70c4.66699 0 7.66699 -1.5 9 -4.5s0.333008 -6.16699 -3 -9.5z" />
    <glyph glyph-name="lacute" unicode="&#x13a;" horiz-adv-x="290" 
d="M273 -8c-16.667 -2 -35.333 -3.00098 -56 -3.00098c-48 0 -85.167 15.833 -111.5 47.5s-39.5 77.167 -39.5 136.5v531c0 7.33301 4 11 12 11h59c7.33301 0 11 -3.66699 11 -11v-532c0 -38 6.5 -65.5 19.5 -82.5s32.5 -25.5 58.5 -25.5c14 0 29 1 45 3
c8 0 12 -3.66699 12 -11v-51c0 -7.33301 -3.33301 -11.666 -10 -12.999zM262.001 924.999l-121 -133c-4 -4.66699 -8.66699 -7 -14 -7h-52c-10.667 0 -13 4.66699 -7 14l105 133c2.66699 4.66699 7 7 13 7h70c4.66699 0 7.66699 -1.5 9 -4.5s0.333008 -6.16699 -3 -9.5z" />
    <glyph glyph-name="uni013B" unicode="&#x13b;" horiz-adv-x="512" 
d="M489 0h-388c-8 0 -12 3.66699 -12 11v693c0 7.33301 4 11 12 11h63c7.33301 0 11 -3.66699 11 -11v-626h314c7.33301 0 11 -3.66699 11 -11v-56c0 -7.33301 -3.66699 -11 -11 -11zM237 -244h-38c-9.33301 0 -13 4 -11 12l37 146c2 6.66699 6.33301 10 13 10h54
c8.66699 0 12 -4.33301 10 -13l-52 -146c-2 -6 -6.33301 -9 -13 -9z" />
    <glyph glyph-name="uni013C" unicode="&#x13c;" horiz-adv-x="290" 
d="M273 -8c-16.667 -2 -35.333 -3.00098 -56 -3.00098c-48 0 -85.167 15.833 -111.5 47.5s-39.5 77.167 -39.5 136.5v531c0 7.33301 4 11 12 11h59c7.33301 0 11 -3.66699 11 -11v-532c0 -38 6.5 -65.5 19.5 -82.5s32.5 -25.5 58.5 -25.5c14 0 29 1 45 3
c8 0 12 -3.66699 12 -11v-51c0 -7.33301 -3.33301 -11.666 -10 -12.999zM172.001 -236.001h-36c-8.66699 0 -12 4 -10 12l34 139c2 6.66699 6.33301 10 13 10h51c8 0 11 -4.33301 9 -13l-48 -139c-2 -6 -6.33301 -9 -13 -9z" />
    <glyph glyph-name="Lcaron" unicode="&#x13d;" horiz-adv-x="512" 
d="M343 538h-45c-9.33301 0 -12.666 4.33301 -9.99902 13l41 154c0.666992 6.66699 4.66699 10 12 10h55c9.33301 0 12.666 -4.33301 9.99902 -13l-51 -155c-1.33301 -6 -5.33301 -9 -12 -9zM489 0h-388c-8 0 -12 3.66699 -12 11v693c0 7.33301 4 11 12 11h63
c7.33301 0 11 -3.66699 11 -11v-626h314c7.33301 0 11 -3.66699 11 -11v-56c0 -7.33301 -3.66699 -11 -11 -11z" />
    <glyph glyph-name="lcaron" unicode="&#x13e;" horiz-adv-x="303" 
d="M269 -8c-16.667 -2 -34 -3.00098 -52 -3.00098c-48.667 0 -86 15.667 -112 47s-39 77 -39 137v531c0 7.33301 3.66699 11 11 11h59c8 0 12 -3.66699 12 -11v-532c0 -38 6.33301 -65.5 19 -82.5s32 -25.5 58 -25.5c13.333 0 27 1 41 3c8.66699 0 13 -3.66699 13 -11v-51
c0 -7.33301 -3.33301 -11.666 -10 -12.999zM260 555.999h-38.002c-9.33301 0 -12.666 4.33301 -9.99902 13l36 136c2 6.66699 6.33301 10 13 10h51c4 0 6.83301 -1.33301 8.5 -4s1.83398 -5.66699 0.500977 -9l-49 -137c-2.66699 -6 -6.66699 -9 -12 -9z" />
    <glyph glyph-name="Ldot" unicode="&#x13f;" horiz-adv-x="512" 
d="M489 0h-388c-8 0 -12 3.66699 -12 11v693c0 7.33301 4 11 12 11h63c7.33301 0 11 -3.66699 11 -11v-626h314c7.33301 0 11 -3.66699 11 -11v-56c0 -7.33301 -3.66699 -11 -11 -11zM393 351c0 -16 -5.16699 -29.167 -15.5 -39.5s-23.5 -15.5 -39.5 -15.5
c-16.667 0 -30 5.16699 -40 15.5s-15 23.5 -15 39.5c0 16.667 5 30.167 15 40.5s23.333 15.5 40 15.5c16 0 29.167 -5.16699 39.5 -15.5s15.5 -23.833 15.5 -40.5z" />
    <glyph glyph-name="ldot" unicode="&#x140;" horiz-adv-x="314" 
d="M269 -8c-16.667 -2 -34 -3.00098 -52 -3.00098c-48.667 0 -86 15.667 -112 47s-39 77 -39 137v531c0 7.33301 3.66699 11 11 11h59c8 0 12 -3.66699 12 -11v-532c0 -38 6.33301 -65.5 19 -82.5s32 -25.5 58 -25.5c13.333 0 27 1 41 3c8.66699 0 13 -3.66699 13 -11v-51
c0 -7.33301 -3.33301 -11.666 -10 -12.999zM312 362.999c0 -14.667 -4.66699 -26.834 -14 -36.501s-21.333 -14.5 -36 -14.5c-15.333 0 -27.833 4.83301 -37.5 14.5s-14.5 21.834 -14.5 36.501c0 15.333 4.83301 27.666 14.5 36.999s22.167 14 37.5 14
c14.667 0 26.667 -4.66699 36 -14s14 -21.666 14 -36.999z" />
    <glyph glyph-name="Lslash" unicode="&#x141;" horiz-adv-x="530" 
d="M193 335v-257h314c7.33301 0 11 -3.66699 11 -11v-56c0 -7.33301 -3.66699 -11 -11 -11h-388c-7.33301 0 -11 3.66699 -11 11v269l-82 -53c-9.33301 -6 -14 -3.66699 -14 7v54c0 5.33301 2.33301 10 7 14l89 57v345c0 7.33301 3.66699 11 11 11h62
c8 0 12 -3.66699 12 -11v-290l135 88c9.33301 6 14 3.66699 14 -7v-54c0 -5.33301 -2.33301 -10 -7 -14z" />
    <glyph glyph-name="lslash" unicode="&#x142;" horiz-adv-x="357" 
d="M306 -8c-16 -2 -33 -3.00098 -51 -3.00098c-48.667 0 -86 15.667 -112 47s-39 77 -39 137v89l-64 -45c-4 -2.66699 -7.33301 -3.16699 -10 -1.5s-4 4.5 -4 8.5v53c0 5.33301 2.33301 10 7 14l71 50v363c0 7.33301 3.66699 11 11 11h59c8 0 12 -3.66699 12 -11v-305
l112 80c3.33301 2.66699 6.33301 3.33398 9 2.00098s4 -4.33301 4 -9v-53c0 -4.66699 -2.33301 -9 -7 -13l-118 -85v-149c0 -38 6.33301 -65.5 19 -82.5s32 -25.5 58 -25.5c13.333 0 27 1 41 3c8 0 12 -3.66699 12 -11v-51c0 -8 -3.33301 -12.333 -10 -13z" />
    <glyph glyph-name="Nacute" unicode="&#x143;" horiz-adv-x="704" 
d="M162 0l-60.999 0.00195312c-8 0 -12 3.66699 -12 11v693c0 7.33301 4 11 12 11h70c6 0 10.667 -2.66699 14 -8l265 -432c45.333 -76.667 73.333 -125.334 84 -146.001l3 1c-4 83.333 -6 173.666 -6 270.999v303c0 7.33301 3.66699 11 11 11h62
c7.33301 0 11 -3.66699 11 -11v-693c0 -7.33301 -3.66699 -11 -11 -11h-70c-6.66699 -0 -11.334 2.33301 -14.001 7l-263 417c-33.333 54 -62.333 104.667 -87 152l-2 -1c4 -105.333 6 -192.333 6 -261v-303c0 -7.33301 -4 -11 -12 -11zM490.001 925.002l-121 -133
c-4 -4.66699 -8.66699 -7 -14 -7h-52c-10.667 0 -13 4.66699 -7 14l105 133c2.66699 4.66699 7 7 13 7h70c4.66699 0 7.66699 -1.5 9 -4.5s0.333008 -6.16699 -3 -9.5z" />
    <glyph glyph-name="nacute" unicode="&#x144;" horiz-adv-x="557" 
d="M138 0l-59.001 -0.00195312c-7.33301 0 -11 3.66699 -11 11v464c0 6.66699 2.66699 11.334 8 14.001c62 26 126 39 192 39c70 0 125 -17.667 165 -53s60 -89.666 60 -162.999v-301c0 -7.33301 -4 -11 -12 -11h-59c-7.33301 0 -11 3.66699 -11 11v299
c0 96 -47.667 144 -143 144c-41.333 0 -80.666 -6 -117.999 -18v-425c0 -7.33301 -4 -11 -12 -11zM261.999 596.998h-45c-4.66699 0 -8 1.33301 -10 4s-1.66699 6 1 10l81 133c3.33301 4.66699 8 7 14 7h63c10.667 0 12.667 -4.66699 6 -14l-96 -133
c-3.33301 -4.66699 -8 -7 -14 -7z" />
    <glyph glyph-name="uni0145" unicode="&#x145;" horiz-adv-x="704" 
d="M162 0l-60.999 0.00195312c-8 0 -12 3.66699 -12 11v693c0 7.33301 4 11 12 11h70c6 0 10.667 -2.66699 14 -8l265 -432c45.333 -76.667 73.333 -125.334 84 -146.001l3 1c-4 83.333 -6 173.666 -6 270.999v303c0 7.33301 3.66699 11 11 11h62
c7.33301 0 11 -3.66699 11 -11v-693c0 -7.33301 -3.66699 -11 -11 -11h-70c-6.66699 -0 -11.334 2.33301 -14.001 7l-263 417c-33.333 54 -62.333 104.667 -87 152l-2 -1c4 -105.333 6 -192.333 6 -261v-303c0 -7.33301 -4 -11 -12 -11zM331.001 -243.998h-38
c-9.33301 0 -13 4 -11 12l37 146c2 6.66699 6.33301 10 13 10h54c8.66699 0 12 -4.33301 10 -13l-52 -146c-2 -6 -6.33301 -9 -13 -9z" />
    <glyph glyph-name="uni0146" unicode="&#x146;" horiz-adv-x="557" 
d="M138 0l-59.001 -0.00195312c-7.33301 0 -11 3.66699 -11 11v464c0 6.66699 2.66699 11.334 8 14.001c62 26 126 39 192 39c70 0 125 -17.667 165 -53s60 -89.666 60 -162.999v-301c0 -7.33301 -4 -11 -12 -11h-59c-7.33301 0 -11 3.66699 -11 11v299
c0 96 -47.667 144 -143 144c-41.333 0 -80.666 -6 -117.999 -18v-425c0 -7.33301 -4 -11 -12 -11zM259.999 -236.002h-36c-8.66699 0 -12 4 -10 12l34 139c2 6.66699 6.33301 10 13 10h51c8 0 11 -4.33301 9 -13l-48 -139c-2 -6 -6.33301 -9 -13 -9z" />
    <glyph glyph-name="Ncaron" unicode="&#x147;" horiz-adv-x="704" 
d="M162 0l-60.999 0.00195312c-8 0 -12 3.66699 -12 11v693c0 7.33301 4 11 12 11h70c6 0 10.667 -2.66699 14 -8l265 -432c45.333 -76.667 73.333 -125.334 84 -146.001l3 1c-4 83.333 -6 173.666 -6 270.999v303c0 7.33301 3.66699 11 11 11h62
c7.33301 0 11 -3.66699 11 -11v-693c0 -7.33301 -3.66699 -11 -11 -11h-70c-6.66699 -0 -11.334 2.33301 -14.001 7l-263 417c-33.333 54 -62.333 104.667 -87 152l-2 -1c4 -105.333 6 -192.333 6 -261v-303c0 -7.33301 -4 -11 -12 -11zM196.001 939.002h59.001
c5.33301 0 10 -2.33301 14 -7l84 -86l84 86c4 4.66699 8.66699 7 14 7h59c4.66699 0 7.66699 -1.5 9 -4.5s0.333008 -6.16699 -3 -9.5l-123 -133c-4.66699 -4.66699 -9.33398 -7 -14.001 -7h-52c-5.33301 0 -10 2.33301 -14 7l-123 133
c-3.33301 3.33301 -4.33301 6.5 -3 9.5s4.33301 4.5 9 4.5z" />
    <glyph glyph-name="ncaron" unicode="&#x148;" horiz-adv-x="557" 
d="M138 0l-59.001 -0.00195312c-7.33301 0 -11 3.66699 -11 11v464c0 6.66699 2.66699 11.334 8 14.001c62 26 126 39 192 39c70 0 125 -17.667 165 -53s60 -89.666 60 -162.999v-301c0 -7.33301 -4 -11 -12 -11h-59c-7.33301 0 -11 3.66699 -11 11v299
c0 96 -47.667 144 -143 144c-41.333 0 -80.666 -6 -117.999 -18v-425c0 -7.33301 -4 -11 -12 -11zM129.999 750.998h50.001c4.66699 0 9.33398 -2.33301 14.001 -7l78 -91l76 91c3.33301 4.66699 8 7 14 7h52c4.66699 0 7.5 -1.33301 8.5 -4s-0.166992 -6 -3.5 -10
l-112 -133c-3.33301 -4.66699 -8 -7 -14 -7h-43c-4.66699 0 -9.33398 2.33301 -14.001 7l-113 133c-3.33301 4 -4.33301 7.33301 -3 10s4.66602 4 9.99902 4z" />
    <glyph glyph-name="Eng" unicode="&#x14a;" horiz-adv-x="704" 
d="M531 371l0.00292969 333.004c0 7.33301 3.66699 11 11 11h62c7.33301 0 11 -3.66699 11 -11v-710c0 -68.667 -12 -118.334 -36 -149.001s-61.667 -46 -113 -46c-15.333 0 -30 1 -44 3c-7.33301 0.666992 -11 4.66699 -11 12v53c0 7.33301 4 11 12 11
c17.333 -1.33301 28.666 -2 33.999 -2c27.333 0 46.666 9.16699 57.999 27.5s17.333 48.166 18 89.499l-268 420c-30.667 47.333 -62.334 101.666 -95.001 162.999l-2 -2c4 -94.667 6 -170.334 6 -227.001v-336c0 -7.33301 -4 -11 -12 -11h-61c-8 0 -12 3.66699 -12 11v693
c0 7.33301 4 11 12 11h70c6 0 10.667 -2.66699 14 -8l253 -415c40.667 -66.667 72.667 -121 96 -163l3 2c-4 75.333 -6 155.333 -6 240z" />
    <glyph glyph-name="eng" unicode="&#x14b;" horiz-adv-x="557" 
d="M493 -11c0 -126 -49.334 -189.001 -148.001 -189.001c-17.333 0 -32.666 1.33301 -45.999 4c-7.33301 0.666992 -11 4.66699 -11 12v51c0 7.33301 4 11 12 11c14 -2 26 -3 36 -3c50 0 75 38 75 114v321c0 96 -47.667 144 -143 144c-44.667 0 -84 -6 -118 -18v-425
c0 -7.33301 -4 -11 -12 -11h-59c-7.33301 0 -11 3.66699 -11 11v464c0 6 2.33301 10.333 7 13c60.667 26.667 125 40 193 40c70 0 125 -17.667 165 -53s60 -89.666 60 -162.999v-323z" />
    <glyph glyph-name="Omacron" unicode="&#x14c;" horiz-adv-x="674" 
d="M610 251c0 -80.667 -24.333 -144.5 -73 -191.5s-115.334 -70.5 -200.001 -70.5s-151.334 23.5 -200.001 70.5s-73 110.833 -73 191.5v211c0 82 24.333 146.5 73 193.5s115.334 70.5 200.001 70.5s151.334 -23.5 200.001 -70.5s73 -111.5 73 -193.5v-211zM150 251
c0 -56.667 16.333 -101 49 -133s78.667 -48 138 -48s105.166 16 137.499 48s48.5 76.333 48.5 133v211c0 58.667 -16.167 104.167 -48.5 136.5s-78.166 48.5 -137.499 48.5s-105.333 -16.167 -138 -48.5s-49 -77.833 -49 -136.5v-211zM472 811h-272
c-7.33301 0 -11 3.66699 -11 11v45c0 8 3.66699 12 11 12h272c7.33301 0 11 -4 11 -12v-45c0 -7.33301 -3.66699 -11 -11 -11z" />
    <glyph glyph-name="omacron" unicode="&#x14d;" horiz-adv-x="540" 
d="M490 185c0 -59.333 -19.833 -106.833 -59.5 -142.5s-93.167 -53.5 -160.5 -53.5s-120.833 18 -160.5 54s-59.5 83.333 -59.5 142v144c0 59.333 20 107.333 60 144s93.333 55 160 55c67.333 0 120.833 -18.333 160.5 -55s59.5 -84.667 59.5 -144v-144zM133 185
c0 -38 11.833 -68 35.5 -90s57.5 -33 101.5 -33s78 11 102 33s36 52 36 90v144c0 38.667 -12 69.167 -36 91.5s-58 33.5 -102 33.5s-77.833 -11.167 -101.5 -33.5s-35.5 -52.833 -35.5 -91.5v-144zM133 631v43c0 8 3.66699 12 11 12h252c7.33301 0 11 -4 11 -12v-43
c0 -7.33301 -3.66699 -11 -11 -11h-252c-7.33301 0 -11 3.66699 -11 11z" />
    <glyph glyph-name="Ohungarumlaut" unicode="&#x150;" horiz-adv-x="674" 
d="M610 251c0 -80.667 -24.333 -144.5 -73 -191.5s-115.334 -70.5 -200.001 -70.5s-151.334 23.5 -200.001 70.5s-73 110.833 -73 191.5v211c0 82 24.333 146.5 73 193.5s115.334 70.5 200.001 70.5s151.334 -23.5 200.001 -70.5s73 -111.5 73 -193.5v-211zM150 251
c0 -56.667 16.333 -101 49 -133s78.667 -48 138 -48s105.166 16 137.499 48s48.5 76.333 48.5 133v211c0 58.667 -16.167 104.167 -48.5 136.5s-78.166 48.5 -137.499 48.5s-105.333 -16.167 -138 -48.5s-49 -77.833 -49 -136.5v-211zM251 785h-53.002
c-10.667 0 -13 4.66699 -7 14l102 132c3.33301 5.33301 8 8 14 8h67c4.66699 0 7.83398 -1.5 9.50098 -4.5s0.833984 -6.16699 -2.49902 -9.5l-116 -133c-4 -4.66699 -8.66699 -7 -14 -7zM433.998 785h-52.001c-4.66699 0 -7.66699 1.5 -9 4.5
s-0.666016 6.16699 2.00098 9.5l107 133c3.33301 4.66699 8 7 14 7h68c4.66699 0 7.66699 -1.5 9 -4.5s0.333008 -6.16699 -3 -9.5l-122 -134c-3.33301 -4 -8 -6 -14 -6z" />
    <glyph glyph-name="ohungarumlaut" unicode="&#x151;" horiz-adv-x="540" 
d="M490 185c0 -59.333 -19.833 -106.833 -59.5 -142.5s-93.167 -53.5 -160.5 -53.5s-120.833 18 -160.5 54s-59.5 83.333 -59.5 142v144c0 59.333 20 107.333 60 144s93.333 55 160 55c67.333 0 120.833 -18.333 160.5 -55s59.5 -84.667 59.5 -144v-144zM133 185
c0 -38 11.833 -68 35.5 -90s57.5 -33 101.5 -33s78 11 102 33s36 52 36 90v144c0 38.667 -12 69.167 -36 91.5s-58 33.5 -102 33.5s-77.833 -11.167 -101.5 -33.5s-35.5 -52.833 -35.5 -91.5v-144zM199 597h-36c-10.667 0 -13.667 4.66699 -9 14l72 132
c4 5.33301 8.66699 8 14 8h50c10.667 0 13 -4.66699 7 -14l-84 -133c-4 -4.66699 -8.66699 -7 -14 -7zM343 597h-36.001c-10 0 -12.667 4.66699 -8 14l79 133c3.33301 4.66699 8 7 14 7h50c4.66699 0 7.83398 -1.33301 9.50098 -4s1.16699 -6 -1.5 -10l-93 -133
c-3.33301 -4.66699 -8 -7 -14 -7z" />
    <glyph glyph-name="OE" unicode="&#x152;" horiz-adv-x="979" 
d="M516 0c-8 0 -12 3.66699 -12 11v52c-44 -49.333 -102 -74 -174 -74c-76 0 -139.333 22.333 -190 67s-76 109 -76 193v217c0 84 25.333 148.333 76 193s114 67 190 67c71.333 0 129.333 -25.333 174 -76v54c0 7.33301 4 11 12 11h388c7.33301 0 11 -3.66699 11 -11v-58
c0 -8 -3.66699 -12 -11 -12h-313v-233h290c8 0 12 -3.66699 12 -11v-58c0 -7.33301 -4 -11 -12 -11h-290v-240h327c8 0 12 -4 12 -12v-58c0 -7.33301 -4 -11 -12 -11h-402zM152 249c0 -59.333 16.667 -104.5 50 -135.5s76 -46.5 128 -46.5c50 0 91.333 15.333 124 46
s49 75 49 133v223c0 59.333 -16.167 104 -48.5 134s-73.833 45 -124.5 45c-52.667 0 -95.5 -15.167 -128.5 -45.5s-49.5 -75.833 -49.5 -136.5v-217z" />
    <glyph glyph-name="oe" unicode="&#x153;" horiz-adv-x="874" 
d="M618 -11c-34.667 0 -67.333 6.83301 -98 20.5s-55 33.167 -73 58.5c-38.667 -52.667 -97.667 -79 -177 -79c-67.333 0 -120.833 18 -160.5 54s-59.5 83.333 -59.5 142v144c0 59.333 20 107.333 60 144s93.333 55 160 55c78 0 137.333 -27.333 178 -82
c38 54.667 95 82 171 82c58.667 0 108.167 -17 148.5 -51s60.5 -83.333 60.5 -148v-98c0 -8 -3.66699 -12 -11 -12h-327v-42c0 -36 12.167 -64 36.5 -84s55.5 -30 93.5 -30c54.667 0 105.334 19 152.001 57c6.66699 4 12 3 16 -3l31 -39
c5.33301 -6 4.66602 -11.667 -2.00098 -17c-58.667 -48 -125 -72 -199 -72zM133.001 185c0 -38 11.832 -68.001 35.499 -90.001s57.5 -33 101.5 -33c44.667 0 78.834 10.833 102.501 32.5s35.5 51.834 35.5 90.501v144c0 38.667 -12 69.167 -36 91.5s-58 33.5 -102 33.5
s-77.833 -11.167 -101.5 -33.5s-35.5 -52.833 -35.5 -91.5v-144zM490 328.999v-42h258v42c0 40.667 -11.833 71.667 -35.5 93s-54.834 32 -93.501 32c-39.333 0 -70.666 -10.5 -93.999 -31.5s-35 -52.167 -35 -93.5z" />
    <glyph glyph-name="Racute" unicode="&#x154;" horiz-adv-x="631" 
d="M586 0l-78.001 0.00195312c-6.66699 0 -11.334 2.33301 -14.001 7l-199 272h-121v-268c0 -7.33301 -3.66699 -11 -11 -11h-62c-8 0 -12 3.66699 -12 11v693c0 7.33301 4 11 12 11h225c78.667 0 140.334 -19.333 185.001 -58s67 -92.334 67 -161.001
c0 -56.667 -16.5 -103.334 -49.5 -140.001s-79.167 -60 -138.5 -70l203 -272c2.66699 -4 3.33398 -7.33301 2.00098 -10s-4.33301 -4 -9 -4zM326.999 637.002h-153v-281h153c109.333 0 164 46.667 164 140c0 94 -54.667 141 -164 141zM449.999 925.002l-121 -133
c-4 -4.66699 -8.66699 -7 -14 -7h-52c-10.667 0 -13 4.66699 -7 14l105 133c2.66699 4.66699 7 7 13 7h70c4.66699 0 7.66699 -1.5 9 -4.5s0.333008 -6.16699 -3 -9.5z" />
    <glyph glyph-name="racute" unicode="&#x155;" horiz-adv-x="377" 
d="M138 0h-59c-7.33301 0 -11 3.66699 -11 11v467c0 6.66699 2.66699 11 8 13c51.333 24.667 108.333 37 171 37c30 0 64.333 -2.66699 103 -8c6.66699 -0.666992 10 -5 10 -13v-49c0 -8.66699 -4 -12 -12 -10c-32.667 4.66699 -62.667 7 -90 7
c-39.333 0 -75.333 -6.66699 -108 -20v-424c0 -7.33301 -4 -11 -12 -11zM214 597h-45c-4.66699 0 -8 1.33301 -10 4s-1.66699 6 1 10l81 133c3.33301 4.66699 8 7 14 7h63c10.667 0 12.667 -4.66699 6 -14l-96 -133c-3.33301 -4.66699 -8 -7 -14 -7z" />
    <glyph glyph-name="uni0156" unicode="&#x156;" horiz-adv-x="631" 
d="M586 0l-78.001 0.00195312c-6.66699 0 -11.334 2.33301 -14.001 7l-199 272h-121v-268c0 -7.33301 -3.66699 -11 -11 -11h-62c-8 0 -12 3.66699 -12 11v693c0 7.33301 4 11 12 11h225c78.667 0 140.334 -19.333 185.001 -58s67 -92.334 67 -161.001
c0 -56.667 -16.5 -103.334 -49.5 -140.001s-79.167 -60 -138.5 -70l203 -272c2.66699 -4 3.33398 -7.33301 2.00098 -10s-4.33301 -4 -9 -4zM326.999 637.002h-153v-281h153c109.333 0 164 46.667 164 140c0 94 -54.667 141 -164 141zM294.999 -243.998h-38
c-9.33301 0 -13 4 -11 12l37 146c2 6.66699 6.33301 10 13 10h54c8.66699 0 12 -4.33301 10 -13l-52 -146c-2 -6 -6.33301 -9 -13 -9z" />
    <glyph glyph-name="uni0157" unicode="&#x157;" horiz-adv-x="377" 
d="M138 0h-59c-7.33301 0 -11 3.66699 -11 11v467c0 6.66699 2.66699 11 8 13c51.333 24.667 108.333 37 171 37c30 0 64.333 -2.66699 103 -8c6.66699 -0.666992 10 -5 10 -13v-49c0 -8.66699 -4 -12 -12 -10c-32.667 4.66699 -62.667 7 -90 7
c-39.333 0 -75.333 -6.66699 -108 -20v-424c0 -7.33301 -4 -11 -12 -11zM97 -236h-36c-8.66699 0 -12 4 -10 12l34 139c2 6.66699 6.33301 10 13 10h51c8 0 11 -4.33301 9 -13l-48 -139c-2 -6 -6.33301 -9 -13 -9z" />
    <glyph glyph-name="Rcaron" unicode="&#x158;" horiz-adv-x="631" 
d="M586 0l-78.001 0.00195312c-6.66699 0 -11.334 2.33301 -14.001 7l-199 272h-121v-268c0 -7.33301 -3.66699 -11 -11 -11h-62c-8 0 -12 3.66699 -12 11v693c0 7.33301 4 11 12 11h225c78.667 0 140.334 -19.333 185.001 -58s67 -92.334 67 -161.001
c0 -56.667 -16.5 -103.334 -49.5 -140.001s-79.167 -60 -138.5 -70l203 -272c2.66699 -4 3.33398 -7.33301 2.00098 -10s-4.33301 -4 -9 -4zM326.999 637.002h-153v-281h153c109.333 0 164 46.667 164 140c0 94 -54.667 141 -164 141zM150.999 939.002h59.001
c5.33301 0 10 -2.33301 14 -7l84 -86l84 86c4 4.66699 8.66699 7 14 7h59c4.66699 0 7.66699 -1.5 9 -4.5s0.333008 -6.16699 -3 -9.5l-123 -133c-4.66699 -4.66699 -9.33398 -7 -14.001 -7h-52c-5.33301 0 -10 2.33301 -14 7l-123 133
c-3.33301 3.33301 -4.33301 6.5 -3 9.5s4.33301 4.5 9 4.5z" />
    <glyph glyph-name="rcaron" unicode="&#x159;" horiz-adv-x="377" 
d="M138 0h-59c-7.33301 0 -11 3.66699 -11 11v467c0 6.66699 2.66699 11 8 13c51.333 24.667 108.333 37 171 37c30 0 64.333 -2.66699 103 -8c6.66699 -0.666992 10 -5 10 -13v-49c0 -8.66699 -4 -12 -12 -10c-32.667 4.66699 -62.667 7 -90 7
c-39.333 0 -75.333 -6.66699 -108 -20v-424c0 -7.33301 -4 -11 -12 -11zM74 751h50.001c4.66699 0 9.33398 -2.33301 14.001 -7l78 -91l76 91c3.33301 4.66699 8 7 14 7h52c4.66699 0 7.5 -1.33301 8.5 -4s-0.166992 -6 -3.5 -10l-112 -133c-3.33301 -4.66699 -8 -7 -14 -7
h-43c-4.66699 0 -9.33398 2.33301 -14.001 7l-113 133c-6.66699 9.33301 -4.33398 14 6.99902 14z" />
    <glyph glyph-name="Sacute" unicode="&#x15a;" horiz-adv-x="606" 
d="M564 194c0 -68 -24.6641 -119.165 -73.9971 -153.498s-112 -51.5 -188 -51.5c-48 0 -91.5 7.66699 -130.5 23s-78.833 39.333 -119.5 72c-5.33301 4.66699 -6 10 -2 16l34 47c4.66699 6.66699 9.66699 7.66699 15 3c69.333 -52.667 138 -79.334 206 -80.001
c49.333 0 90.5 10.333 123.5 31s49.5 51 49.5 91c0 38.667 -15 67.167 -45 85.5s-77.333 34.5 -142 48.5c-33.333 7.33301 -63 16 -89 26s-51 23 -75 39s-42.5 36.333 -55.5 61s-19.5 53 -19.5 85c0 62.667 24 109.834 72 141.501s109 47.5 183 47.5
c81.333 0 159 -26.667 233 -80c6.66699 -4 7.66699 -9 3 -15l-33 -47c-4 -6 -9.33301 -6.66699 -16 -2c-60 41.333 -124.667 63 -194 65c-48.667 0 -87.834 -9.83301 -117.501 -29.5s-44.5 -47.167 -44.5 -82.5s14.333 -62 43 -80s72.667 -33.667 132 -47
c30 -6.66699 55.833 -13.334 77.5 -20.001s44.167 -15.834 67.5 -27.501s42.166 -24.5 56.499 -38.5s26.166 -32 35.499 -54s14 -46.667 14 -74zM437.003 925.002l-121 -133c-4 -4.66699 -8.66699 -7 -14 -7h-52c-10.667 0 -13 4.66699 -7 14l105 133
c2.66699 4.66699 7 7 13 7h70c4.66699 0 7.66699 -1.5 9 -4.5s0.333008 -6.16699 -3 -9.5z" />
    <glyph glyph-name="sacute" unicode="&#x15b;" horiz-adv-x="475" 
d="M441 146c0 -49.333 -18.665 -87.832 -55.998 -115.499s-86.333 -41.5 -147 -41.5c-74 0 -140 21.333 -198 64c-5.33301 3.33301 -6.33301 8.66602 -3 15.999l27 46c4 6.66699 9.33301 7.66699 16 3c50 -37.333 103.333 -56 160 -56c34.667 0 63 7 85 21s33 33.667 33 59
c0 17.333 -6.66699 31.833 -20 43.5s-26.833 19.5 -40.5 23.5s-32.834 8.33301 -57.501 13c-19.333 4 -35.5 7.66699 -48.5 11s-29.667 9.33301 -50 18s-36.833 18.167 -49.5 28.5s-23.667 24.333 -33 42s-14 37.5 -14 59.5c0 48 19.167 84.5 57.5 109.5
s84.833 37.5 139.5 37.5c60.667 0 118.667 -15.667 174 -47c7.33301 -3.33301 8.66602 -8.33301 3.99902 -15l-27 -45c-3.33301 -7.33301 -8.33301 -8.66602 -15 -3.99902c-46 24.667 -92.667 37 -140 37c-34.667 0 -62 -6.5 -82 -19.5s-30 -30.833 -30 -53.5
c0 -24.667 10.833 -42.667 32.5 -54s54.167 -21.333 97.5 -30c21.333 -4 38.333 -7.66699 51 -11s28.667 -9 48 -17s34.333 -16.833 45 -26.5s20.167 -22.834 28.5 -39.501s12.5 -35.667 12.5 -57zM227.002 597.001h-45c-4.66699 0 -8 1.33301 -10 4s-1.66699 6 1 10l81 133
c3.33301 4.66699 8 7 14 7h63c4.66699 0 7.5 -1.33301 8.5 -4s0.166992 -6 -2.5 -10l-96 -133c-3.33301 -4.66699 -8 -7 -14 -7z" />
    <glyph glyph-name="Scedilla" unicode="&#x15e;" horiz-adv-x="606" 
d="M413 -121c0 -27.333 -10.665 -48.499 -31.998 -63.499s-50 -22.5 -86 -22.5c-21.333 0 -41 3 -59 9c-6 2 -9 6.33301 -9 13v25c0 8.66699 4.33301 12 13 10c14.667 -4.66699 30 -7 46 -7c38.667 0 58.334 13 59.001 39c1.33301 24 -20 36.333 -64 37
c-6.66699 0 -11.334 2.66699 -14.001 8c-1.33301 3.33301 -1 7 1 11l21 52c-84 2.66699 -163 34 -237 94c-5.33301 4.66699 -6 10 -2 16l34 47c4.66699 6.66699 9.66699 7.66699 15 3c68.667 -52 137.334 -78.333 206.001 -79c49.333 0 90.5 10.167 123.5 30.5
s49.5 50.5 49.5 90.5c0 38.667 -15 67.167 -45 85.5s-77.333 34.5 -142 48.5c-33.333 7.33301 -63 16 -89 26s-51 23 -75 39s-42.5 36.333 -55.5 61s-19.5 53 -19.5 85c0 62.667 24 109.834 72 141.501s109 47.5 183 47.5c81.333 0 159 -26.667 233 -80
c6.66699 -4 7.66699 -9 3 -15l-33 -47c-4 -6 -9.33301 -6.66699 -16 -2c-60 41.333 -124.667 63 -194 65c-48.667 0 -87.834 -9.83301 -117.501 -29.5s-44.5 -47.167 -44.5 -82.5s14.333 -62 43 -80s72.667 -33.667 132 -47c30 -6.66699 55.833 -13.334 77.5 -20.001
s44.167 -15.834 67.5 -27.501s42.166 -24.5 56.499 -38.5s26.166 -32 35.499 -54s14 -46.667 14 -74c0 -61.333 -20.5 -108.833 -61.5 -142.5s-94.5 -53.5 -160.5 -59.5v-2l-17 -41c26.667 -1.33301 48 -8.33301 64 -21s24 -29 24 -49z" />
    <glyph glyph-name="scedilla" unicode="&#x15f;" horiz-adv-x="475" 
d="M344 -122c0 -26.667 -10.4971 -47.166 -31.4971 -61.499s-49.167 -21.5 -84.5 -21.5c-20.667 0 -40 3 -58 9c-6 2 -9 6.33301 -9 13v24c0 8 4.33301 11.333 13 10c14.667 -4.66699 29.667 -7 45 -7c40 0 60 13 60 39c0 24 -21 36.333 -63 37
c-6.66699 0 -11.334 2.66699 -14.001 8c-1.33301 2.66699 -1 6.33398 1 11.001l20 50c-68 3.33301 -129 24.666 -183 63.999c-5.33301 3.33301 -6.33301 8.66602 -3 15.999l27 46c4 6.66699 9.33301 7.66699 16 3c50 -37.333 103.333 -56 160 -56c34.667 0 63 7 85 21
s33 33.667 33 59c0 17.333 -6.66699 31.833 -20 43.5s-26.833 19.5 -40.5 23.5s-32.834 8.33301 -57.501 13c-19.333 4 -35.5 7.66699 -48.5 11s-29.667 9.33301 -50 18s-36.833 18.167 -49.5 28.5s-23.667 24.333 -33 42s-14 37.5 -14 59.5c0 48 19.167 84.5 57.5 109.5
s84.833 37.5 139.5 37.5c60.667 0 118.667 -15.667 174 -47c7.33301 -3.33301 8.66602 -8.33301 3.99902 -15l-27 -45c-3.33301 -7.33301 -8.33301 -8.66602 -15 -3.99902c-46 24.667 -92.667 37 -140 37c-34.667 0 -62 -6.5 -82 -19.5s-30 -30.833 -30 -53.5
c0 -24.667 10.833 -42.667 32.5 -54s54.167 -21.333 97.5 -30c21.333 -4 38.333 -7.66699 51 -11s28.667 -9 48 -17s34.333 -16.833 45 -26.5s20.167 -22.834 28.5 -39.501s12.5 -35.667 12.5 -57c0 -44 -15.167 -79.5 -45.5 -106.5s-70.5 -43.167 -120.5 -48.5l-17 -41
c26 -1.33301 46.833 -8.5 62.5 -21.5s23.5 -29.833 23.5 -50.5z" />
    <glyph glyph-name="Scaron" unicode="&#x160;" horiz-adv-x="606" 
d="M564 194c0 -68 -24.6641 -119.165 -73.9971 -153.498s-112 -51.5 -188 -51.5c-48 0 -91.5 7.66699 -130.5 23s-78.833 39.333 -119.5 72c-5.33301 4.66699 -6 10 -2 16l34 47c4.66699 6.66699 9.66699 7.66699 15 3c69.333 -52.667 138 -79.334 206 -80.001
c49.333 0 90.5 10.333 123.5 31s49.5 51 49.5 91c0 38.667 -15 67.167 -45 85.5s-77.333 34.5 -142 48.5c-33.333 7.33301 -63 16 -89 26s-51 23 -75 39s-42.5 36.333 -55.5 61s-19.5 53 -19.5 85c0 62.667 24 109.834 72 141.501s109 47.5 183 47.5
c81.333 0 159 -26.667 233 -80c6.66699 -4 7.66699 -9 3 -15l-33 -47c-4 -6 -9.33301 -6.66699 -16 -2c-60 41.333 -124.667 63 -194 65c-48.667 0 -87.834 -9.83301 -117.501 -29.5s-44.5 -47.167 -44.5 -82.5s14.333 -62 43 -80s72.667 -33.667 132 -47
c30 -6.66699 55.833 -13.334 77.5 -20.001s44.167 -15.834 67.5 -27.501s42.166 -24.5 56.499 -38.5s26.166 -32 35.499 -54s14 -46.667 14 -74zM145.003 939.002h59.001c5.33301 0 10 -2.33301 14 -7l84 -86l84 86c4 4.66699 8.66699 7 14 7h59
c4.66699 0 7.66699 -1.5 9 -4.5s0.333008 -6.16699 -3 -9.5l-123 -133c-4.66699 -4.66699 -9.33398 -7 -14.001 -7h-52c-5.33301 0 -10 2.33301 -14 7l-123 133c-3.33301 3.33301 -4.33301 6.5 -3 9.5s4.33301 4.5 9 4.5z" />
    <glyph glyph-name="scaron" unicode="&#x161;" horiz-adv-x="475" 
d="M441 146c0 -49.333 -18.665 -87.832 -55.998 -115.499s-86.333 -41.5 -147 -41.5c-74 0 -140 21.333 -198 64c-5.33301 3.33301 -6.33301 8.66602 -3 15.999l27 46c4 6.66699 9.33301 7.66699 16 3c50 -37.333 103.333 -56 160 -56c34.667 0 63 7 85 21s33 33.667 33 59
c0 17.333 -6.66699 31.833 -20 43.5s-26.833 19.5 -40.5 23.5s-32.834 8.33301 -57.501 13c-19.333 4 -35.5 7.66699 -48.5 11s-29.667 9.33301 -50 18s-36.833 18.167 -49.5 28.5s-23.667 24.333 -33 42s-14 37.5 -14 59.5c0 48 19.167 84.5 57.5 109.5
s84.833 37.5 139.5 37.5c60.667 0 118.667 -15.667 174 -47c7.33301 -3.33301 8.66602 -8.33301 3.99902 -15l-27 -45c-3.33301 -7.33301 -8.33301 -8.66602 -15 -3.99902c-46 24.667 -92.667 37 -140 37c-34.667 0 -62 -6.5 -82 -19.5s-30 -30.833 -30 -53.5
c0 -24.667 10.833 -42.667 32.5 -54s54.167 -21.333 97.5 -30c21.333 -4 38.333 -7.66699 51 -11s28.667 -9 48 -17s34.333 -16.833 45 -26.5s20.167 -22.834 28.5 -39.501s12.5 -35.667 12.5 -57zM97.002 751.001h50.001c4.66699 0 9.33398 -2.33301 14.001 -7l78 -91
l76 91c3.33301 4.66699 8 7 14 7h52c4.66699 0 7.5 -1.33301 8.5 -4s-0.166992 -6 -3.5 -10l-112 -133c-3.33301 -4.66699 -8 -7 -14 -7h-43c-4.66699 0 -9.33398 2.33301 -14.001 7l-113 133c-6.66699 9.33301 -4.33398 14 6.99902 14z" />
    <glyph glyph-name="uni0162" unicode="&#x162;" horiz-adv-x="561" 
d="M258 -244h-38c-9.33301 0 -13 4 -11 12l37 146c2 6.66699 6.33301 10 13 10h54c8.66699 0 12 -4.33301 10 -13l-52 -146c-2 -6 -6.33301 -9 -13 -9zM23 715h514c8 0 12 -3.66699 12 -11v-56c0 -7.33301 -4 -11 -12 -11h-214v-626c0 -7.33301 -4 -11 -12 -11h-62
c-8 0 -12 3.66699 -12 11v626h-214c-7.33301 0 -11 3.66699 -11 11v56c0 7.33301 3.66699 11 11 11z" />
    <glyph glyph-name="uni0163" unicode="&#x163;" horiz-adv-x="321" 
d="M176 -236h-36c-8.66699 0 -12 4 -10 12l34 139c2 6.66699 6.33301 10 13 10h51c8 0 11 -4.33301 9 -13l-48 -139c-2 -6 -6.33301 -9 -13 -9zM148 170c0 -33.333 8.33301 -59.166 25 -77.499s40.334 -27.5 71.001 -27.5c8 0 24 0.666992 48 2c8 0 12 -3.66699 12 -11v-53
c0 -7.33301 -3.33301 -11.333 -10 -12c-24 -1.33301 -42 -2 -54 -2c-52.667 0 -94.834 14.667 -126.501 44s-47.5 73.666 -47.5 132.999v466c0 8 4 12 12 12h52c6 0 9.66699 -3.66699 11 -11l7 -121h130c7.33301 0 11 -3.66699 11 -11v-50c0 -8 -3.66699 -12 -11 -12h-130
v-269z" />
    <glyph glyph-name="Tcaron" unicode="&#x164;" horiz-adv-x="561" 
d="M23 715h514c8 0 12 -3.66699 12 -11v-56c0 -7.33301 -4 -11 -12 -11h-214v-626c0 -7.33301 -4 -11 -12 -11h-62c-8 0 -12 3.66699 -12 11v626h-214c-7.33301 0 -11 3.66699 -11 11v56c0 7.33301 3.66699 11 11 11zM123 939h59.001c5.33301 0 10 -2.33301 14 -7l84 -86
l84 86c4 4.66699 8.66699 7 14 7h59c4.66699 0 7.66699 -1.5 9 -4.5s0.333008 -6.16699 -3 -9.5l-123 -133c-4.66699 -4.66699 -9.33398 -7 -14.001 -7h-52c-5.33301 0 -10 2.33301 -14 7l-123 133c-3.33301 3.33301 -4.33301 6.5 -3 9.5s4.33301 4.5 9 4.5z" />
    <glyph glyph-name="tcaron" unicode="&#x165;" horiz-adv-x="321" 
d="M293 -9c-22.667 -1.33301 -40.333 -2 -53 -2c-52.667 0 -94.834 14.667 -126.501 44s-47.5 73.666 -47.5 132.999v466c0 8 4 12 12 12h52c6 0 9.66699 -3.66699 11 -11l7 -121h130c7.33301 0 11 -3.66699 11 -11v-50c0 -8 -3.66699 -12 -11 -12h-130v-269
c0 -33.333 8.33301 -59.166 25 -77.499s40.334 -27.5 71.001 -27.5c8 0 24 0.666992 48 2c8 0 12 -3.66699 12 -11v-53c0 -6.66699 -3.66699 -10.667 -11 -12zM259.001 589h-36c-8.66699 0 -12 4 -10 12l35 135c0.666992 6.66699 5 10 13 10h50
c9.33301 0 12.333 -4.33301 9 -13l-48 -135c-2.66699 -6 -7 -9 -13 -9z" />
    <glyph glyph-name="Tbar" unicode="&#x166;" horiz-adv-x="571" 
d="M316 0h-63c-7.33301 0 -11 3.66699 -11 11v297h-118c-7.33301 0 -11 3.66699 -11 11v36c0 8 3.66699 12 11 12h118v270h-212c-7.33301 0 -11 3.66699 -11 11v56c0 7.33301 3.66699 11 11 11h511c7.33301 0 11 -3.66699 11 -11v-56c0 -7.33301 -3.66699 -11 -11 -11h-213
v-270h117c8 0 12 -4 12 -12v-36c0 -7.33301 -4 -11 -12 -11h-117v-297c0 -7.33301 -4 -11 -12 -11z" />
    <glyph glyph-name="tbar" unicode="&#x167;" horiz-adv-x="326" 
d="M298 -9c-24 -1.33301 -42 -2.00195 -54 -2.00195c-52 0 -93.833 14.833 -125.5 44.5s-47.5 73.834 -47.5 132.501v84h-43c-8 0 -12 3.66699 -12 11v34c0 7.33301 4 11 12 11h43v326c0 8 3.66699 12 11 12h52c7.33301 0 11 -3.66699 11 -11l7 -121h130
c8 0 12 -3.66699 12 -11v-50c0 -8 -4 -12 -12 -12h-129v-133h85c7.33301 0 11 -3.66699 11 -11v-34c0 -7.33301 -3.66699 -11 -11 -11h-85v-80c0 -33.333 8.16699 -59.166 24.5 -77.499s39.833 -27.5 70.5 -27.5c8.66699 0 25 0.666992 49 2c8 0 12 -3.66699 12 -11v-53
c0 -6.66699 -3.66699 -10.667 -11 -12z" />
    <glyph glyph-name="Umacron" unicode="&#x16a;" horiz-adv-x="691" 
d="M608 244c0 -76.667 -23.833 -138.334 -71.5 -185.001s-111.5 -70 -191.5 -70c-79.333 0 -142.833 23.333 -190.5 70s-71.5 108.334 -71.5 185.001v460c0 7.33301 4 11 12 11h64c7.33301 0 11 -3.66699 11 -11v-454c0 -56.667 15.333 -101.167 46 -133.5
s73.667 -48.5 129 -48.5c56 0 99.333 16.167 130 48.5s46 76.833 46 133.5v454c0 7.33301 3.66699 11 11 11h64c8 0 12 -3.66699 12 -11v-460zM481 811h-272c-7.33301 0 -11 3.66699 -11 11v45c0 8 3.66699 12 11 12h272c7.33301 0 11 -4 11 -12v-45
c0 -7.33301 -3.66699 -11 -11 -11z" />
    <glyph glyph-name="umacron" unicode="&#x16b;" horiz-adv-x="551" 
d="M413 517l59 0.000976562c7.33301 0 11 -4 11 -12v-463c0 -7.33301 -2.66699 -12 -8 -14c-58 -26 -121 -39 -189 -39c-68.667 0 -122.667 17.667 -162 53s-59 89.666 -59 162.999v300c0 8 4 12 12 12h59c7.33301 0 11 -4 11 -12v-298c0 -96.667 46.333 -145 139 -145
c40.667 0 79 6.33301 115 19v424c0 8 4 12 12 12zM141 631.001v43c0 8 3.66699 12 11 12h252c7.33301 0 11 -4 11 -12v-43c0 -7.33301 -3.66699 -11 -11 -11h-252c-7.33301 0 -11 3.66699 -11 11z" />
    <glyph glyph-name="Uring" unicode="&#x16e;" horiz-adv-x="691" 
d="M608 244c0 -76.667 -23.833 -138.334 -71.5 -185.001s-111.5 -70 -191.5 -70c-79.333 0 -142.833 23.333 -190.5 70s-71.5 108.334 -71.5 185.001v460c0 7.33301 4 11 12 11h64c7.33301 0 11 -3.66699 11 -11v-454c0 -56.667 15.333 -101.167 46 -133.5
s73.667 -48.5 129 -48.5c56 0 99.333 16.167 130 48.5s46 76.833 46 133.5v454c0 7.33301 3.66699 11 11 11h64c8 0 12 -3.66699 12 -11v-460zM454 874c0 -32 -10 -57.333 -30 -76s-45.667 -28 -77 -28c-32 0 -58.333 9.5 -79 28.5s-31 44.167 -31 75.5
s10.167 56.666 30.5 75.999s46.833 29 79.5 29c31.333 0 57 -9.66699 77 -29s30 -44.666 30 -75.999zM288 874c0 -16.667 5.33301 -30 16 -40s25 -15 43 -15c17.333 0 31 4.83301 41 14.5s15 23.167 15 40.5s-5 31 -15 41s-23.667 15 -41 15c-18 0 -32.333 -5 -43 -15
s-16 -23.667 -16 -41z" />
    <glyph glyph-name="uring" unicode="&#x16f;" horiz-adv-x="551" 
d="M413 517l59 0.000976562c7.33301 0 11 -4 11 -12v-463c0 -7.33301 -2.66699 -12 -8 -14c-58 -26 -121 -39 -189 -39c-68.667 0 -122.667 17.667 -162 53s-59 89.666 -59 162.999v300c0 8 4 12 12 12h59c7.33301 0 11 -4 11 -12v-298c0 -96.667 46.333 -145 139 -145
c40.667 0 79 6.33301 115 19v424c0 8 4 12 12 12zM383 685.001c0 -31.333 -9.83301 -56.168 -29.5 -74.501s-44.834 -27.5 -75.501 -27.5c-32 0 -58.167 9.33301 -78.5 28s-30.5 43.667 -30.5 75c0 30.667 10.167 55.334 30.5 74.001s46.5 28 78.5 28
c30.667 0 55.834 -9.33301 75.501 -28s29.5 -43.667 29.5 -75zM219 684.999c0 -16 5.33301 -29 16 -39s24.667 -15 42 -15c16.667 0 30.167 5 40.5 15s15.5 23 15.5 39c0 16.667 -5.16699 30 -15.5 40s-23.833 15 -40.5 15c-17.333 0 -31.333 -5 -42 -15
s-16 -23.333 -16 -40z" />
    <glyph glyph-name="Uhungarumlaut" unicode="&#x170;" horiz-adv-x="691" 
d="M608 244c0 -76.667 -23.833 -138.334 -71.5 -185.001s-111.5 -70 -191.5 -70c-79.333 0 -142.833 23.333 -190.5 70s-71.5 108.334 -71.5 185.001v460c0 7.33301 4 11 12 11h64c7.33301 0 11 -3.66699 11 -11v-454c0 -56.667 15.333 -101.167 46 -133.5
s73.667 -48.5 129 -48.5c56 0 99.333 16.167 130 48.5s46 76.833 46 133.5v454c0 7.33301 3.66699 11 11 11h64c8 0 12 -3.66699 12 -11v-460zM256 785h-53.002c-10.667 0 -13 4.66699 -7 14l102 132c3.33301 5.33301 8 8 14 8h67c4.66699 0 7.83398 -1.5 9.50098 -4.5
s0.833984 -6.16699 -2.49902 -9.5l-116 -133c-4 -4.66699 -8.66699 -7 -14 -7zM438.998 785h-52.001c-4.66699 0 -7.66699 1.5 -9 4.5s-0.666016 6.16699 2.00098 9.5l107 133c3.33301 4.66699 8 7 14 7h68c4.66699 0 7.66699 -1.5 9 -4.5s0.333008 -6.16699 -3 -9.5
l-122 -134c-3.33301 -4 -8 -6 -14 -6z" />
    <glyph glyph-name="uhungarumlaut" unicode="&#x171;" horiz-adv-x="551" 
d="M413 517l59 0.000976562c7.33301 0 11 -4 11 -12v-463c0 -7.33301 -2.66699 -12 -8 -14c-58 -26 -121 -39 -189 -39c-68.667 0 -122.667 17.667 -162 53s-59 89.666 -59 162.999v300c0 8 4 12 12 12h59c7.33301 0 11 -4 11 -12v-298c0 -96.667 46.333 -145 139 -145
c40.667 0 79 6.33301 115 19v424c0 8 4 12 12 12zM206 597.001h-36c-10.667 0 -13.667 4.66699 -9 14l72 132c4 5.33301 8.66699 8 14 8h50c10.667 0 13 -4.66699 7 -14l-84 -133c-4 -4.66699 -8.66699 -7 -14 -7zM350 597.001h-36.001c-10 0 -12.667 4.66699 -8 14l79 133
c3.33301 4.66699 8 7 14 7h50c4.66699 0 7.83398 -1.33301 9.50098 -4s1.16699 -6 -1.5 -10l-93 -133c-3.33301 -4.66699 -8 -7 -14 -7z" />
    <glyph glyph-name="Uogonek" unicode="&#x172;" horiz-adv-x="693" 
d="M498 -179c-28 -13.333 -61.667 -20.001 -101 -20.001c-27.333 0 -49.333 6.83301 -66 20.5s-25 31.5 -25 53.5c0 43.333 25 83.333 75 120v1c-10.667 -4.66699 -23 -7 -37 -7c-74.667 0 -136.834 21.833 -186.501 65.5s-74.5 105.167 -74.5 184.5v465
c0 7.33301 4 11 12 11h64c8 0 12 -3.66699 12 -11v-465c0 -53.333 16.5 -95 49.5 -125s74.833 -45 125.5 -45s92.834 15 126.501 45s50.5 71.667 50.5 125v465c0 7.33301 4 11 12 11h64c7.33301 0 11 -3.66699 11 -11v-465c0 -40 -6.5 -75 -19.5 -105
s-27.167 -52.167 -42.5 -66.5s-34.333 -28.166 -57 -41.499c-72 -44 -108 -84 -108 -120c0 -24 14.333 -36 43 -36c18.667 0 36 3.33301 52 10c7.33301 4 12 1.66699 14 -7l10 -39c2 -6.66699 0.666992 -11 -4 -13z" />
    <glyph glyph-name="uogonek" unicode="&#x173;" horiz-adv-x="550" 
d="M452 -180c-24.667 -12.667 -53.001 -18.999 -85.001 -18.999c-32.667 0 -58 7.33301 -76 22s-27 35 -27 61c0 42 25.667 79 77 111c-20 -4 -36 -6 -48 -6c-71.333 0 -127.166 16.667 -167.499 50s-60.5 83 -60.5 149v317c0 8 3.66699 12 11 12h59c8 0 12 -4 12 -12v-317
c0 -84 47.667 -126 143 -126c40 0 76.667 6.33301 110 19v424c0 8 4 12 12 12h59c7.33301 0 11 -4 11 -12v-465c0 -6.66699 -3 -11 -9 -13c-92.667 -36.667 -139 -76 -139 -118c0 -24.667 15.333 -37 46 -37c18 0 35.333 3.66699 52 11c7.33301 3.33301 12 1 14 -7l13 -42
c2 -6.66699 -0.333008 -11.334 -7 -14.001z" />
    <glyph glyph-name="Wcircumflex" unicode="&#x174;" horiz-adv-x="951" 
d="M292 0l-72.998 -0.000976562c-6.66699 0 -11 3.33301 -13 10l-193 692c-2.66699 8.66699 0.666016 13 9.99902 13h67c7.33301 0 11.333 -3.33301 12 -10l104 -391c19.333 -72.667 36 -143 50 -211h2c16.667 66.667 37 141 61 223l110 368c2 6.66699 6 10 12 10h68
c6 0 10 -3.33301 12 -10l111 -368c26.667 -92.667 47 -167 61 -223h2c18.667 86.667 35 157 49 211l104 391c2 6.66699 6 10 12 10h68c9.33301 0 12.666 -4.33301 9.99902 -13l-194 -692c-2 -6.66699 -6 -10 -12 -10h-73c-7.33301 0 -11.333 3.33301 -12 10l-115 373
c-24.667 84 -43 154.333 -55 211h-3c-16 -73.333 -34.333 -143.666 -55 -210.999l-115 -373c-2 -6.66699 -6 -10 -12 -10zM377.002 784.999h-59.001c-4.66699 0 -7.66699 1.5 -9 4.5s-0.333008 6.16699 3 9.5l123 133c4 4.66699 8.66699 7 14 7h52
c4.66699 0 9.33398 -2.33301 14.001 -7l123 -133c3.33301 -3.33301 4.33301 -6.5 3 -9.5s-4.33301 -4.5 -9 -4.5h-59c-5.33301 0 -10 2.33301 -14 7l-84 86l-84 -86c-4 -4.66699 -8.66699 -7 -14 -7z" />
    <glyph glyph-name="wcircumflex" unicode="&#x175;" horiz-adv-x="756" 
d="M179 0c-7.33301 0 -11.333 3.33398 -12 10.001l-149 493c-2.66699 9.33301 0.333008 14 9 14h62c6.66699 0 11 -3.33301 13 -10l66 -237l45 -177h2c18.667 77.333 32.667 131.333 42 162l76 243c2 6.66699 6 10 12 10h66c6 0 10 -3.33301 12 -10l76 -243
c12.667 -40.667 27 -94.667 43 -162h1c2 7.33301 9 34.666 21 81.999l24 95l67 237c0.666992 6.66699 4.66699 10 12 10h62c9.33301 0 12.333 -4.66699 9 -14l-148 -493c-2 -6.66699 -6.33301 -10 -13 -10h-70c-7.33301 -0 -11.333 3.33301 -12 10l-84 272
c-10.667 36 -21 77.667 -31 125h-3l-32 -125l-84 -272c-0.666992 -6.66699 -4.66699 -10 -12 -10h-70zM286 597.001h-50.001c-5.33301 0 -8.66602 1.33301 -9.99902 4s-0.333008 6 3 10l113 133c4.66699 4.66699 9.33398 7 14.001 7h43c6 0 10.667 -2.33301 14 -7l112 -133
c3.33301 -4 4.5 -7.33301 3.5 -10s-3.83301 -4 -8.5 -4h-52c-6 0 -10.667 2.33301 -14 7l-76 91l-78 -91c-4.66699 -4.66699 -9.33398 -7 -14.001 -7z" />
    <glyph glyph-name="Ycircumflex" unicode="&#x176;" horiz-adv-x="568" 
d="M315 0h-63c-7.33301 0 -11 3.66699 -11 11v261l-235 429c-4.66699 9.33301 -2 14 8 14h72c6.66699 0 11 -2.66699 13 -8l185 -357l184 357c2 5.33301 6.33301 8 13 8h72c10 0 12.667 -4.66699 8 -14l-234 -431v-259c0 -7.33301 -4 -11 -12 -11zM186 785h-59.001
c-4.66699 0 -7.66699 1.5 -9 4.5s-0.333008 6.16699 3 9.5l123 133c4 4.66699 8.66699 7 14 7h52c4.66699 0 9.33398 -2.33301 14.001 -7l123 -133c3.33301 -3.33301 4.33301 -6.5 3 -9.5s-4.33301 -4.5 -9 -4.5h-59c-5.33301 0 -10 2.33301 -14 7l-84 86l-84 -86
c-4 -4.66699 -8.66699 -7 -14 -7z" />
    <glyph glyph-name="ycircumflex" unicode="&#x177;" horiz-adv-x="551" 
d="M400 119l-0.00195312 386c0 8 3.66699 12 11 12h59c8 0 12 -4 12 -12v-491c0 -142 -70.333 -213.333 -211 -214c-74 0 -138.333 23 -193 69c-4.66699 4.66699 -5 10.334 -1 17.001l30 41c4.66699 7.33301 10 8.33301 16 3c48 -36.667 97.333 -55.334 148 -56.001
c44 0.666992 76.833 12.5 98.5 35.5s31.834 59.5 30.501 109.5v23c-41.333 -17.333 -82.666 -26 -123.999 -26c-58.667 0 -108.667 17.167 -150 51.5s-62 83.5 -62 147.5v290c0 8 3.66699 12 11 12h59c8 0 12 -4 12 -12v-286c0 -43.333 12.833 -75.333 38.5 -96
s59.5 -31 101.5 -31c44 0 82 9 114 27zM181.998 597h-50.001c-5.33301 0 -8.66602 1.33301 -9.99902 4s-0.333008 6 3 10l113 133c4.66699 4.66699 9.33398 7 14.001 7h43c6 0 10.667 -2.33301 14 -7l112 -133c3.33301 -4 4.5 -7.33301 3.5 -10s-3.83301 -4 -8.5 -4h-52
c-6 0 -10.667 2.33301 -14 7l-76 91l-78 -91c-4.66699 -4.66699 -9.33398 -7 -14.001 -7z" />
    <glyph glyph-name="Ydieresis" unicode="&#x178;" horiz-adv-x="568" 
d="M315 0h-63c-7.33301 0 -11 3.66699 -11 11v261l-235 429c-4.66699 9.33301 -2 14 8 14h72c6.66699 0 11 -2.66699 13 -8l185 -357l184 357c2 5.33301 6.33301 8 13 8h72c10 0 12.667 -4.66699 8 -14l-234 -431v-259c0 -7.33301 -4 -11 -12 -11zM231 847
c0 -14.667 -4.66699 -26.5 -14 -35.5s-21 -13.5 -35 -13.5c-14.667 0 -26.5 4.5 -35.5 13.5s-13.5 20.833 -13.5 35.5s4.5 26.667 13.5 36s20.833 14 35.5 14c14 0 25.667 -4.66699 35 -14s14 -21.333 14 -36zM435 847c0 -14.667 -4.66699 -26.5 -14 -35.5
s-21.333 -13.5 -36 -13.5s-26.5 4.5 -35.5 13.5s-13.5 20.833 -13.5 35.5s4.5 26.667 13.5 36s20.833 14 35.5 14s26.667 -4.66699 36 -14s14 -21.333 14 -36z" />
    <glyph glyph-name="Zacute" unicode="&#x179;" horiz-adv-x="588" 
d="M540 0h-493c-7.33301 0 -11 3.66699 -11 11v39c0 6 1.33301 10.667 4 14l388 573h-364c-8 0 -12 3.66699 -12 11v56c0 7.33301 4 11 12 11h467c7.33301 0 11 -3.66699 11 -11v-38c0 -5.33301 -1.33301 -10.333 -4 -15l-387 -573h389c7.33301 0 11 -3.66699 11 -11v-56
c0 -7.33301 -3.66699 -11 -11 -11zM427 925l-121 -133c-4 -4.66699 -8.66699 -7 -14 -7h-52c-10.667 0 -13 4.66699 -7 14l105 133c2.66699 4.66699 7 7 13 7h70c4.66699 0 7.66699 -1.5 9 -4.5s0.333008 -6.16699 -3 -9.5z" />
    <glyph glyph-name="zacute" unicode="&#x17a;" horiz-adv-x="467" 
d="M422 0l-380 0.000976562c-7.33301 0 -11 3.66699 -11 11v30c0 6 1.66699 10.667 5 14l278 388h-257c-7.33301 0 -11 4 -11 12v50c0 8 3.66699 12 11 12h359c8 0 12 -4 12 -12v-27c0 -4.66699 -1.66699 -9.33398 -5 -14.001l-280 -391h279c7.33301 0 11 -3.66699 11 -11
v-51c0 -7.33301 -3.66699 -11 -11 -11zM228 597.001h-45c-4.66699 0 -8 1.33301 -10 4s-1.66699 6 1 10l81 133c3.33301 4.66699 8 7 14 7h63c10.667 0 12.667 -4.66699 6 -14l-96 -133c-3.33301 -4.66699 -8 -7 -14 -7z" />
    <glyph glyph-name="Zdotaccent" unicode="&#x17b;" horiz-adv-x="588" 
d="M540 0h-493c-7.33301 0 -11 3.66699 -11 11v39c0 6 1.33301 10.667 4 14l388 573h-364c-8 0 -12 3.66699 -12 11v56c0 7.33301 4 11 12 11h467c7.33301 0 11 -3.66699 11 -11v-38c0 -5.33301 -1.33301 -10.333 -4 -15l-387 -573h389c7.33301 0 11 -3.66699 11 -11v-56
c0 -7.33301 -3.66699 -11 -11 -11zM348 852c0 -15.333 -5.33301 -28.333 -16 -39s-23.667 -16 -39 -16s-28.333 5.5 -39 16.5s-16 23.833 -16 38.5c0 15.333 5.33301 28.333 16 39s23.667 16 39 16s28.333 -5.33301 39 -16s16 -23.667 16 -39z" />
    <glyph glyph-name="zdotaccent" unicode="&#x17c;" horiz-adv-x="467" 
d="M422 0l-380 0.000976562c-7.33301 0 -11 3.66699 -11 11v30c0 6 1.66699 10.667 5 14l278 388h-257c-7.33301 0 -11 4 -11 12v50c0 8 3.66699 12 11 12h359c8 0 12 -4 12 -12v-27c0 -4.66699 -1.66699 -9.33398 -5 -14.001l-280 -391h279c7.33301 0 11 -3.66699 11 -11
v-51c0 -7.33301 -3.66699 -11 -11 -11zM283 662.001c0 -14 -4.66699 -25.833 -14 -35.5s-21.333 -14.5 -36 -14.5c-14 0 -25.833 4.83301 -35.5 14.5s-14.5 21.5 -14.5 35.5c0 14.667 4.83301 26.667 14.5 36s21.5 14 35.5 14c14.667 0 26.667 -4.66699 36 -14
s14 -21.333 14 -36z" />
    <glyph glyph-name="Zcaron" unicode="&#x17d;" horiz-adv-x="588" 
d="M540 0h-493c-7.33301 0 -11 3.66699 -11 11v39c0 6 1.33301 10.667 4 14l388 573h-364c-8 0 -12 3.66699 -12 11v56c0 7.33301 4 11 12 11h467c7.33301 0 11 -3.66699 11 -11v-38c0 -5.33301 -1.33301 -10.333 -4 -15l-387 -573h389c7.33301 0 11 -3.66699 11 -11v-56
c0 -7.33301 -3.66699 -11 -11 -11zM136 939h59.001c5.33301 0 10 -2.33301 14 -7l84 -86l84 86c4 4.66699 8.66699 7 14 7h59c4.66699 0 7.66699 -1.5 9 -4.5s0.333008 -6.16699 -3 -9.5l-123 -133c-4.66699 -4.66699 -9.33398 -7 -14.001 -7h-52
c-5.33301 0 -10 2.33301 -14 7l-123 133c-3.33301 3.33301 -4.33301 6.5 -3 9.5s4.33301 4.5 9 4.5z" />
    <glyph glyph-name="zcaron" unicode="&#x17e;" horiz-adv-x="467" 
d="M422 0l-380 0.000976562c-7.33301 0 -11 3.66699 -11 11v30c0 6 1.66699 10.667 5 14l278 388h-257c-7.33301 0 -11 4 -11 12v50c0 8 3.66699 12 11 12h359c8 0 12 -4 12 -12v-27c0 -4.66699 -1.66699 -9.33398 -5 -14.001l-280 -391h279c7.33301 0 11 -3.66699 11 -11
v-51c0 -7.33301 -3.66699 -11 -11 -11zM96 751.001h50.001c4.66699 0 9.33398 -2.33301 14.001 -7l78 -91l76 91c3.33301 4.66699 8 7 14 7h52c4.66699 0 7.5 -1.33301 8.5 -4s-0.166992 -6 -3.5 -10l-112 -133c-3.33301 -4.66699 -8 -7 -14 -7h-43
c-4.66699 0 -9.33398 2.33301 -14.001 7l-113 133c-3.33301 4 -4.33301 7.33301 -3 10s4.66602 4 9.99902 4z" />
    <glyph glyph-name="florin" unicode="&#x192;" horiz-adv-x="452" 
d="M190 12c-4 -18.667 -8.66797 -35.332 -14.001 -49.999s-13.166 -29.334 -23.499 -44.001s-24 -26 -41 -34s-36.833 -12 -59.5 -12c-21.333 0 -42 3.66699 -62 11c-6.66699 2.66699 -9 7.66699 -7 15l11 43c2 6.66699 6.66699 9.33398 14 8.00098c10 -3.33301 22 -5 36 -5
c18 0 32 6.66699 42 20s17.667 35.333 23 66l55 289h-81c-8 0 -12 3.66699 -12 11v52c0 8 4 12 12 12h94l37 192c18 93.333 65 140 141 140c26.667 0 51.667 -3.66699 75 -11c8 -1.33301 10.667 -6 8 -14l-9 -41c-2 -6.66699 -6.66699 -9.33398 -14 -8.00098
c-14 4.66699 -29 7 -45 7c-22.667 0 -39.667 -7.5 -51 -22.5s-20 -38.167 -26 -69.5l-33 -173h97c7.33301 0 11 -4 11 -12v-52c0 -7.33301 -3.66699 -11 -11 -11h-111z" />
    <glyph glyph-name="uni0218" unicode="&#x218;" horiz-adv-x="606" 
d="M564 194c0 -68 -24.6641 -119.165 -73.9971 -153.498s-112 -51.5 -188 -51.5c-48 0 -91.5 7.66699 -130.5 23s-78.833 39.333 -119.5 72c-5.33301 4.66699 -6 10 -2 16l34 47c4.66699 6.66699 9.66699 7.66699 15 3c69.333 -52.667 138 -79.334 206 -80.001
c49.333 0 90.5 10.333 123.5 31s49.5 51 49.5 91c0 38.667 -15 67.167 -45 85.5s-77.333 34.5 -142 48.5c-33.333 7.33301 -63 16 -89 26s-51 23 -75 39s-42.5 36.333 -55.5 61s-19.5 53 -19.5 85c0 62.667 24 109.834 72 141.501s109 47.5 183 47.5
c81.333 0 159 -26.667 233 -80c6.66699 -4 7.66699 -9 3 -15l-33 -47c-4 -6 -9.33301 -6.66699 -16 -2c-60 41.333 -124.667 63 -194 65c-48.667 0 -87.834 -9.83301 -117.501 -29.5s-44.5 -47.167 -44.5 -82.5s14.333 -62 43 -80s72.667 -33.667 132 -47
c30 -6.66699 55.833 -13.334 77.5 -20.001s44.167 -15.834 67.5 -27.501s42.166 -24.5 56.499 -38.5s26.166 -32 35.499 -54s14 -46.667 14 -74zM280.003 -243.998h-38c-9.33301 0 -13 4 -11 12l37 146c2 6.66699 6.33301 10 13 10h54c8.66699 0 12 -4.33301 10 -13
l-52 -146c-2 -6 -6.33301 -9 -13 -9z" />
    <glyph glyph-name="uni0219" unicode="&#x219;" horiz-adv-x="475" 
d="M441 146c0 -49.333 -18.665 -87.832 -55.998 -115.499s-86.333 -41.5 -147 -41.5c-74 0 -140 21.333 -198 64c-5.33301 3.33301 -6.33301 8.66602 -3 15.999l27 46c4 6.66699 9.33301 7.66699 16 3c50 -37.333 103.333 -56 160 -56c34.667 0 63 7 85 21s33 33.667 33 59
c0 17.333 -6.66699 31.833 -20 43.5s-26.833 19.5 -40.5 23.5s-32.834 8.33301 -57.501 13c-19.333 4 -35.5 7.66699 -48.5 11s-29.667 9.33301 -50 18s-36.833 18.167 -49.5 28.5s-23.667 24.333 -33 42s-14 37.5 -14 59.5c0 48 19.167 84.5 57.5 109.5
s84.833 37.5 139.5 37.5c60.667 0 118.667 -15.667 174 -47c7.33301 -3.33301 8.66602 -8.33301 3.99902 -15l-27 -45c-3.33301 -7.33301 -8.33301 -8.66602 -15 -3.99902c-46 24.667 -92.667 37 -140 37c-34.667 0 -62 -6.5 -82 -19.5s-30 -30.833 -30 -53.5
c0 -24.667 10.833 -42.667 32.5 -54s54.167 -21.333 97.5 -30c21.333 -4 38.333 -7.66699 51 -11s28.667 -9 48 -17s34.333 -16.833 45 -26.5s20.167 -22.834 28.5 -39.501s12.5 -35.667 12.5 -57zM220.002 -235.999h-36c-8.66699 0 -12 4 -10 12l34 139
c2 6.66699 6.33301 10 13 10h51c8 0 11 -4.33301 9 -13l-48 -139c-2 -6 -6.33301 -9 -13 -9z" />
    <glyph glyph-name="uni021A" unicode="&#x21a;" horiz-adv-x="561" 
d="M23 715h514c8 0 12 -3.66699 12 -11v-56c0 -7.33301 -4 -11 -12 -11h-214v-626c0 -7.33301 -4 -11 -12 -11h-62c-8 0 -12 3.66699 -12 11v626h-214c-7.33301 0 -11 3.66699 -11 11v56c0 7.33301 3.66699 11 11 11zM258 -244h-38c-9.33301 0 -13 4 -11 12l37 146
c2 6.66699 6.33301 10 13 10h54c8.66699 0 12 -4.33301 10 -13l-52 -146c-2 -6 -6.33301 -9 -13 -9z" />
    <glyph glyph-name="uni021B" unicode="&#x21b;" horiz-adv-x="321" 
d="M148 170c0 -33.333 8.33301 -59.166 25 -77.499s40.334 -27.5 71.001 -27.5c8 0 24 0.666992 48 2c8 0 12 -3.66699 12 -11v-53c0 -7.33301 -3.33301 -11.333 -10 -12c-24 -1.33301 -42 -2 -54 -2c-52.667 0 -94.834 14.667 -126.501 44s-47.5 73.666 -47.5 132.999v466
c0 8 4 12 12 12h52c6 0 9.66699 -3.66699 11 -11l7 -121h130c7.33301 0 11 -3.66699 11 -11v-50c0 -8 -3.66699 -12 -11 -12h-130v-269zM176 -236h-36c-8.66699 0 -12 4 -10 12l34 139c2 6.66699 6.33301 10 13 10h51c8 0 11 -4.33301 9 -13l-48 -139
c-2 -6 -6.33301 -9 -13 -9z" />
    <glyph glyph-name="uni0237" unicode="&#x237;" horiz-adv-x="228" 
d="M159 -17c0 -60 -13.001 -105.668 -39.001 -137.001s-63 -47 -111 -47c-17.333 0 -33.666 1 -48.999 3c-7.33301 0.666992 -11 5 -11 13v50c0 8 4 12 12 12c14 -2 27 -3 39 -3c26 0 45.333 8.33301 58 25s19 44.334 19 83.001v523c0 8 4 12 12 12h59
c7.33301 0 11 -4 11 -12v-522z" />
    <glyph glyph-name="circumflex" unicode="&#x2c6;" horiz-adv-x="335" 
d="M76 597h-50.001c-11.333 0 -13.666 4.66699 -6.99902 14l113 133c4.66699 4.66699 9.33398 7 14.001 7h43c6 0 10.667 -2.33301 14 -7l112 -133c3.33301 -4 4.5 -7.33301 3.5 -10s-3.83301 -4 -8.5 -4h-52c-6 0 -10.667 2.33301 -14 7l-76 91l-78 -91
c-4.66699 -4.66699 -9.33398 -7 -14.001 -7z" />
    <glyph glyph-name="caron" unicode="&#x2c7;" horiz-adv-x="290" 
d="M26 751h50.001c4.66699 0 9.33398 -2.33301 14.001 -7l78 -91l76 91c3.33301 4.66699 8 7 14 7h52c4.66699 0 7.5 -1.33301 8.5 -4s-0.166992 -6 -3.5 -10l-112 -133c-3.33301 -4.66699 -8 -7 -14 -7h-43c-4.66699 0 -9.33398 2.33301 -14.001 7l-113 133
c-6.66699 9.33301 -4.33398 14 6.99902 14z" />
    <glyph glyph-name="breve" unicode="&#x2d8;" horiz-adv-x="263" 
d="M309 732c-4.66699 -40.667 -20.501 -73.332 -47.501 -97.999s-62.833 -37 -107.5 -37c-44 0 -79.167 12.167 -105.5 36.5s-42.166 56.833 -47.499 97.5c-1.33301 7.33301 2 11.666 10 12.999l40 5c6.66699 0.666992 11 -2.33301 13 -9c9.33301 -53.333 39.333 -80 90 -80
c52 0 82.667 26.667 92 80c0.666992 6.66699 5 9.66699 13 9l39 -5c8 -1.33301 11.667 -5.33301 11 -12z" />
    <glyph glyph-name="dotaccent" unicode="&#x2d9;" horiz-adv-x="105" 
d="M103 662c0 -14 -4.66699 -25.833 -14 -35.5s-21.333 -14.5 -36 -14.5c-14 0 -25.833 4.83301 -35.5 14.5s-14.5 21.5 -14.5 35.5c0 14.667 4.83301 26.667 14.5 36s21.5 14 35.5 14c14.667 0 26.667 -4.66699 36 -14s14 -21.333 14 -36z" />
    <glyph glyph-name="ring" unicode="&#x2da;" horiz-adv-x="226" 
d="M215 685c0 -31.333 -9.83301 -56.168 -29.5 -74.501s-44.834 -27.5 -75.501 -27.5c-32 0 -58.167 9.33301 -78.5 28s-30.5 43.667 -30.5 75c0 30.667 10.167 55.334 30.5 74.001s46.5 28 78.5 28c30.667 0 55.834 -9.33301 75.501 -28s29.5 -43.667 29.5 -75zM51 684.998
c0 -16 5.33301 -29 16 -39s24.667 -15 42 -15c16.667 0 30.167 5 40.5 15s15.5 23 15.5 39c0 16.667 -5.16699 30 -15.5 40s-23.833 15 -40.5 15c-17.333 0 -31.333 -5 -42 -15s-16 -23.333 -16 -40z" />
    <glyph glyph-name="ogonek" unicode="&#x2db;" horiz-adv-x="216" 
d="M192 -183c-26 -11.333 -53.999 -16.999 -83.999 -16.999c-29.333 0 -52.5 7.33301 -69.5 22s-25.5 34.667 -25.5 60c0 44 27.333 82 82 114c3.33301 2.66699 7.66602 4 12.999 4h38c5.33301 0 8 -1.33301 8 -4s-2.33301 -5.33398 -7 -8.00098
c-19.333 -12 -34.5 -25.667 -45.5 -41s-16.5 -29.666 -16.5 -42.999c0 -21.333 13.667 -32 41 -32c19.333 0 35.666 2.66699 48.999 8c8.66699 2 13.334 -0.666992 14.001 -8l9 -41c2 -6.66699 0 -11.334 -6 -14.001z" />
    <glyph glyph-name="tilde" unicode="&#x2dc;" horiz-adv-x="331" 
d="M321 681c-6 -18.667 -16.6641 -35.501 -31.9971 -50.501s-33 -22.5 -53 -22.5c-16.667 0 -40.334 8 -71.001 24c-29.333 16 -49.333 24 -60 24c-17.333 0 -31 -11.333 -41 -34c-3.33301 -6 -8.66602 -7.66699 -15.999 -5l-33 19c-6.66699 4 -8.33398 9 -5.00098 15
c7.33301 18.667 18.333 35 33 49s31.667 21 51 21s43.666 -8.33301 72.999 -25c29.333 -15.333 49.666 -23 60.999 -23c14 0 27 11.333 39 34c3.33301 7.33301 8.33301 9 15 5l33 -18c6 -3.33301 8 -7.66602 6 -12.999z" />
    <glyph glyph-name="hungarumlaut" unicode="&#x2dd;" horiz-adv-x="293" 
d="M45 597h-36c-10.667 0 -13.667 4.66699 -9 14l72 132c4 5.33301 8.66699 8 14 8h50c10.667 0 13 -4.66699 7 -14l-84 -133c-4 -4.66699 -8.66699 -7 -14 -7zM189 597h-36.001c-10 0 -12.667 4.66699 -8 14l79 133c3.33301 4.66699 8 7 14 7h50
c4.66699 0 7.83398 -1.33301 9.50098 -4s1.16699 -6 -1.5 -10l-93 -133c-3.33301 -4.66699 -8 -7 -14 -7z" />
    <glyph glyph-name="gravecomb" unicode="&#x300;" horiz-adv-x="179" 
d="M172 597h-45c-6 0 -10.667 2.33301 -14 7l-96 133c-2.66699 4 -3.5 7.33301 -2.5 10s3.83301 4 8.5 4h63c6 0 10.667 -2.33301 14 -7l81 -133c2.66699 -4 3 -7.33301 1 -10s-5.33301 -4 -10 -4z" />
    <glyph glyph-name="acutecomb" unicode="&#x301;" horiz-adv-x="181" 
d="M61 597h-45c-4.66699 0 -8 1.33301 -10 4s-1.66699 6 1 10l81 133c3.33301 4.66699 8 7 14 7h63c4.66699 0 7.5 -1.33301 8.5 -4s0.166992 -6 -2.5 -10l-96 -133c-3.33301 -4.66699 -8 -7 -14 -7z" />
    <glyph glyph-name="uni0302" unicode="&#x302;" horiz-adv-x="335" 
d="M76 597h-50.001c-11.333 0 -13.666 4.66699 -6.99902 14l113 133c4.66699 4.66699 9.33398 7 14.001 7h43c6 0 10.667 -2.33301 14 -7l112 -133c3.33301 -4 4.5 -7.33301 3.5 -10s-3.83301 -4 -8.5 -4h-52c-6 0 -10.667 2.33301 -14 7l-76 91l-78 -91
c-4.66699 -4.66699 -9.33398 -7 -14.001 -7z" />
    <glyph glyph-name="tildecomb" unicode="&#x303;" horiz-adv-x="330" 
d="M321 681c-6 -18.667 -16.6641 -35.501 -31.9971 -50.501s-33 -22.5 -53 -22.5c-16.667 0 -40.334 8 -71.001 24c-29.333 16 -49.333 24 -60 24c-17.333 0 -31 -11.333 -41 -34c-3.33301 -6 -8.66602 -7.66699 -15.999 -5l-33 19c-6.66699 4 -8.33398 9 -5.00098 15
c7.33301 18.667 18.333 35 33 49s31.667 21 51 21s43.666 -8.33301 72.999 -25c29.333 -15.333 49.666 -23 60.999 -23c14 0 27 11.333 39 34c3.33301 7.33301 8.33301 9 15 5l33 -18c6 -3.33301 8 -7.66602 6 -12.999z" />
    <glyph glyph-name="uni0304" unicode="&#x304;" horiz-adv-x="274" 
d="M0 631v43c0 8 3.66699 12 11 12h252c7.33301 0 11 -4 11 -12v-43c0 -7.33301 -3.66699 -11 -11 -11h-252c-7.33301 0 -11 3.66699 -11 11z" />
    <glyph glyph-name="uni0306" unicode="&#x306;" horiz-adv-x="310" 
d="M309 732c-4.66699 -40.667 -20.501 -73.332 -47.501 -97.999s-62.833 -37 -107.5 -37c-44 0 -79.167 12.167 -105.5 36.5s-42.166 56.833 -47.499 97.5c-1.33301 7.33301 2 11.666 10 12.999l40 5c6.66699 0.666992 11 -2.33301 13 -9c9.33301 -53.333 39.333 -80 90 -80
c52 0 82.667 26.667 92 80c0.666992 6.66699 5 9.66699 13 9l39 -5c8 -1.33301 11.667 -5.33301 11 -12z" />
    <glyph glyph-name="uni0307" unicode="&#x307;" horiz-adv-x="122" 
d="M111 662c0 -14 -4.66699 -25.833 -14 -35.5s-21.333 -14.5 -36 -14.5c-14 0 -25.833 4.83301 -35.5 14.5s-14.5 21.5 -14.5 35.5c0 14.667 4.83301 26.667 14.5 36s21.5 14 35.5 14c14.667 0 26.667 -4.66699 36 -14s14 -21.333 14 -36z" />
    <glyph glyph-name="uni0308" unicode="&#x308;" horiz-adv-x="292" 
d="M97 662c0 -14.667 -4.33301 -26.167 -13 -34.5s-20 -12.5 -34 -12.5s-25.333 4.33301 -34 13s-13 20 -13 34c0 14.667 4.33301 26.334 13 35.001s20 13 34 13s25.333 -4.33301 34 -13s13 -20.334 13 -35.001zM289 662c0 -14 -4.33301 -25.333 -13 -34s-20 -13 -34 -13
s-25.5 4.33301 -34.5 13s-13.5 20 -13.5 34c0 14.667 4.5 26.334 13.5 35.001s20.5 13 34.5 13s25.333 -4.33301 34 -13s13 -20.334 13 -35.001z" />
    <glyph glyph-name="uni030A" unicode="&#x30a;" horiz-adv-x="217" 
d="M215 685c0 -31.333 -9.83301 -56.168 -29.5 -74.501s-44.834 -27.5 -75.501 -27.5c-32 0 -58.167 9.33301 -78.5 28s-30.5 43.667 -30.5 75c0 30.667 10.167 55.334 30.5 74.001s46.5 28 78.5 28c30.667 0 55.834 -9.33301 75.501 -28s29.5 -43.667 29.5 -75zM51 684.998
c0 -16 5.33301 -29 16 -39s24.667 -15 42 -15c16.667 0 30.167 5 40.5 15s15.5 23 15.5 39c0 16.667 -5.16699 30 -15.5 40s-23.833 15 -40.5 15c-17.333 0 -31.333 -5 -42 -15s-16 -23.333 -16 -40z" />
    <glyph glyph-name="uni030B" unicode="&#x30b;" horiz-adv-x="299" 
d="M45 597h-36c-10.667 0 -13.667 4.66699 -9 14l72 132c4 5.33301 8.66699 8 14 8h50c10.667 0 13 -4.66699 7 -14l-84 -133c-4 -4.66699 -8.66699 -7 -14 -7zM189 597h-36.001c-10 0 -12.667 4.66699 -8 14l79 133c3.33301 4.66699 8 7 14 7h50
c4.66699 0 7.83398 -1.33301 9.50098 -4s1.16699 -6 -1.5 -10l-93 -133c-3.33301 -4.66699 -8 -7 -14 -7z" />
    <glyph glyph-name="uni030C" unicode="&#x30c;" horiz-adv-x="311" 
d="M26 751h50.001c4.66699 0 9.33398 -2.33301 14.001 -7l78 -91l76 91c3.33301 4.66699 8 7 14 7h52c4.66699 0 7.5 -1.33301 8.5 -4s-0.166992 -6 -3.5 -10l-112 -133c-3.33301 -4.66699 -8 -7 -14 -7h-43c-4.66699 0 -9.33398 2.33301 -14.001 7l-113 133
c-6.66699 9.33301 -4.33398 14 6.99902 14z" />
    <glyph glyph-name="uni0312" unicode="&#x312;" horiz-adv-x="125" 
d="M70 597h-55c-4 0 -7 1.33301 -9 4s-2 5.66699 0 9l55 137c2 6 6.33301 9 13 9h38c9.33301 0 12.333 -4.33301 9 -13l-39 -136c-2 -6.66699 -6 -10 -12 -10z" />
    <glyph glyph-name="uni0326" unicode="&#x326;" horiz-adv-x="115" 
d="M50 -236h-36c-8.66699 0 -12 4 -10 12l34 139c2 6.66699 6.33301 10 13 10h51c8 0 11 -4.33301 9 -13l-48 -139c-2 -6 -6.33301 -9 -13 -9z" />
    <glyph glyph-name="uni0327" unicode="&#x327;" horiz-adv-x="197" 
d="M193 -122c0 -26.667 -10.5 -47.168 -31.5 -61.501s-49.167 -21.5 -84.5 -21.5c-20.667 0 -40 3 -58 9c-6 2 -9 6.33301 -9 13v24c0 8 4.33301 11.333 13 10c14.667 -4.66699 29.667 -7 45 -7c40 0 60 13 60 39c0 24 -21 36.333 -63 37
c-6.66699 0 -11.334 2.66699 -14.001 8c-1.33301 2.66699 -1 6.33398 1 11.001l23 56c2 6 6.33301 9 13 9h27c4 0 6.83301 -1.33301 8.5 -4s1.83398 -5.66699 0.500977 -9l-17 -41c26 -1.33301 46.833 -8.5 62.5 -21.5s23.5 -29.833 23.5 -50.5z" />
    <glyph glyph-name="uni0328" unicode="&#x328;" horiz-adv-x="185" 
d="M179 -183c-26 -11.333 -53.999 -16.999 -83.999 -16.999c-29.333 0 -52.5 7.33301 -69.5 22s-25.5 34.667 -25.5 60c0 44 27.333 82 82 114c3.33301 2.66699 7.66602 4 12.999 4h38c5.33301 0 8 -1.33301 8 -4s-2.33301 -5.33398 -7 -8.00098
c-19.333 -12 -34.5 -25.667 -45.5 -41s-16.5 -29.666 -16.5 -42.999c0 -21.333 13.667 -32 41 -32c19.333 0 35.666 2.66699 48.999 8c8.66699 2 13.334 -0.666992 14.001 -8l9 -41c2 -6.66699 0 -11.334 -6 -14.001z" />
    <glyph glyph-name="uni0335" unicode="&#x335;" horiz-adv-x="338" 
d="M327 585h-316c-7.33301 0 -11 3.66699 -11 11v36c0 7.33301 3.66699 11 11 11h316c7.33301 0 11 -3.66699 11 -11v-36c0 -7.33301 -3.66699 -11 -11 -11z" />
    <glyph glyph-name="uni0336" unicode="&#x336;" horiz-adv-x="529" 
d="M0 246v36c0 7.33301 3.66699 11 11 11h507c7.33301 0 11 -3.66699 11 -11v-36c0 -8 -3.66699 -12 -11 -12h-507c-7.33301 0 -11 4 -11 12z" />
    <glyph glyph-name="uni0337" unicode="&#x337;" horiz-adv-x="282" 
d="M7 326l261 233.002c3.33301 3.33301 6.5 4.16602 9.5 2.49902s4.5 -4.83398 4.5 -9.50098v-52c0 -5.33301 -2.33301 -10 -7 -14l-261 -233c-3.33301 -3.33301 -6.5 -4.33301 -9.5 -3s-4.5 4.33301 -4.5 9v53c-0 5.33301 2.33301 10 7 14z" />
    <glyph glyph-name="uni0338" unicode="&#x338;" horiz-adv-x="543" 
d="M88 -41h-50c-10 0 -12.667 4.66699 -8 14l412 769c2 5.33301 6.33301 8 13 8h50c10 0 12.667 -4.66699 8 -14l-412 -769c-2 -5.33301 -6.33301 -8 -13 -8z" />
    <glyph glyph-name="tonos" unicode="&#x384;" horiz-adv-x="180" 
d="M61 597h-45c-4.66699 0 -8 1.33301 -10 4s-1.66699 6 1 10l81 133c3.33301 4.66699 8 7 14 7h63c4.66699 0 7.5 -1.33301 8.5 -4s0.166992 -6 -2.5 -10l-96 -133c-3.33301 -4.66699 -8 -7 -14 -7z" />
    <glyph glyph-name="dieresistonos" unicode="&#x385;" horiz-adv-x="332" 
d="M155 598h-34c-8.66699 0 -12 4.33301 -10 13l53 131c2 6 6.33301 9 13 9h51c9.33301 0 12 -4.33301 8 -13l-68 -132c-2 -5.33301 -6.33301 -8 -13 -8zM88 662c0 -12.667 -4 -23 -12 -31s-18.667 -12 -32 -12c-12.667 0 -23.167 4 -31.5 12s-12.5 18.333 -12.5 31
c0 13.333 4.16699 24 12.5 32s18.833 12 31.5 12c13.333 0 24 -4 32 -12s12 -18.667 12 -32zM332 662c0 -12.667 -4 -23 -12 -31s-18.333 -12 -31 -12c-13.333 0 -24.166 4 -32.499 12s-12.5 18.333 -12.5 31c0 13.333 4.16699 24 12.5 32s19.166 12 32.499 12
c12.667 0 23 -4 31 -12s12 -18.667 12 -32z" />
    <glyph glyph-name="Alphatonos" unicode="&#x386;" horiz-adv-x="658" 
d="M91 561h-45c-4.66699 0 -8 1.33301 -10 4s-1.66699 6 1 10l81 133c3.33301 4.66699 8 7 14 7h63c4.66699 0 7.5 -1.33301 8.5 -4s0.166992 -6 -2.5 -10l-96 -133c-3.33301 -4.66699 -8 -7 -14 -7zM124 0h-67c-8 -0 -11 4.33301 -9 13l249 693c2 6 6 9 12 9h79
c6.66699 0 11 -3 13 -9l248 -693c3.33301 -8.66699 0.333008 -13 -9 -13h-67c-6.66699 0 -11 3 -13 9l-61 178h-300l-62 -178c-2 -6 -6.33301 -9 -13 -9zM347 620l-122 -354h248l-122 354h-4z" />
    <glyph glyph-name="Epsilontonos" unicode="&#x388;" horiz-adv-x="736" 
d="M65 561h-45c-4.66699 0 -8 1.33301 -10 4s-1.66699 6 1 10l81 133c3.33301 4.66699 8 7 14 7h63c4.66699 0 7.5 -1.33301 8.5 -4s0.166992 -6 -2.5 -10l-96 -133c-3.33301 -4.66699 -8 -7 -14 -7zM332 324v-246h344c7.33301 0 11 -3.66699 11 -11v-56
c0 -7.33301 -3.66699 -11 -11 -11h-418c-8 0 -12 3.66699 -12 11v693c0 7.33301 4 11 12 11h404c7.33301 0 11 -3.66699 11 -11v-56c0 -7.33301 -3.66699 -11 -11 -11h-330v-234h307c7.33301 0 11 -4 11 -12v-55c0 -8 -3.66699 -12 -11 -12h-307z" />
    <glyph glyph-name="Etatonos" unicode="&#x389;" horiz-adv-x="844" 
d="M65 561h-45c-4.66699 0 -8 1.33301 -10 4s-1.66699 6 1 10l81 133c3.33301 4.66699 8 7 14 7h63c4.66699 0 7.5 -1.33301 8.5 -4s0.166992 -6 -2.5 -10l-96 -133c-3.33301 -4.66699 -8 -7 -14 -7zM670 402v302c0 7.33301 4 11 12 11h62c7.33301 0 11 -3.66699 11 -11
v-693c0 -7.33301 -3.66699 -11 -11 -11h-62c-8 0 -12 3.66699 -12 11v313h-334v-313c0 -7.33301 -3.66699 -11 -11 -11h-62c-8 0 -12 3.66699 -12 11v693c0 7.33301 4 11 12 11h62c7.33301 0 11 -3.66699 11 -11v-302h334z" />
    <glyph glyph-name="Iotatonos" unicode="&#x38a;" horiz-adv-x="432" 
d="M65 561h-45c-4.66699 0 -8 1.33301 -10 4s-1.66699 6 1 10l81 133c3.33301 4.66699 8 7 14 7h63c4.66699 0 7.5 -1.33301 8.5 -4s0.166992 -6 -2.5 -10l-96 -133c-3.33301 -4.66699 -8 -7 -14 -7zM343 704v-693c0 -7.33301 -3.66699 -11 -11 -11h-62
c-8 0 -12 3.66699 -12 11v693c0 7.33301 4 11 12 11h62c7.33301 0 11 -3.66699 11 -11z" />
    <glyph glyph-name="Omicrontonos" unicode="&#x38c;" horiz-adv-x="797" 
d="M67 561h-45c-4.66699 0 -8 1.33301 -10 4s-1.66699 6 1 10l81 133c3.33301 4.66699 8 7 14 7h63c4.66699 0 7.5 -1.33301 8.5 -4s0.166992 -6 -2.5 -10l-96 -133c-3.33301 -4.66699 -8 -7 -14 -7zM733 251c0 -80.667 -24.333 -144.5 -73 -191.5
s-115.334 -70.5 -200.001 -70.5s-151.334 23.5 -200.001 70.5s-73 110.833 -73 191.5v211c0 82 24.333 146.5 73 193.5s115.334 70.5 200.001 70.5s151.334 -23.5 200.001 -70.5s73 -111.5 73 -193.5v-211zM273 251c0 -56.667 16.333 -101 49 -133s78.667 -48 138 -48
s105.166 16 137.499 48s48.5 76.333 48.5 133v211c0 58.667 -16.167 104.167 -48.5 136.5s-78.166 48.5 -137.499 48.5s-105.333 -16.167 -138 -48.5s-49 -77.833 -49 -136.5v-211z" />
    <glyph glyph-name="Upsilontonos" unicode="&#x38e;" horiz-adv-x="800" 
d="M75 561h-45c-4.66699 0 -8 1.33301 -10 4s-1.66699 6 1 10l81 133c3.33301 4.66699 8 7 14 7h63c10.667 0 12.667 -4.66699 6 -14l-96 -133c-3.33301 -4.66699 -8 -7 -14 -7zM547 0h-63c-7.33301 0 -11 3.66699 -11 11v261l-235 429c-4.66699 9.33301 -2 14 8 14h72
c6.66699 0 11 -2.66699 13 -8l185 -357l184 357c2 5.33301 6.33301 8 13 8h72c10 0 12.667 -4.66699 8 -14l-234 -431v-259c0 -7.33301 -4 -11 -12 -11z" />
    </font>
</defs>
</svg>
