<svg version="1.1" xmlns="http://www.w3.org/2000/svg" xmlns:xlink="http://www.w3.org/1999/xlink" width="15" height="13" viewBox="0 0 15 13">
<path id="all" d="M13.500,13.000 C12.672,13.000 12.000,12.328 12.000,11.500 C12.000,11.500 12.000,9.500 12.000,9.500 C12.000,8.672 12.672,8.000 13.500,8.000 C14.328,8.000 15.000,8.672 15.000,9.500 C15.000,9.500 15.000,11.500 15.000,11.500 C15.000,12.328 14.328,13.000 13.500,13.000 zM13.500,5.000 C12.672,5.000 12.000,4.328 12.000,3.500 C12.000,3.500 12.000,1.500 12.000,1.500 C12.000,0.672 12.672,-0.000 13.500,-0.000 C14.328,-0.000 15.000,0.672 15.000,1.500 C15.000,1.500 15.000,3.500 15.000,3.500 C15.000,4.328 14.328,5.000 13.500,5.000 zM7.500,13.000 C6.672,13.000 6.000,12.328 6.000,11.500 C6.000,11.500 6.000,9.500 6.000,9.500 C6.000,8.672 6.672,8.000 7.500,8.000 C8.328,8.000 9.000,8.672 9.000,9.500 C9.000,9.500 9.000,11.500 9.000,11.500 C9.000,12.328 8.328,13.000 7.500,13.000 zM7.500,5.000 C6.672,5.000 6.000,4.328 6.000,3.500 C6.000,3.500 6.000,1.500 6.000,1.500 C6.000,0.672 6.672,-0.000 7.500,-0.000 C8.328,-0.000 9.000,0.672 9.000,1.500 C9.000,1.500 9.000,3.500 9.000,3.500 C9.000,4.328 8.328,5.000 7.500,5.000 zM1.500,13.000 C0.672,13.000 -0.000,12.328 -0.000,11.500 C-0.000,11.500 -0.000,9.500 -0.000,9.500 C-0.000,8.672 0.672,8.000 1.500,8.000 C2.328,8.000 3.000,8.672 3.000,9.500 C3.000,9.500 3.000,11.500 3.000,11.500 C3.000,12.328 2.328,13.000 1.500,13.000 zM1.500,5.000 C0.672,5.000 -0.000,4.328 -0.000,3.500 C-0.000,3.500 -0.000,1.500 -0.000,1.500 C-0.000,0.672 0.672,-0.000 1.500,-0.000 C2.328,-0.000 3.000,0.672 3.000,1.500 C3.000,1.500 3.000,3.500 3.000,3.500 C3.000,4.328 2.328,5.000 1.500,5.000 z" fill="#9097A5" />
</svg>
