<svg version="1.1" xmlns="http://www.w3.org/2000/svg" xmlns:xlink="http://www.w3.org/1999/xlink" width="18" height="18" viewBox="0 0 18 18">
<path id="cart" d="M17.000,9.000 L16.000,10.000 L6.000,10.000 L4.231,9.000 L3.000,2.000 C3.000,2.000 1.000,2.000 1.000,2.000 C0.415,2.000 -0.000,1.587 -0.000,1.000 C-0.000,0.413 0.415,-0.000 1.000,-0.000 C1.000,-0.000 2.730,-0.000 2.730,-0.000 C3.006,-0.000 3.608,-0.000 3.608,-0.000 C4.159,-0.074 4.461,0.462 4.608,1.000 C4.608,1.000 5.002,3.000 5.002,3.000 L17.000,3.000 L18.000,4.000 L18.000,5.000 L17.000,9.000 zM5.384,5.000 L5.829,8.000 L15.353,8.000 L16.000,5.000 L5.384,5.000 zM6.995,11.999 C8.656,11.999 10.003,13.342 10.003,14.998 C10.003,16.654 8.656,17.997 6.995,17.997 C5.334,17.997 3.987,16.654 3.987,14.998 C3.987,13.342 5.334,11.999 6.995,11.999 zM6.025,15.996 L8.018,15.996 L8.018,13.997 L6.025,13.997 L6.025,15.996 zM14.003,11.999 C15.664,11.999 17.011,13.342 17.011,14.998 C17.011,16.654 15.664,17.997 14.003,17.997 C12.342,17.997 10.995,16.654 10.995,14.998 C10.995,13.342 12.342,11.999 14.003,11.999 zM12.979,15.996 L14.972,15.996 L14.972,13.997 L12.979,13.997 L12.979,15.996 z" fill="#fff" />
</svg>
