<svg version="1.1" xmlns="http://www.w3.org/2000/svg" xmlns:xlink="http://www.w3.org/1999/xlink" width="126" height="152" viewBox="0 0 126 152">
<path id="Forma-1" d="M125.975,133.982 C125.794,135.419 124.482,136.437 123.044,136.257 C123.044,136.257 104.277,133.916 104.277,133.916 C104.277,133.916 99.645,150.099 99.645,150.099 C99.373,151.048 98.591,151.764 97.621,151.952 C97.457,151.983 97.290,151.999 97.123,151.999 C96.310,151.998 95.545,151.621 95.049,150.980 C95.049,150.980 78.288,129.461 78.288,129.461 C74.163,133.470 68.745,135.886 63.002,136.275 C57.258,135.886 51.841,133.470 47.716,129.461 C47.716,129.461 30.955,150.987 30.955,150.987 C30.457,151.626 29.692,152.000 28.881,151.999 C28.714,151.999 28.547,151.983 28.382,151.952 C27.412,151.764 26.630,151.048 26.359,150.099 C26.359,150.099 21.726,133.914 21.726,133.914 C21.726,133.914 2.960,136.254 2.960,136.254 C2.269,136.340 1.572,136.149 1.022,135.723 C-0.122,134.834 -0.329,133.188 0.561,132.045 C0.561,132.045 16.545,111.544 16.545,111.544 C11.366,110.003 6.890,106.699 3.897,102.206 C0.136,95.725 1.847,87.808 3.482,80.151 C4.478,76.216 5.073,72.191 5.259,68.137 C5.074,64.083 4.480,60.059 3.485,56.124 C1.839,48.472 0.138,40.550 3.900,34.058 C7.795,27.339 15.637,24.852 23.222,22.451 C26.997,21.416 30.653,19.989 34.130,18.195 C37.286,16.150 40.215,13.777 42.871,11.117 C48.500,5.904 54.881,-0.001 63.002,-0.001 C71.123,-0.001 77.503,5.904 83.130,11.119 C85.787,13.779 88.717,16.151 91.873,18.195 C95.351,19.993 99.008,21.423 102.784,22.462 C110.369,24.862 118.212,27.349 122.107,34.068 C125.868,40.550 124.157,48.466 122.521,56.124 C121.525,60.058 120.930,64.083 120.744,68.137 C120.931,72.188 121.526,76.209 122.521,80.140 C124.167,87.792 125.868,95.715 122.107,102.206 C119.117,106.698 114.647,110.002 109.472,111.546 C109.472,111.546 125.443,132.048 125.443,132.048 C125.870,132.597 126.062,133.293 125.975,133.982 zM8.608,130.268 C8.608,130.268 23.306,128.434 23.306,128.434 C24.589,128.274 25.798,129.072 26.154,130.313 C26.154,130.313 29.983,143.694 29.983,143.694 L43.776,125.989 C43.776,125.989 42.873,125.155 42.873,125.155 C40.217,122.495 37.287,120.124 34.130,118.080 C30.656,116.286 27.004,114.860 23.233,113.824 C23.233,113.824 21.781,113.360 21.781,113.360 L8.608,130.268 zM117.564,99.585 C120.309,94.842 118.892,88.235 117.387,81.241 C116.306,76.950 115.672,72.558 115.495,68.137 C115.673,63.716 116.308,59.325 117.390,55.034 C118.894,48.037 120.311,41.430 117.566,36.689 C114.689,31.725 108.136,29.650 101.199,27.451 C97.060,26.304 93.054,24.723 89.248,22.734 C85.751,20.497 82.505,17.890 79.566,14.958 C74.165,9.958 69.065,5.241 63.002,5.241 C56.939,5.241 51.839,9.958 46.435,14.958 C43.497,17.890 40.252,20.497 36.755,22.734 C32.950,24.723 28.946,26.304 24.808,27.451 C17.871,29.650 11.327,31.725 8.440,36.689 C5.695,41.433 7.112,48.039 8.616,55.034 C9.698,59.325 10.332,63.716 10.509,68.137 C10.331,72.558 9.696,76.950 8.613,81.241 C7.109,88.238 5.692,94.844 8.438,99.585 C11.314,104.549 17.868,106.624 24.805,108.823 C28.944,109.970 32.950,111.551 36.755,113.540 C40.253,115.778 43.499,118.385 46.437,121.316 C51.839,126.316 56.939,131.033 63.002,131.033 C69.065,131.033 74.165,126.316 79.569,121.316 C82.506,118.385 85.752,115.778 89.248,113.540 C93.053,111.552 97.058,109.970 101.196,108.823 C108.133,106.624 114.676,104.549 117.564,99.585 zM104.233,113.360 C104.233,113.360 102.781,113.824 102.781,113.824 C99.007,114.859 95.351,116.285 91.873,118.080 C88.718,120.125 85.788,122.497 83.133,125.158 C83.133,125.158 82.230,125.991 82.230,125.991 L96.020,143.694 C96.020,143.694 99.863,130.313 99.863,130.313 C100.219,129.072 101.427,128.274 102.710,128.434 C102.710,128.434 117.409,130.268 117.409,130.268 L104.233,113.360 zM63.002,115.309 C36.910,115.309 15.758,94.190 15.758,68.137 C15.758,42.084 36.910,20.965 63.002,20.965 C89.082,20.995 110.216,42.097 110.246,68.137 C110.246,94.190 89.094,115.309 63.002,115.309 zM63.002,26.206 C39.809,26.206 21.007,44.980 21.007,68.137 C21.007,91.295 39.809,110.068 63.002,110.068 C86.184,110.040 104.969,91.284 104.996,68.137 C104.996,44.980 86.195,26.206 63.002,26.206 zM92.130,64.513 C92.130,64.513 79.122,73.947 79.122,73.947 C79.122,73.947 84.091,89.221 84.091,89.221 C84.820,91.379 84.045,93.760 82.186,95.081 C80.353,96.440 77.845,96.440 76.012,95.081 C76.012,95.081 63.002,85.646 63.002,85.646 C63.002,85.646 49.986,95.078 49.986,95.078 C48.626,96.064 46.876,96.342 45.277,95.823 C42.520,94.928 41.011,91.971 41.907,89.218 C41.907,89.218 46.876,73.947 46.876,73.947 C46.876,73.947 33.868,64.513 33.868,64.513 C32.510,63.526 31.707,61.950 31.708,60.273 C31.709,57.378 34.061,55.032 36.960,55.034 C36.960,55.034 53.041,55.034 53.041,55.034 C53.041,55.034 58.015,39.763 58.015,39.763 C58.536,38.181 59.778,36.940 61.363,36.421 C64.117,35.517 67.084,37.013 67.989,39.763 C67.989,39.763 72.976,55.034 72.976,55.034 C72.976,55.034 89.044,55.034 89.044,55.034 C90.722,55.034 92.298,55.836 93.285,57.191 C94.992,59.531 94.475,62.810 92.130,64.513 zM71.057,60.273 C69.920,60.273 68.912,59.541 68.561,58.462 C68.561,58.462 63.002,41.383 63.002,41.383 C63.002,41.383 57.443,58.464 57.443,58.464 C57.091,59.544 56.084,60.275 54.947,60.275 C54.947,60.275 36.960,60.275 36.960,60.275 C36.960,60.275 51.511,70.831 51.511,70.831 C52.431,71.499 52.815,72.682 52.464,73.761 C52.464,73.761 46.907,90.843 46.907,90.843 C46.907,90.843 61.461,80.287 61.461,80.287 C62.381,79.620 63.626,79.620 64.545,80.287 C64.545,80.287 79.099,90.843 79.099,90.843 C79.099,90.843 73.540,73.761 73.540,73.761 C73.187,72.681 73.572,71.496 74.493,70.829 C74.493,70.829 89.044,60.275 89.044,60.275 C89.044,60.275 71.057,60.273 71.057,60.273 z" fill="#FFFFFF" opacity="0.800" />
</svg>
