<svg version="1.1" xmlns="http://www.w3.org/2000/svg" xmlns:xlink="http://www.w3.org/1999/xlink" width="12" height="12" viewBox="0 0 12 12">
<path id="cross" d="M11.657,3.171 C11.657,3.171 8.828,6.000 8.828,6.000 C8.828,6.000 11.657,8.828 11.657,8.828 C12.438,9.609 12.438,10.876 11.657,11.657 C10.876,12.437 9.609,12.438 8.828,11.657 C8.828,11.657 6.000,8.828 6.000,8.828 C6.000,8.828 3.171,11.657 3.171,11.657 C2.390,12.438 1.124,12.438 0.343,11.657 C-0.438,10.876 -0.438,9.609 0.343,8.828 C0.343,8.828 3.171,6.000 3.171,6.000 C3.171,6.000 0.343,3.171 0.343,3.171 C-0.438,2.390 -0.438,1.124 0.343,0.343 C1.124,-0.438 2.390,-0.438 3.171,0.343 C3.171,0.343 6.000,3.171 6.000,3.171 C6.000,3.171 8.828,0.343 8.828,0.343 C9.609,-0.438 10.876,-0.438 11.657,0.343 C12.438,1.124 12.438,2.390 11.657,3.171 z" fill="#FFFFFF" />
</svg>
