<svg version="1.1" xmlns="http://www.w3.org/2000/svg" xmlns:xlink="http://www.w3.org/1999/xlink" width="20" height="21" viewBox="0 0 20 21">
<path id="double" d="M4.988,16.388 C3.166,15.002 2.000,12.878 2.000,10.495 C2.000,6.974 4.551,4.023 8.000,3.182 C8.000,3.182 8.000,1.234 8.000,1.234 C3.435,2.110 -0.000,5.923 -0.000,10.495 C-0.000,13.321 1.312,15.854 3.391,17.586 C5.000,19.002 6.000,17.112 4.988,16.388 zM16.524,3.337 C15.500,2.462 14.000,3.880 14.983,4.583 C16.822,5.967 18.000,8.101 18.000,10.495 C18.000,14.018 15.448,16.968 12.000,17.809 C12.000,17.809 12.000,19.758 12.000,19.758 C16.564,18.881 20.000,15.068 20.000,10.495 C20.000,7.633 18.652,5.069 16.524,3.337 zM8.884,4.815 C8.884,4.815 12.139,2.973 12.139,2.973 C12.612,2.704 12.613,2.268 12.141,1.998 C12.141,1.998 8.856,0.119 8.856,0.119 C8.384,-0.152 8.002,0.053 8.004,0.574 C8.004,0.574 8.022,4.356 8.022,4.356 C8.023,4.877 8.409,5.083 8.884,4.815 zM11.145,16.186 C11.145,16.186 7.859,18.065 7.859,18.065 C7.386,18.335 7.387,18.772 7.861,19.040 C7.861,19.040 11.116,20.882 11.116,20.882 C11.590,21.150 11.977,20.945 11.979,20.422 C11.979,20.422 11.996,16.642 11.996,16.642 C11.998,16.120 11.616,15.917 11.145,16.186 z" fill="#FFFFFF" />
</svg>
