<svg version="1.1" xmlns="http://www.w3.org/2000/svg" xmlns:xlink="http://www.w3.org/1999/xlink" width="18" height="18" viewBox="0 0 18 18">
<path id="expand" d="M12.000,18.000 L12.000,16.000 L15.999,16.000 L15.999,12.000 L18.000,12.000 L18.000,16.000 L18.000,16.000 L18.000,18.000 L12.000,18.000 zM18.000,6.000 L15.999,6.000 L15.999,2.000 L12.000,2.000 L12.000,-0.000 L15.999,-0.000 L15.999,-0.000 L18.000,-0.000 L18.000,-0.000 L18.000,-0.000 L18.000,2.000 L18.000,2.000 L18.000,6.000 zM-0.000,18.000 L-0.000,16.000 L-0.000,12.000 L2.000,12.000 L2.000,16.000 L6.000,16.000 L6.000,18.000 L2.000,18.000 L-0.000,18.000 zM2.000,6.000 L-0.000,6.000 L-0.000,2.000 L-0.000,-0.000 L2.000,-0.000 L6.000,-0.000 L6.000,2.000 L2.000,2.000 L2.000,6.000 z" fill="#4E5566" />
</svg>
