<svg version="1.1" xmlns="http://www.w3.org/2000/svg" xmlns:xlink="http://www.w3.org/1999/xlink" width="192" height="188" viewBox="0 0 192 188">
<g id="Forma-1" >
<path id="Forma-1-stroke" d="M187.172,143.428 C186.651,141.891 183.357,139.637 177.286,136.653 C175.640,135.721 173.298,134.440 170.264,132.822 C167.231,131.203 164.475,129.717 162.005,128.350 C159.533,126.990 157.213,125.669 155.046,124.394 C154.700,124.136 153.616,123.393 151.794,122.158 C149.973,120.923 148.436,120.008 147.176,119.407 C145.919,118.813 144.686,118.516 143.470,118.516 C141.735,118.516 139.568,119.728 136.969,122.158 C134.368,124.582 131.983,127.224 129.818,130.077 C127.649,132.931 125.353,135.573 122.925,137.997 C120.498,140.427 118.503,141.638 116.942,141.638 C116.160,141.638 115.185,141.427 114.013,140.998 C112.846,140.575 111.956,140.210 111.348,139.918 C110.742,139.615 109.702,139.020 108.228,138.122 C106.751,137.230 105.927,136.739 105.756,136.653 C93.875,130.186 83.687,122.776 75.191,114.428 C66.695,106.085 59.150,96.079 52.558,84.409 C52.473,84.237 51.973,83.431 51.064,81.985 C50.151,80.532 49.545,79.514 49.242,78.914 C48.939,78.319 48.570,77.445 48.136,76.295 C47.703,75.145 47.487,74.191 47.487,73.425 C47.487,71.892 48.723,69.931 51.193,67.547 C53.665,65.162 56.353,62.904 59.259,60.777 C62.163,58.650 64.851,56.305 67.321,53.755 C69.793,51.200 71.028,49.072 71.028,47.368 C71.028,46.179 70.726,44.961 70.118,43.726 C69.512,42.491 68.579,40.981 67.321,39.192 C66.063,37.403 65.305,36.338 65.045,35.996 C63.744,33.869 62.403,31.593 61.014,29.162 C59.625,26.738 58.108,24.034 56.462,21.055 C54.814,18.076 53.516,15.771 52.558,14.153 C49.525,8.195 47.227,4.959 45.666,4.451 C45.060,4.193 44.147,4.067 42.933,4.067 C40.591,4.067 37.537,4.490 33.765,5.342 C29.992,6.194 27.022,7.087 24.855,8.024 C20.519,9.814 15.925,15.005 11.068,23.606 C6.645,31.610 4.434,39.535 4.434,47.368 C4.434,49.661 4.585,51.897 4.890,54.075 C5.193,56.243 5.736,58.696 6.516,61.418 C7.297,64.144 7.926,66.169 8.402,67.483 C8.877,68.805 9.765,71.166 11.068,74.575 C12.367,77.982 13.148,80.069 13.408,80.835 C16.444,89.177 20.040,96.634 24.203,103.186 C31.051,114.090 40.395,125.354 52.229,136.979 C64.067,148.603 75.534,157.780 86.633,164.504 C93.310,168.592 100.899,172.127 109.395,175.111 C110.176,175.362 112.301,176.129 115.768,177.410 C119.236,178.685 121.643,179.559 122.986,180.028 C124.329,180.497 126.389,181.115 129.164,181.881 C131.940,182.647 134.433,183.179 136.642,183.482 C138.853,183.774 141.131,183.928 143.472,183.928 C151.449,183.928 159.511,181.756 167.665,177.415 C176.418,172.641 181.709,168.129 183.528,163.870 C184.488,161.743 185.394,158.827 186.261,155.122 C187.129,151.416 187.561,148.414 187.561,146.115 C187.565,144.921 187.434,144.029 187.172,143.428 z" fill="none" stroke="#F1F4FB" stroke-width="8" />
</g>
</svg>
