<svg version="1.1" xmlns="http://www.w3.org/2000/svg" xmlns:xlink="http://www.w3.org/1999/xlink" width="10" height="10" viewBox="0 0 10 10">
<path id="grid" d="M8.000,10.000 L8.000,8.000 L10.000,8.000 L10.000,10.000 L8.000,10.000 zM8.000,4.000 L10.000,4.000 L10.000,6.000 L8.000,6.000 L8.000,4.000 zM8.000,-0.000 L10.000,-0.000 L10.000,2.000 L8.000,2.000 L8.000,-0.000 zM4.000,8.000 L6.000,8.000 L6.000,10.000 L4.000,10.000 L4.000,8.000 zM4.000,4.000 L6.000,4.000 L6.000,6.000 L4.000,6.000 L4.000,4.000 zM4.000,-0.000 L6.000,-0.000 L6.000,2.000 L4.000,2.000 L4.000,-0.000 zM-0.000,8.000 L2.000,8.000 L2.000,10.000 L-0.000,10.000 L-0.000,8.000 zM-0.000,4.000 L2.000,4.000 L2.000,6.000 L-0.000,6.000 L-0.000,4.000 zM-0.000,-0.000 L2.000,-0.000 L2.000,2.000 L-0.000,2.000 L-0.000,-0.000 z" fill="#9097A5" />
</svg>
