<svg version="1.1" xmlns="http://www.w3.org/2000/svg" xmlns:xlink="http://www.w3.org/1999/xlink" width="24" height="22" viewBox="0 0 24 22">
<path id="more" d="M24.005,9.894 L21.091,13.194 L18.176,9.894 L19.148,8.794 C19.148,8.794 20.319,10.120 20.319,10.120 C19.878,5.268 15.835,1.467 10.909,1.467 C5.687,1.467 1.454,5.734 1.454,11.000 C1.454,16.265 5.687,20.533 10.909,20.533 C10.831,21.505 10.878,21.098 10.909,22.000 C4.883,22.000 -0.000,17.075 -0.000,11.000 C-0.000,4.925 4.883,-0.000 10.909,-0.000 C16.671,-0.000 21.378,4.508 21.778,10.215 C21.778,10.215 23.034,8.794 23.034,8.794 L24.005,9.894 z" fill="#CED2DA" />
</svg>
