<svg version="1.1" xmlns="http://www.w3.org/2000/svg" xmlns:xlink="http://www.w3.org/1999/xlink" width="222" height="70" viewBox="0 0 222 70">
<path id="text" d="M218.318,54.003 C218.952,56.106 222.000,53.265 222.000,53.265 C222.000,53.265 217.594,59.126 216.846,55.478 C216.087,51.782 217.580,50.323 217.582,50.314 C216.370,50.481 213.156,55.904 210.955,56.954 C209.782,57.496 210.561,53.374 211.691,50.314 C212.822,47.254 213.795,44.925 213.164,44.412 C212.533,43.899 210.219,45.150 210.219,45.150 C210.219,45.150 212.850,41.963 214.637,42.936 C216.969,44.206 211.382,50.923 213.164,53.265 C213.406,53.582 214.477,53.810 216.846,49.576 C218.561,46.511 219.816,42.363 221.264,42.936 C221.669,43.633 217.317,50.088 218.318,54.003 zM208.746,53.265 C208.746,53.265 204.341,59.126 203.592,55.478 C202.833,51.782 204.326,50.323 204.328,50.314 C203.116,50.481 199.902,55.904 197.701,56.954 C196.528,57.496 197.308,53.374 198.438,50.314 C199.568,47.254 200.541,44.925 199.910,44.412 C199.280,43.899 196.965,45.150 196.965,45.150 C196.965,45.150 199.596,41.963 201.383,42.936 C203.715,44.206 198.128,50.923 199.910,53.265 C200.152,53.582 201.223,53.810 203.592,49.576 C205.307,46.511 206.562,42.363 208.010,42.936 C208.415,43.633 204.064,50.088 205.065,54.003 C205.699,56.106 208.746,53.265 208.746,53.265 zM196.229,52.527 C196.229,52.527 193.139,58.113 190.338,55.478 C187.537,52.844 194.891,46.123 193.284,44.412 C191.676,42.700 188.866,46.625 188.866,46.625 C188.866,46.625 192.312,41.335 194.756,43.674 C196.772,45.604 190.017,52.820 191.811,54.741 C192.986,55.999 196.229,52.527 196.229,52.527 zM181.502,56.954 C176.399,56.033 180.405,41.913 185.920,42.199 C192.260,44.168 183.880,56.922 181.502,56.954 zM182.239,54.741 C184.363,54.931 188.600,45.580 184.448,43.674 C181.626,42.975 178.942,54.550 182.239,54.741 zM174.876,56.216 C173.798,55.581 174.210,48.506 174.876,47.363 C173.259,46.569 171.958,53.516 168.249,56.216 C167.742,56.534 166.427,55.598 166.776,54.741 C168.044,54.709 171.233,51.450 171.930,49.576 C174.308,42.747 176.894,41.881 177.085,42.199 C177.433,42.834 175.770,45.190 175.612,52.527 C175.580,54.973 178.557,54.003 178.557,54.003 C178.557,54.003 176.809,56.915 174.876,56.216 zM162.358,56.954 C157.255,56.033 161.260,41.913 166.776,42.199 C173.116,44.168 164.736,56.922 162.358,56.954 zM163.094,54.741 C165.218,54.931 169.456,45.580 165.303,43.674 C162.482,42.975 159.798,54.550 163.094,54.741 zM147.632,41.461 C151.809,32.161 160.848,43.882 165.303,35.559 C161.507,46.928 152.320,34.253 147.632,41.461 zM166.104,28.181 C166.104,28.181 162.503,32.498 160.950,31.132 C159.397,29.766 162.447,25.739 161.686,25.230 C160.271,24.542 158.427,27.885 156.532,29.657 C154.729,31.343 153.438,31.901 152.851,31.870 C152.076,31.773 151.895,31.319 151.964,30.796 C151.273,31.523 150.250,32.261 149.169,31.870 C148.091,31.235 148.503,24.160 149.169,23.017 C147.552,22.223 146.251,29.170 142.542,31.870 C142.035,32.188 140.721,31.252 141.070,30.395 C142.338,30.363 145.526,27.104 146.224,25.230 C148.601,18.401 151.188,17.535 151.378,17.853 C151.727,18.488 150.064,20.844 149.905,28.181 C149.882,29.969 151.464,29.931 152.318,29.781 C152.567,29.296 152.851,28.919 152.851,28.919 C152.851,28.919 152.763,30.299 153.587,30.395 C154.033,30.446 155.077,29.044 156.532,27.444 C157.767,26.085 159.636,25.033 159.478,24.493 C158.844,24.652 156.310,24.376 156.532,22.279 C157.261,16.435 164.868,18.552 166.104,17.853 C163.156,22.300 161.947,29.181 162.423,29.657 C162.898,30.133 166.104,28.181 166.104,28.181 zM163.895,18.590 C162.406,18.146 157.815,20.056 158.005,22.279 C158.005,23.105 159.430,24.401 160.950,24.493 C163.613,24.654 161.360,19.956 163.895,18.590 zM131.497,38.510 C126.477,38.045 127.267,33.726 127.816,33.346 C128.153,33.176 128.502,36.908 131.497,37.035 C136.603,36.992 140.019,28.397 139.597,26.706 C139.091,26.579 134.531,32.293 132.970,31.870 C129.561,25.767 138.345,17.735 140.333,17.853 C141.633,17.873 141.412,18.394 141.806,18.590 C142.200,18.788 143.062,18.216 143.279,18.590 C143.495,18.965 141.239,26.526 140.333,30.395 C139.700,32.212 135.674,38.890 131.497,38.510 zM141.070,19.328 C134.062,18.855 133.872,29.519 134.443,29.657 C135.978,29.972 142.625,21.162 141.070,19.328 zM121.925,24.493 C121.621,23.937 127.092,21.731 125.607,19.328 C124.981,18.468 120.399,21.513 120.453,28.181 C120.453,28.630 120.580,30.226 121.925,30.395 C123.506,30.593 126.343,28.919 126.343,28.919 C126.343,28.919 122.833,32.053 121.189,31.870 C119.519,31.684 118.980,30.189 118.980,28.181 C119.195,19.146 126.364,17.064 127.080,17.853 C130.175,21.456 122.605,24.636 121.925,24.493 zM117.507,19.328 C116.270,19.564 113.425,21.079 112.353,27.444 C111.925,30.645 115.441,30.847 117.507,29.657 C117.475,30.472 111.686,34.607 110.881,28.919 C110.075,23.231 116.824,17.853 118.244,17.853 C121.274,17.930 119.517,19.797 118.980,20.066 C118.740,20.101 118.506,19.138 117.507,19.328 zM110.881,15.640 C110.574,19.214 106.463,20.804 106.463,20.804 C106.463,20.804 111.026,22.747 110.144,26.706 C109.262,30.665 103.963,31.716 102.045,31.870 C92.953,29.680 91.077,33.044 91.000,31.870 C91.345,28.181 98.892,30.825 101.308,31.132 C102.114,31.056 106.593,32.010 107.935,26.706 C109.278,21.402 102.666,22.187 102.781,20.804 C104.469,20.381 107.912,20.067 109.408,16.377 C109.955,14.732 107.090,12.494 104.630,12.014 C100.644,18.050 100.016,29.813 95.418,29.657 C98.640,28.611 98.365,17.477 103.210,11.901 C97.192,11.874 94.163,16.747 93.945,14.164 C93.741,12.687 100.762,10.927 104.098,10.990 C105.149,10.051 106.406,9.349 107.935,9.000 C106.917,9.440 106.053,10.178 105.297,11.109 C108.798,11.680 111.044,13.737 110.881,15.640 zM93.881,44.412 C93.722,44.094 92.432,45.111 91.672,44.412 C91.608,43.777 94.434,43.120 95.353,42.199 C96.590,42.580 93.944,48.518 93.881,51.789 C93.690,55.823 91.284,57.176 90.935,56.954 C90.587,55.906 94.515,45.778 93.881,44.412 zM101.244,42.199 C102.100,42.199 102.614,43.078 101.980,44.412 C96.854,44.037 96.810,47.178 96.826,48.101 C96.858,49.689 97.830,52.478 99.035,54.003 C100.239,55.527 99.749,55.807 101.244,55.478 C101.212,55.923 100.154,57.058 99.035,56.954 C97.672,56.827 95.131,49.523 95.353,47.363 C95.575,45.203 100.388,42.199 101.244,42.199 zM108.607,42.199 C114.947,44.168 106.566,56.922 104.189,56.954 C99.085,56.033 103.091,41.913 108.607,42.199 zM104.925,54.741 C107.049,54.931 111.287,45.580 107.134,43.674 C104.313,42.975 101.629,54.550 104.925,54.741 zM117.443,42.936 C120.473,43.013 118.716,44.881 118.179,45.150 C117.939,45.184 117.705,44.222 116.706,44.412 C115.469,44.648 112.623,46.163 111.552,52.527 C111.124,55.728 114.640,55.930 116.706,54.741 C116.674,55.555 110.885,59.691 110.080,54.003 C109.274,48.315 116.023,42.936 117.443,42.936 zM124.070,42.936 C124.688,43.260 124.070,53.265 124.070,53.265 C124.070,53.265 126.138,50.612 127.751,48.101 C129.509,45.363 130.846,42.756 131.433,42.936 C131.721,43.025 131.186,45.623 130.696,48.838 C130.306,51.404 130.372,54.263 130.696,54.741 C131.021,55.218 132.144,54.537 132.169,54.741 C132.190,54.913 131.433,57.166 129.527,56.949 C127.059,56.494 129.635,48.166 129.224,48.101 C128.488,47.862 123.095,56.281 122.597,56.216 C122.012,55.977 123.311,46.777 122.597,46.625 C121.991,46.582 118.785,57.310 116.706,56.954 C115.297,56.055 118.558,54.086 119.652,51.789 C121.519,47.869 122.667,42.203 124.070,42.936 zM141.741,42.936 C144.837,46.539 137.267,49.720 136.587,49.576 C136.283,49.020 141.754,46.814 140.269,44.412 C139.642,43.551 135.061,46.596 135.114,53.265 C135.114,53.713 135.241,55.310 136.587,55.478 C138.167,55.676 141.005,54.003 141.005,54.003 C141.005,54.003 137.494,57.137 135.851,56.954 C134.181,56.768 133.642,55.273 133.642,53.265 C133.857,44.230 141.025,42.148 141.741,42.936 zM144.687,44.412 C144.644,43.989 143.214,44.412 143.214,44.412 C143.214,44.412 145.315,41.734 146.159,42.199 C146.766,42.604 146.364,45.070 145.682,47.771 C146.685,46.510 150.414,42.026 152.050,42.936 C152.778,43.342 152.550,45.148 151.979,47.270 C153.345,45.617 156.478,42.123 157.940,42.936 C159.305,43.696 156.436,49.883 155.997,53.572 C155.649,56.495 159.484,53.741 159.413,54.003 C159.160,54.933 155.767,57.692 154.259,56.216 C153.735,55.704 153.927,53.748 154.995,51.052 C155.963,48.606 156.769,45.732 156.468,45.150 C155.975,44.195 153.129,46.513 151.893,47.586 C150.954,50.935 149.256,54.923 149.104,55.478 C148.851,56.408 147.011,56.635 146.895,56.216 C146.700,55.509 148.037,53.748 149.104,51.052 C150.072,48.606 150.878,45.732 150.577,45.150 C150.029,44.088 146.566,47.077 145.650,47.896 C144.768,51.354 143.449,55.148 143.214,55.478 C142.792,56.070 141.553,57.250 141.005,56.954 C140.752,56.817 142.311,53.845 143.214,51.052 C144.267,47.793 144.709,44.639 144.687,44.412 z" fill="#9879BA" />
<path id="label" d="M11.399,33.927 C22.359,38.672 24.451,36.234 28.994,38.010 C28.507,38.418 20.484,36.383 12.146,40.192 C4.566,44.809 9.030,53.307 5.263,59.564 C13.105,55.950 14.598,57.621 22.086,53.198 C28.201,47.642 28.949,42.305 31.701,41.146 C31.841,41.450 25.406,45.499 29.976,58.054 C32.325,64.508 41.170,66.873 44.339,70.001 C44.216,63.788 48.269,59.517 44.854,50.836 C42.624,45.167 38.995,42.024 38.995,41.010 C40.377,40.669 38.978,43.410 51.969,48.675 C60.578,50.212 61.358,48.049 70.001,48.675 C62.406,43.102 65.243,34.143 56.477,32.452 C49.717,31.189 46.997,33.010 46.997,33.010 C46.997,33.010 49.550,32.432 54.975,28.027 C59.906,23.955 57.830,18.744 63.990,10.330 C56.169,15.690 47.150,10.811 42.610,17.573 C38.975,22.616 39.621,22.603 37.995,25.009 C38.807,22.728 40.042,21.333 39.948,17.704 C39.708,8.401 33.061,7.166 32.436,0.007 C31.081,9.313 23.695,9.383 23.420,16.230 C23.025,26.057 30.994,32.010 30.994,32.010 C27.315,30.793 26.651,26.292 20.833,21.328 C13.920,17.566 9.248,24.498 0.004,23.046 C6.560,28.604 4.234,29.015 11.399,33.927 zM59.483,42.775 C40.436,34.128 35.770,37.924 35.770,37.924 C35.770,37.924 31.889,42.574 35.608,57.526 C31.904,54.508 31.994,41.010 31.994,41.010 C31.994,41.010 21.735,42.605 14.991,47.011 C21.915,39.369 31.994,39.010 31.994,39.010 C31.994,39.010 26.220,28.796 13.991,26.009 C20.555,25.200 31.994,34.010 31.994,34.010 C31.994,34.010 26.663,20.815 28.994,16.008 C32.141,25.719 37.405,29.250 37.405,29.250 C37.405,29.250 43.786,17.734 53.375,18.084 C41.685,23.163 40.995,34.010 40.995,34.010 C40.995,34.010 49.614,31.988 59.483,42.775 z" fill="#BF9DE4" />
</svg>
