<svg version="1.1" xmlns="http://www.w3.org/2000/svg" xmlns:xlink="http://www.w3.org/1999/xlink" width="164" height="81" viewBox="0 0 164 81">
<path id="mail" d="M164.000,81.000 C164.000,81.000 164.000,14.423 164.000,14.423 C164.000,6.500 157.553,-0.000 149.586,-0.000 C149.586,-0.000 14.414,-0.000 14.414,-0.000 C6.475,-0.000 -0.001,6.473 -0.001,14.423 C-0.001,14.423 -0.001,79.797 -0.001,79.797 L9.609,79.660 L9.609,16.368 L55.888,62.278 L38.000,80.000 L52.000,80.000 L62.711,69.048 L74.000,80.000 L91.000,80.000 L101.539,69.299 L112.000,80.000 L126.000,80.000 L108.333,62.500 L154.390,16.414 L154.000,80.000 L164.000,81.000 zM147.595,9.615 L82.305,74.946 L16.450,9.615 L147.595,9.615 z" fill="#F1F4FB" />
</svg>
