<svg version="1.1" xmlns="http://www.w3.org/2000/svg" xmlns:xlink="http://www.w3.org/1999/xlink" width="21" height="24" viewBox="0 0 21 24">
<path id="Forma-1" d="M18.000,17.928 C17.206,21.349 14.145,24.000 10.500,24.000 C6.855,24.000 3.794,21.349 3.000,17.928 C1.064,15.945 -0.000,13.332 -0.000,10.547 C-0.000,7.730 1.092,5.081 3.075,3.089 C5.058,1.097 7.695,-0.000 10.500,-0.000 C13.305,-0.000 15.941,1.097 17.925,3.089 C19.908,5.081 21.000,7.730 21.000,10.547 C21.000,13.332 19.936,15.945 18.000,17.928 zM4.200,16.172 C4.200,19.661 7.026,22.594 10.500,22.594 C13.974,22.594 16.800,19.661 16.800,16.172 C16.800,16.172 16.800,13.359 16.800,13.359 C16.800,11.365 15.882,9.520 14.319,8.325 C13.172,9.282 11.704,9.844 10.126,9.844 C8.982,9.844 7.414,9.844 6.215,10.468 C4.859,11.174 4.200,12.580 4.200,14.765 C4.200,14.765 4.200,16.172 4.200,16.172 zM10.500,1.406 C5.482,1.406 1.400,5.507 1.400,10.547 C1.400,12.303 1.888,13.979 2.800,15.425 C2.800,15.425 2.800,14.765 2.800,14.765 C2.800,12.043 3.732,10.177 5.571,9.219 C7.073,8.437 8.838,8.437 10.126,8.437 C12.482,8.437 14.529,6.844 15.119,4.557 C15.119,4.557 15.318,2.796 15.318,2.796 C13.920,1.916 12.268,1.406 10.500,1.406 zM16.615,3.784 C16.615,3.784 16.500,4.809 16.500,4.809 C16.500,4.809 16.488,4.854 16.488,4.854 C16.260,5.771 15.849,6.601 15.299,7.309 C17.129,8.771 18.200,10.978 18.200,13.359 C18.200,13.359 18.200,15.425 18.200,15.425 C19.112,13.979 19.600,12.303 19.600,10.547 C19.600,7.869 18.448,5.457 16.615,3.784 zM8.605,14.268 C8.605,14.268 9.595,15.263 9.595,15.263 C9.089,15.771 8.416,16.051 7.700,16.051 C6.984,16.051 6.311,15.771 5.805,15.263 C5.805,15.263 6.795,14.268 6.795,14.268 C7.294,14.770 8.106,14.770 8.605,14.268 zM10.500,19.781 C11.246,19.781 11.943,19.377 12.319,18.725 C12.319,18.725 13.530,19.431 13.530,19.431 C12.905,20.514 11.744,21.187 10.500,21.187 C9.256,21.187 8.095,20.514 7.470,19.431 C7.470,19.431 8.681,18.725 8.681,18.725 C9.057,19.377 9.754,19.781 10.500,19.781 zM11.405,15.263 C11.405,15.263 12.395,14.268 12.395,14.268 C12.894,14.770 13.706,14.770 14.205,14.268 C14.205,14.268 15.195,15.263 15.195,15.263 C14.689,15.771 14.016,16.051 13.300,16.051 C12.584,16.051 11.911,15.771 11.405,15.263 z" fill="#FFFFFF" />
</svg>
