<svg version="1.1" xmlns="http://www.w3.org/2000/svg" xmlns:xlink="http://www.w3.org/1999/xlink" width="24" height="24" viewBox="0 0 24 24">
<path id="bg" d="M8.000,-0.000 C8.000,-0.000 16.000,-0.000 16.000,-0.000 C20.418,-0.000 24.000,3.582 24.000,8.000 C24.000,8.000 24.000,16.000 24.000,16.000 C24.000,20.418 20.418,24.000 16.000,24.000 C16.000,24.000 8.000,24.000 8.000,24.000 C3.582,24.000 -0.000,20.418 -0.000,16.000 C-0.000,16.000 -0.000,8.000 -0.000,8.000 C-0.000,3.582 3.582,-0.000 8.000,-0.000 z" fill="#3166b3" />
<path id="more" d="M16.000,13.000 C15.448,13.000 15.000,12.552 15.000,12.000 C15.000,11.448 15.448,11.000 16.000,11.000 C16.552,11.000 17.000,11.448 17.000,12.000 C17.000,12.552 16.552,13.000 16.000,13.000 zM12.000,13.000 C11.448,13.000 11.000,12.552 11.000,12.000 C11.000,11.448 11.448,11.000 12.000,11.000 C12.552,11.000 13.000,11.448 13.000,12.000 C13.000,12.552 12.552,13.000 12.000,13.000 zM8.000,13.000 C7.448,13.000 7.000,12.552 7.000,12.000 C7.000,11.448 7.448,11.000 8.000,11.000 C8.552,11.000 9.000,11.448 9.000,12.000 C9.000,12.552 8.552,13.000 8.000,13.000 z" fill="#ffffff" />
</svg>
