<svg version="1.1" xmlns="http://www.w3.org/2000/svg" xmlns:xlink="http://www.w3.org/1999/xlink" width="60" height="40" viewBox="0 0 60 40">
<path id="bg" d="M49.999,40.000 L48.000,40.000 L47.000,40.000 C47.000,40.000 5.999,40.000 5.999,40.000 C2.686,40.000 -0.001,37.313 -0.001,34.000 C-0.001,34.000 -0.001,6.000 -0.001,6.000 C-0.001,2.686 2.686,-0.000 5.999,-0.000 C5.999,-0.000 53.999,-0.000 53.999,-0.000 C57.313,-0.000 60.000,2.686 60.000,6.000 C60.000,6.000 60.000,26.000 60.000,26.000 L60.000,28.000 L60.000,30.000 L49.999,40.000 zM58.000,26.000 C58.000,26.000 58.000,7.000 58.000,7.000 C58.000,3.686 56.313,2.000 52.999,2.000 C52.999,2.000 6.999,2.000 6.999,2.000 C3.686,2.000 1.999,3.686 1.999,7.000 C1.999,7.000 1.999,33.000 1.999,33.000 C1.999,36.313 3.686,38.000 6.999,38.000 C6.999,38.000 45.000,38.000 45.000,38.000 L48.000,38.000 C48.000,38.000 48.000,34.000 48.000,34.000 C48.000,30.686 50.686,28.000 53.999,28.000 C53.999,28.000 58.000,28.000 58.000,28.000 L58.000,26.000 zM54.999,30.000 C51.686,30.000 49.999,31.686 49.999,35.000 C49.999,35.000 49.999,37.000 49.999,37.000 L56.999,30.000 C56.999,30.000 54.999,30.000 54.999,30.000 z" fill="#EBEEF4" />
<path id="pdf" d="M31.725,12.166 C31.725,12.166 27.899,12.166 27.899,12.166 L27.899,14.661 C27.899,14.661 31.221,14.661 31.221,14.661 C31.329,14.661 31.389,14.721 31.389,14.840 C31.389,14.840 31.389,15.800 31.389,15.800 C31.389,15.920 31.329,15.980 31.221,15.980 C31.221,15.980 27.899,15.980 27.899,15.980 C27.899,15.980 27.899,19.230 27.899,19.230 C27.899,19.350 27.839,19.410 27.731,19.410 C27.731,19.410 26.628,19.410 26.628,19.410 C26.520,19.410 26.460,19.350 26.460,19.230 C26.460,19.230 26.460,11.015 26.460,11.015 C26.460,10.895 26.520,10.835 26.628,10.835 C26.628,10.835 31.725,10.835 31.725,10.835 C31.845,10.835 31.905,10.895 31.905,11.015 C31.905,11.015 31.905,11.998 31.905,11.998 C31.905,12.106 31.845,12.166 31.725,12.166 zM21.286,19.410 C21.286,19.410 18.312,19.410 18.312,19.410 C18.204,19.410 18.144,19.350 18.144,19.230 C18.144,19.230 18.144,11.015 18.144,11.015 C18.144,10.895 18.204,10.835 18.312,10.835 C18.312,10.835 21.286,10.835 21.286,10.835 C23.277,10.835 24.524,11.902 24.524,14.001 C24.524,14.001 24.524,16.280 24.524,16.280 C24.524,18.355 23.277,19.410 21.286,19.410 zM23.025,13.989 C23.025,12.754 22.438,12.166 21.286,12.166 C21.286,12.166 19.595,12.166 19.595,12.166 L19.595,18.055 C19.595,18.055 21.286,18.055 21.286,18.055 C22.438,18.055 23.025,17.491 23.025,16.292 C23.025,16.292 23.025,13.989 23.025,13.989 zM13.522,16.699 C13.522,16.699 11.759,16.699 11.759,16.699 C11.759,16.699 11.759,19.230 11.759,19.230 C11.759,19.350 11.699,19.410 11.591,19.410 C11.591,19.410 10.488,19.410 10.488,19.410 C10.380,19.410 10.320,19.350 10.320,19.230 C10.320,19.230 10.320,11.015 10.320,11.015 C10.320,10.895 10.380,10.835 10.488,10.835 C10.488,10.835 13.522,10.835 13.522,10.835 C15.417,10.835 16.533,11.938 16.533,13.761 C16.533,15.608 15.417,16.699 13.522,16.699 zM13.354,12.178 C13.354,12.178 11.759,12.178 11.759,12.178 L11.759,15.356 C11.759,15.356 13.354,15.356 13.354,15.356 C14.518,15.356 15.058,14.852 15.058,13.761 C15.058,12.682 14.518,12.178 13.354,12.178 z" fill="#4E5566" />
</svg>
