<svg version="1.1" xmlns="http://www.w3.org/2000/svg" xmlns:xlink="http://www.w3.org/1999/xlink" width="12" height="12" viewBox="0 0 12 12">
<path id="phone" d="M11.577,9.079 C11.545,8.983 11.343,8.843 10.972,8.657 C10.871,8.599 10.728,8.519 10.543,8.418 C10.357,8.317 10.188,8.225 10.037,8.140 C9.886,8.055 9.744,7.973 9.612,7.893 C9.591,7.877 9.524,7.831 9.413,7.754 C9.301,7.677 9.207,7.620 9.130,7.583 C9.053,7.546 8.978,7.527 8.903,7.527 C8.798,7.527 8.665,7.603 8.506,7.754 C8.347,7.905 8.201,8.069 8.068,8.247 C7.936,8.425 7.795,8.589 7.647,8.740 C7.498,8.892 7.376,8.967 7.280,8.967 C7.233,8.967 7.173,8.954 7.102,8.927 C7.030,8.901 6.976,8.878 6.938,8.860 C6.901,8.841 6.838,8.804 6.747,8.748 C6.658,8.693 6.607,8.662 6.596,8.657 C5.869,8.254 5.247,7.792 4.727,7.272 C4.207,6.753 3.745,6.130 3.342,5.403 C3.337,5.392 3.306,5.342 3.251,5.252 C3.195,5.161 3.158,5.098 3.139,5.060 C3.121,5.023 3.098,4.969 3.071,4.897 C3.045,4.826 3.032,4.766 3.032,4.719 C3.032,4.623 3.107,4.501 3.259,4.352 C3.410,4.204 3.574,4.063 3.752,3.931 C3.930,3.798 4.094,3.652 4.245,3.493 C4.397,3.334 4.472,3.202 4.472,3.096 C4.472,3.022 4.454,2.946 4.417,2.869 C4.379,2.792 4.322,2.698 4.245,2.586 C4.169,2.475 4.122,2.409 4.106,2.387 C4.026,2.255 3.945,2.113 3.859,1.962 C3.775,1.811 3.682,1.642 3.581,1.457 C3.480,1.271 3.401,1.128 3.342,1.027 C3.157,0.656 3.016,0.454 2.920,0.422 C2.884,0.406 2.827,0.399 2.754,0.399 C2.610,0.399 2.423,0.425 2.193,0.478 C1.961,0.531 1.780,0.587 1.648,0.645 C1.382,0.756 1.101,1.080 0.804,1.615 C0.534,2.114 0.398,2.608 0.398,3.096 C0.398,3.238 0.407,3.378 0.427,3.513 C0.445,3.648 0.478,3.801 0.525,3.971 C0.573,4.141 0.612,4.267 0.641,4.348 C0.671,4.431 0.724,4.578 0.804,4.790 C0.883,5.002 0.931,5.132 0.947,5.180 C1.133,5.700 1.353,6.164 1.608,6.572 C2.027,7.251 2.599,7.953 3.322,8.677 C4.046,9.401 4.748,9.973 5.427,10.391 C5.835,10.646 6.300,10.866 6.819,11.052 C6.867,11.068 6.997,11.115 7.209,11.195 C7.421,11.275 7.568,11.329 7.650,11.358 C7.732,11.388 7.859,11.426 8.028,11.474 C8.198,11.521 8.351,11.555 8.486,11.573 C8.621,11.592 8.761,11.601 8.903,11.601 C9.391,11.601 9.885,11.466 10.384,11.196 C10.919,10.898 11.243,10.617 11.353,10.352 C11.412,10.219 11.468,10.038 11.521,9.807 C11.574,9.576 11.601,9.389 11.601,9.246 C11.601,9.172 11.592,9.116 11.577,9.079 z" fill="#fff" />
</svg>
