<svg version="1.1" xmlns="http://www.w3.org/2000/svg" xmlns:xlink="http://www.w3.org/1999/xlink" width="40" height="40" viewBox="0 0 40 40">
<path id="bg" d="M10.000,0.000 C10.000,0.000 30.000,0.000 30.000,0.000 C35.523,0.000 40.000,4.477 40.000,10.000 C40.000,10.000 40.000,30.000 40.000,30.000 C40.000,35.523 35.523,40.000 30.000,40.000 C30.000,40.000 10.000,40.000 10.000,40.000 C4.477,40.000 0.000,35.523 0.000,30.000 C0.000,30.000 0.000,10.000 0.000,10.000 C0.000,4.477 4.477,0.000 10.000,0.000 z" fill="#FFFFFF" />
<path id="play" d="M24.008,19.998 C24.008,20.851 16.484,25.423 16.010,24.997 C15.537,24.571 15.537,15.473 16.010,15.000 C16.484,14.526 24.008,19.146 24.008,19.998 z" fill="#3166B3" />
</svg>
