<svg version="1.1" xmlns="http://www.w3.org/2000/svg" xmlns:xlink="http://www.w3.org/1999/xlink" width="40" height="40" viewBox="0 0 40 40">
<g id="bg" >
<path id="bg-stroke" d="M10.475,0.950 C10.475,0.950 29.525,0.950 29.525,0.950 C34.786,0.950 39.050,5.214 39.050,10.475 C39.050,10.475 39.050,29.525 39.050,29.525 C39.050,34.786 34.786,39.050 29.525,39.050 C29.525,39.050 10.475,39.050 10.475,39.050 C5.214,39.050 0.950,34.786 0.950,29.525 C0.950,29.525 0.950,10.475 0.950,10.475 C0.950,5.214 5.214,0.950 10.475,0.950 z" fill="none" stroke="#FFFFFF" stroke-width="2" />
</g>
<path id="play" d="M24.008,19.998 C24.008,20.851 16.484,25.423 16.010,24.997 C15.537,24.571 15.537,15.473 16.010,15.000 C16.484,14.526 24.008,19.146 24.008,19.998 z" fill="#FFFFFF" />
</svg>
