<svg version="1.1" xmlns="http://www.w3.org/2000/svg" xmlns:xlink="http://www.w3.org/1999/xlink" width="16" height="16" viewBox="0 0 16 16">
<path id="print" d="M13.999,13.002 C13.999,13.002 11.998,13.002 11.998,13.002 L11.998,16.003 L3.995,16.003 L3.995,13.002 C3.995,13.002 1.995,13.002 1.995,13.002 C0.890,13.002 -0.006,12.107 -0.006,11.002 C-0.006,11.001 -0.006,11.001 -0.006,11.001 C-0.006,11.001 -0.006,6.000 -0.006,6.000 C-0.006,4.895 0.890,4.000 1.995,4.000 C1.995,4.000 3.995,4.000 3.995,4.000 L3.995,-0.003 L11.998,-0.003 L11.998,4.000 C11.998,4.000 13.999,4.000 13.999,4.000 C15.104,4.000 15.999,4.895 15.999,6.000 C15.999,6.000 15.999,11.001 15.999,11.001 C16.000,12.106 15.105,13.002 14.000,13.002 C14.000,13.002 13.999,13.002 13.999,13.002 zM5.996,14.002 L9.998,14.002 L9.998,10.001 L5.996,10.001 L5.996,14.002 zM9.998,1.999 L5.996,1.999 L5.996,4.000 L9.998,4.000 L9.998,1.999 zM13.999,6.000 L1.995,6.000 L1.995,11.001 L3.995,11.001 L3.995,8.001 L11.998,8.001 L11.998,11.001 L13.999,11.001 L13.999,6.000 z" fill="#4E5566" />
</svg>
