<svg version="1.1" xmlns="http://www.w3.org/2000/svg" xmlns:xlink="http://www.w3.org/1999/xlink" width="119" height="186" viewBox="0 0 119 186">
<path id="question" d="M72.192,125.715 C75.192,125.715 77.192,125.215 77.192,122.215 C77.192,122.215 77.192,118.965 77.192,118.965 C77.192,89.463 118.945,98.213 118.945,54.211 C118.945,-7.043 34.690,-10.793 1.938,19.209 C-0.312,21.459 -0.312,23.709 1.188,26.209 C1.188,26.209 17.689,51.461 17.689,51.461 C19.439,54.211 21.939,54.461 24.689,52.211 C31.190,46.710 41.190,41.460 54.941,41.460 C68.442,41.460 72.942,48.211 72.942,55.961 C72.942,79.462 33.690,73.212 33.690,113.964 C33.690,113.964 33.690,120.715 33.690,120.715 C33.690,123.965 35.440,125.715 38.690,125.715 C38.690,125.715 72.192,125.715 72.192,125.715 zM81.693,161.717 C81.693,146.966 71.192,136.716 55.941,136.716 C40.690,136.716 30.190,146.966 30.190,161.717 C30.190,175.718 40.690,186.719 55.941,186.719 C71.192,186.719 81.693,175.718 81.693,161.717 z" fill="#F1F4FB" />
</svg>
