<svg version="1.1" xmlns="http://www.w3.org/2000/svg" xmlns:xlink="http://www.w3.org/1999/xlink" width="13" height="13" viewBox="0 0 13 13">
<path id="search" d="M12.879,12.848 C12.489,13.238 11.855,13.238 11.464,12.848 C11.464,12.848 9.100,10.484 9.100,10.484 L10.514,9.070 C10.514,9.070 12.879,11.434 12.879,11.434 C13.269,11.824 13.269,12.457 12.879,12.848 zM4.999,10.000 C2.238,10.000 -0.000,7.761 -0.000,5.000 C-0.000,2.238 2.238,-0.000 4.999,-0.000 C7.761,-0.000 10.000,2.238 10.000,5.000 C10.000,7.761 7.761,10.000 4.999,10.000 zM4.999,2.006 C3.346,2.006 2.006,3.347 2.006,5.000 C2.006,6.653 3.346,7.993 4.999,7.993 C6.652,7.993 7.993,6.653 7.993,5.000 C7.993,3.347 6.652,2.006 4.999,2.006 z" fill="#3166B3" />
</svg>
