<svg version="1.1" xmlns="http://www.w3.org/2000/svg" xmlns:xlink="http://www.w3.org/1999/xlink" width="15" height="16" viewBox="0 0 15 16">
<path id="share" d="M11.798,6.001 C11.073,5.999 10.369,5.766 9.804,5.340 C9.804,5.340 6.354,7.349 6.354,7.349 C6.467,7.775 6.467,8.220 6.354,8.648 C6.354,8.648 9.804,10.657 9.804,10.657 C10.369,10.232 11.073,10.000 11.798,10.000 C13.574,10.000 15.012,11.343 15.012,13.000 C15.012,14.657 13.574,16.000 11.798,16.000 C10.022,16.000 8.583,14.657 8.583,13.000 C8.584,12.781 8.612,12.562 8.669,12.350 C8.669,12.350 5.217,10.339 5.217,10.339 C3.832,11.377 1.809,11.170 0.698,9.878 C-0.414,8.586 -0.193,6.699 1.192,5.662 C2.368,4.781 4.042,4.781 5.217,5.662 C5.217,5.662 8.669,3.652 8.669,3.652 C8.612,3.438 8.584,3.220 8.583,3.001 C8.583,1.344 10.022,-0.000 11.798,-0.000 C13.574,-0.000 15.012,1.344 15.012,3.001 C15.012,4.658 13.574,6.001 11.798,6.001 zM11.798,13.999 C12.389,13.999 12.870,13.552 12.870,13.000 C12.870,12.447 12.389,12.000 11.798,12.000 C11.206,12.000 10.725,12.447 10.725,13.000 C10.725,13.552 11.206,13.999 11.798,13.999 zM3.224,7.001 C2.633,7.001 2.153,7.448 2.153,8.000 C2.153,8.552 2.633,9.000 3.224,9.000 C3.816,9.000 4.296,8.552 4.296,8.000 C4.296,7.448 3.816,7.001 3.224,7.001 zM11.798,2.001 C11.206,2.001 10.725,2.449 10.725,3.001 C10.725,3.553 11.206,4.001 11.798,4.001 C12.389,4.001 12.870,3.553 12.870,3.001 C12.870,2.449 12.389,2.001 11.798,2.001 z" fill="#B3B7C1" />
</svg>
