<svg version="1.1" xmlns="http://www.w3.org/2000/svg" xmlns:xlink="http://www.w3.org/1999/xlink" width="13" height="14" viewBox="0 0 13 14">
<path id="share" d="M10.205,5.251 C9.577,5.249 8.969,5.045 8.480,4.672 C8.480,4.672 5.496,6.430 5.496,6.430 C5.594,6.803 5.594,7.193 5.496,7.567 C5.496,7.567 8.480,9.325 8.480,9.325 C8.969,8.953 9.577,8.750 10.205,8.750 C11.741,8.750 12.985,9.925 12.985,11.375 C12.985,12.825 11.741,14.000 10.205,14.000 C8.669,14.000 7.424,12.825 7.424,11.375 C7.425,11.184 7.449,10.992 7.498,10.806 C7.498,10.806 4.513,9.047 4.513,9.047 C3.315,9.955 1.565,9.774 0.604,8.644 C-0.358,7.513 -0.167,5.861 1.031,4.954 C2.048,4.183 3.497,4.183 4.513,4.954 C4.513,4.954 7.498,3.195 7.498,3.195 C7.449,3.008 7.425,2.817 7.424,2.626 C7.424,1.176 8.669,-0.000 10.205,-0.000 C11.741,-0.000 12.985,1.176 12.985,2.626 C12.985,4.075 11.741,5.251 10.205,5.251 zM10.205,12.249 C10.716,12.249 11.132,11.858 11.132,11.375 C11.132,10.891 10.716,10.500 10.205,10.500 C9.693,10.500 9.277,10.891 9.277,11.375 C9.277,11.858 9.693,12.249 10.205,12.249 zM2.789,6.125 C2.277,6.125 1.862,6.517 1.862,7.000 C1.862,7.483 2.277,7.875 2.789,7.875 C3.301,7.875 3.716,7.483 3.716,7.000 C3.716,6.517 3.301,6.125 2.789,6.125 zM10.205,1.751 C9.693,1.751 9.277,2.143 9.277,2.626 C9.277,3.109 9.693,3.501 10.205,3.501 C10.716,3.501 11.132,3.109 11.132,2.626 C11.132,2.143 10.716,1.751 10.205,1.751 z" fill="#FFFFFF" />
</svg>
