<svg version="1.1" xmlns="http://www.w3.org/2000/svg" xmlns:xlink="http://www.w3.org/1999/xlink" width="14" height="14" viewBox="0 0 14 14">
<path id="user" d="M6.999,-0.001 C9.080,-0.001 10.768,1.670 10.768,3.732 C10.768,5.794 9.080,9.066 6.999,9.066 C4.917,9.066 3.230,5.794 3.230,3.732 C3.230,1.670 4.917,-0.001 6.999,-0.001 zM-0.002,13.265 C-0.002,10.616 3.768,9.532 3.768,9.532 C3.986,10.253 4.999,10.999 4.999,10.999 C3.966,10.999 2.075,12.199 2.075,13.265 C2.075,13.987 -0.002,14.070 -0.002,13.265 zM13.998,13.265 C13.998,10.616 10.229,9.532 10.229,9.532 C10.292,10.003 8.999,10.999 8.999,10.999 C9.991,10.999 11.922,12.216 11.922,13.265 C11.922,14.013 13.998,13.988 13.998,13.265 z" fill="#fff" />
<path id="user" d="M6.999,1.999 C8.487,1.999 8.999,2.962 8.999,3.999 C8.999,5.473 8.487,6.999 6.999,6.999 M6.999,6.999 C5.510,6.999 4.999,5.473 4.999,3.999 C4.999,2.962 5.510,1.999 6.999,1.999 " fill="#FFFFFF" />
</svg>
